<svg width="129" height="140" viewBox="0 0 129 140" fill="none" xmlns="http://www.w3.org/2000/svg">
<path d="M90.3903 119.486H89.8262C85.2731 126.573 79.1889 131.688 71.6542 134.789C64.0793 137.89 56.1014 139.42 47.7206 139.42C41.5155 139.42 35.5522 138.574 29.7904 136.843C24.0286 135.111 18.9921 132.534 14.6002 129.07C10.2083 125.607 6.74314 121.338 4.20472 116.224C1.6663 111.109 0.376953 105.189 0.376953 98.4638C0.376953 90.8122 1.78717 84.3285 4.60764 79.053C7.42811 73.7774 11.2559 69.3878 16.091 65.9245C20.9261 62.4611 26.4461 59.7629 32.6512 57.8702C38.8562 55.9371 45.2627 54.5276 51.9512 53.6416C58.5995 52.7154 65.2478 52.1919 71.896 51.9905C78.5443 51.8294 84.709 51.7086 90.3499 51.7086C90.3499 44.4195 87.7309 38.6204 82.5332 34.3516C77.3355 30.0828 71.1707 27.9082 64.0793 27.9082C56.9878 27.9082 51.1857 29.3177 45.6253 32.1367C40.065 34.9557 35.109 38.8217 30.7171 43.7349L8.83836 21.3036C16.4939 14.2158 25.4388 8.85973 35.6328 5.31584C45.8268 1.77195 56.4237 0 67.343 0C79.3904 0 89.2621 1.49005 96.9982 4.51041C104.734 7.53077 110.939 11.9204 115.573 17.7597C120.207 23.5991 123.47 30.7272 125.283 39.2244C127.097 47.6815 128.023 57.5077 128.023 68.6227V136.118H90.2693V119.445L90.3903 119.486ZM80.2768 77.9254C77.1743 77.9254 73.3062 78.0462 68.6323 78.3281C63.9987 78.61 59.5262 79.3751 55.215 80.6638C50.944 81.9525 47.2773 83.8453 44.2554 86.4227C41.2335 88.9598 39.7426 92.5439 39.7426 97.0946C39.7426 102.008 41.8378 105.672 46.0283 108.008C50.2187 110.384 54.6105 111.552 59.1636 111.552C63.1525 111.552 67.0609 110.988 70.7678 109.901C74.515 108.814 77.819 107.243 80.7604 105.27C83.6614 103.256 85.9984 100.719 87.7309 97.6181C89.4635 94.5172 90.3499 90.8928 90.3499 86.6643V77.9254H80.2365H80.2768Z" fill="#EEEEEE"/>
</svg>
