<svg width="588" height="125" viewBox="0 0 588 125" fill="none" xmlns="http://www.w3.org/2000/svg">
<path d="M587.593 114.286V123H524.934V114.286H587.593ZM527.922 2.16382V123H517.714V2.16382H527.922Z" fill="#FFF429"/>
<path d="M451.155 9.3841L409.327 123H398.704L444.35 2.16382H451.736L451.155 9.3841ZM489.165 123L447.254 9.3841L446.673 2.16382H454.06L499.788 123H489.165ZM481.696 80.342V89.1392H417.543V80.342H481.696Z" fill="#FFF429"/>
<path d="M357.042 2.16382V123H346.917V2.16382H357.042ZM398.455 2.16382V10.9609H305.587V2.16382H398.455Z" fill="#FFF429"/>
<path d="M286.167 2.16382V123H275.959V2.16382H286.167Z" fill="#FFF429"/>
<path d="M244.506 65.5694V108.559C243.123 110.606 240.744 112.875 237.369 115.364C233.994 117.854 229.457 120.04 223.758 121.921C218.059 123.747 210.977 124.66 202.512 124.66C195.43 124.66 188.929 123.387 183.009 120.842C177.089 118.297 171.943 114.618 167.573 109.804C163.257 104.935 159.91 99.0981 157.531 92.2928C155.207 85.4874 154.045 77.8522 154.045 69.387V54.7805C154.045 46.4813 155.124 39.0121 157.282 32.3727C159.439 25.6781 162.565 19.9516 166.66 15.1934C170.754 10.4353 175.678 6.81128 181.432 4.32153C187.242 1.77645 193.743 0.503906 200.935 0.503906C209.898 0.503906 217.451 2.05309 223.592 5.15144C229.733 8.2498 234.519 12.51 237.95 17.9322C241.435 23.299 243.593 29.385 244.423 36.1903H234.215C233.44 31.3768 231.836 26.9506 229.401 22.9117C226.967 18.8174 223.426 15.5254 218.778 13.0357C214.186 10.5459 208.239 9.30103 200.935 9.30103C195.071 9.30103 189.842 10.3799 185.25 12.5377C180.713 14.6955 176.895 17.7662 173.797 21.7498C170.699 25.7334 168.347 30.5192 166.743 36.1074C165.138 41.6401 164.336 47.8092 164.336 54.6145V69.387C164.336 76.469 165.221 82.8594 166.992 88.5581C168.817 94.2569 171.418 99.1534 174.793 103.248C178.168 107.342 182.207 110.496 186.91 112.709C191.613 114.867 196.841 115.945 202.595 115.945C208.736 115.945 213.965 115.364 218.281 114.203C222.596 113.041 226.054 111.658 228.654 110.053C231.31 108.393 233.219 106.844 234.381 105.405V74.2836H201.931V65.5694H244.506Z" fill="#FFF429"/>
<path d="M124.499 2.16382V123H114.291V2.16382H124.499Z" fill="#FFF429"/>
<path d="M33.7065 123H6.31922L6.4852 114.286H33.7065C42.393 114.286 49.8622 112.349 56.1143 108.476C62.4216 104.548 67.2905 99.1258 70.7208 92.2099C74.1511 85.2939 75.8663 77.2713 75.8663 68.1422V56.8554C75.8663 49.8841 74.8704 43.5767 72.8786 37.9333C70.9421 32.2898 68.1481 27.4763 64.4964 23.4927C60.8448 19.4538 56.4739 16.3554 51.3837 14.1976C46.3489 12.0398 40.7055 10.9609 34.4534 10.9609H5.82127V2.16382H34.4534C41.978 2.16382 48.8663 3.46402 55.1184 6.06443C61.4257 8.60951 66.8755 12.3165 71.4677 17.1853C76.1153 21.9988 79.6839 27.7806 82.1737 34.5306C84.7187 41.2806 85.9913 48.8052 85.9913 57.1043V68.1422C85.9913 76.4414 84.7187 83.966 82.1737 90.716C79.6839 97.466 76.1153 103.248 71.4677 108.061C66.8202 112.875 61.3151 116.582 54.9524 119.182C48.5897 121.727 41.5077 123 33.7065 123ZM10.8838 2.16382V123H0.675781V2.16382H10.8838Z" fill="#FFF429"/>
</svg>
