<svg width="670" height="121" viewBox="0 0 670 121" fill="none" xmlns="http://www.w3.org/2000/svg">
<path d="M593.435 0.163818L615.677 52.6146L638.002 0.163818H669.373L630.533 77.5951V121H600.905V77.5951L561.981 0.163818H593.435Z" fill="#FFF429"/>
<path d="M521.482 0.163818V121H492.352V0.163818H521.482ZM557.832 0.163818V22.6546H456.831V0.163818H557.832Z" fill="#FFF429"/>
<path d="M444.963 0.163818V121H415.916V0.163818H444.963Z" fill="#FFF429"/>
<path d="M401.724 98.592V121H340.642V98.592H401.724ZM351.016 0.163818V121H321.886V0.163818H351.016Z" fill="#FFF429"/>
<path d="M257.235 25.5593L227.773 121H196.485L240.886 0.163818H260.721L257.235 25.5593ZM281.635 121L252.09 25.5593L248.272 0.163818H268.356L313.006 121H281.635ZM280.473 75.9353V98.426H218.478V75.9353H280.473Z" fill="#FFF429"/>
<path d="M194.079 98.592V121H129.677V98.592H194.079ZM140.051 0.163818V121H110.921V0.163818H140.051ZM185.779 48.133V69.7939H129.677V48.133H185.779ZM194.328 0.163818V22.6546H129.677V0.163818H194.328Z" fill="#FFF429"/>
<path d="M0.0439453 0.163818H47.5982C56.8933 0.163818 64.9711 1.54701 71.8318 4.3134C78.6924 7.0798 83.9763 11.1741 87.6832 16.5962C91.4455 22.0183 93.3267 28.713 93.3267 36.6802C93.3267 43.5962 92.2478 49.3779 90.09 54.0255C87.9322 58.673 84.9168 62.5183 81.0439 65.5613C77.2263 68.549 72.7724 71.0111 67.6822 72.9476L58.1382 78.342H18.2191L18.0532 55.8513H47.5982C51.3052 55.8513 54.3759 55.1873 56.8103 53.8595C59.2447 52.5316 61.0705 50.6505 62.2878 48.216C63.5603 45.7263 64.1966 42.7662 64.1966 39.3359C64.1966 35.8503 63.5603 32.8626 62.2878 30.3728C61.0152 27.8831 59.1341 25.9742 56.6443 24.6464C54.2099 23.3185 51.1945 22.6546 47.5982 22.6546H29.174V121H0.0439453V0.163818ZM66.1884 121L39.465 67.5531L70.3379 67.3871L97.3932 119.755V121H66.1884Z" fill="#FFF429"/>
</svg>
