<svg width="11856" height="253" viewBox="0 0 11856 253" fill="none" xmlns="http://www.w3.org/2000/svg">
<path d="M2412.98 249H2357.06L2365.29 203.659L2414.83 203.995C2428.83 203.995 2440.36 200.525 2449.43 193.584C2458.61 186.643 2465.71 177.63 2470.75 166.547C2475.9 155.464 2479.37 143.765 2481.16 131.45L2482.34 121.038C2483.35 113.65 2483.79 105.925 2483.68 97.8643C2483.57 89.6917 2482.4 82.079 2480.16 75.026C2477.92 67.973 2474.11 62.1514 2468.74 57.5614C2463.48 52.9713 2456.09 50.5084 2446.57 50.1725L2390.65 50.0046L2398.54 4.49595L2448.42 4.66388C2464.76 4.99974 2479.09 8.35831 2491.41 14.7396C2503.72 21.0089 2513.85 29.5733 2521.8 40.4327C2529.75 51.1801 2535.35 63.4949 2538.6 77.377C2541.84 91.2591 2542.57 105.869 2540.78 121.206L2539.6 131.786C2537.48 148.131 2532.89 163.468 2525.83 177.798C2518.78 192.016 2509.71 204.499 2498.63 215.246C2487.54 225.882 2474.73 234.222 2460.17 240.268C2445.73 246.201 2430 249.112 2412.98 249ZM2432.63 4.49595L2390.15 249H2332.71L2375.03 4.49595H2432.63ZM2652.11 4.49595L2609.8 249H2552.37L2594.85 4.49595H2652.11ZM2866.39 118.352L2850.61 218.941C2843.11 227.673 2833.7 234.502 2822.39 239.428C2811.09 244.242 2799.22 247.601 2786.79 249.504C2774.48 251.519 2762.89 252.415 2752.03 252.191C2735.02 251.967 2720.52 248.608 2708.54 242.115C2696.67 235.622 2687.21 226.833 2680.16 215.75C2673.11 204.667 2668.35 192.072 2665.89 177.966C2663.42 163.86 2663.14 149.082 2665.05 133.633L2666.89 120.199C2669.02 104.302 2673.16 89.1879 2679.32 74.858C2685.59 60.4162 2693.71 47.5976 2703.67 36.4024C2713.63 25.2071 2725.44 16.4189 2739.1 10.0376C2752.87 3.65631 2768.43 0.633591 2785.79 0.969449C2803.81 1.19335 2819.09 4.6079 2831.63 11.2131C2844.28 17.7063 2854.08 27.1103 2861.02 39.4251C2867.96 51.7399 2871.99 66.7975 2873.11 84.5979L2818.2 84.43C2817.64 77.0411 2816.24 70.5479 2814 64.9502C2811.87 59.2407 2808.46 54.7626 2803.75 51.516C2799.05 48.2693 2792.62 46.4781 2784.44 46.1422C2774.59 45.6944 2766.19 47.7656 2759.25 52.3556C2752.31 56.8337 2746.49 62.8232 2741.79 70.324C2737.2 77.8248 2733.56 85.9413 2730.87 94.6736C2728.3 103.406 2726.45 111.746 2725.33 119.695L2723.48 133.801C2722.59 141.302 2722.03 149.25 2721.81 157.647C2721.69 166.043 2722.64 173.936 2724.66 181.325C2726.68 188.714 2730.31 194.759 2735.58 199.461C2740.95 204.163 2748.62 206.626 2758.58 206.85C2762.95 206.962 2767.15 206.682 2771.18 206.01C2775.32 205.339 2779.29 204.275 2783.1 202.82C2787.02 201.252 2790.77 199.293 2794.35 196.942L2801.91 158.822H2762.11L2769.16 118.352H2866.39ZM2980.25 4.49595L2937.93 249H2880.5L2922.98 4.49595H2980.25ZM3130.04 4.49595L3087.72 249H3030.12L3072.61 4.49595H3130.04ZM3201.41 4.49595L3193.52 50.0046H2994.86L3002.92 4.49595H3201.41ZM3296.46 58.7369L3206.45 249H3142.8L3272.44 4.49595H3313.08L3296.46 58.7369ZM3311.91 249L3287.05 52.8594L3288.4 4.49595H3326.68L3371.86 249H3311.91ZM3325 157.815L3316.94 203.323H3194.86L3202.92 157.815H3325ZM3554.9 203.659L3547.01 249H3426.77L3434.66 203.659H3554.9ZM3489.91 4.49595L3447.42 249H3389.99L3432.31 4.49595H3489.91Z" fill="#FFF429"/>
<path d="M79.402 249H24.3214L27.5121 231.367H79.9058C97.9302 231.256 113.939 227.001 127.933 218.605C141.927 210.097 153.347 198.789 162.191 184.683C171.147 170.577 177.081 155.016 179.991 137.999L183.686 115.161C185.477 103.518 185.589 92.2666 184.022 81.4073C182.566 70.4359 179.264 60.5841 174.114 51.8518C169.076 43.0076 162.079 35.9546 153.123 30.6928C144.278 25.431 133.307 22.6322 120.209 22.2964H62.6092L65.6319 4.49595H120.545C136.106 4.83181 149.596 8.07843 161.015 14.2358C172.434 20.2812 181.615 28.5097 188.556 38.9213C195.609 49.2209 200.367 60.9759 202.83 74.1863C205.404 87.3967 205.684 101.223 203.669 115.665L200.143 137.999C197.68 153.449 193.034 167.89 186.205 181.325C179.487 194.759 170.867 206.514 160.344 216.59C149.932 226.665 137.897 234.558 124.239 240.268C110.581 245.977 95.6351 248.888 79.402 249ZM75.7076 4.49595L33.3896 249H13.0702L55.3882 4.49595H75.7076ZM298.717 4.49595L256.399 249H236.079L278.397 4.49595H298.717ZM512.154 132.793L497.712 219.78C491.107 228.177 482.878 234.782 473.027 239.596C463.287 244.298 452.931 247.601 441.96 249.504C431.101 251.407 420.633 252.359 410.557 252.359C394.996 252.247 381.841 249 371.094 242.619C360.347 236.125 351.838 227.505 345.569 216.758C339.3 206.01 335.157 194.087 333.142 180.989C331.239 167.779 331.295 154.288 333.31 140.518L338.012 110.963C340.363 96.6328 344.393 82.8626 350.103 69.6522C355.924 56.4419 363.425 44.6869 372.605 34.3872C381.785 23.9757 392.645 15.8031 405.184 9.86966C417.722 3.93619 431.884 1.02542 447.669 1.13738C462.559 1.24933 475.546 4.21607 486.629 10.0376C497.712 15.8591 506.333 24.1436 512.49 34.891C518.759 45.6385 522.118 58.457 522.566 73.3467H502.582C502.134 62.0395 499.671 52.3556 495.193 44.295C490.827 36.2345 484.558 30.0211 476.385 25.655C468.325 21.2888 458.529 19.0498 446.998 18.9378C434.011 18.7139 422.424 21.1769 412.237 26.3267C402.161 31.4765 393.484 38.4735 386.208 47.3177C378.931 56.162 372.997 66.0698 368.407 77.0411C363.817 88.0124 360.515 99.2077 358.499 110.627L353.629 140.686C351.95 151.322 351.614 162.125 352.622 173.096C353.629 184.068 356.26 194.199 360.515 203.491C364.881 212.671 371.15 220.116 379.323 225.826C387.607 231.535 398.186 234.446 411.061 234.558C418.786 234.67 426.678 234.11 434.739 232.879C442.8 231.535 450.468 229.352 457.745 226.33C465.134 223.195 471.795 218.885 477.729 213.399L488.98 150.426H425.335L428.19 132.793H512.154ZM616.102 4.49595L573.784 249H553.465L595.783 4.49595H616.102ZM754.979 4.49595L712.829 249H692.845L735.163 4.49595H754.979ZM836.256 4.49595L833.401 22.2964H650.863L653.886 4.49595H836.256ZM936.51 20.1133L815.265 249H793.434L925.258 4.66388H940.54L936.51 20.1133ZM971.775 249L928.953 18.2661L930.296 4.49595H944.57L992.094 249H971.775ZM971.775 162.685L968.752 180.485H842.638L845.492 162.685H971.775ZM1167.75 231.367L1164.72 249H1041.63L1044.49 231.367H1167.75ZM1090 4.49595L1047.68 249H1027.36L1069.68 4.49595H1090Z" fill="#FFF429"/>
<mask id="mask0_692_155" style="mask-type:alpha" maskUnits="userSpaceOnUse" x="1135" y="150" width="1216" height="115">
<rect x="1135.8" y="150.426" width="1215" height="114.197" fill="#D9D9D9"/>
</mask>
<g mask="url(#mask0_692_155)">
<path d="M1254.07 4.49528L1318.39 4.66321C1332.83 5.11102 1344.7 8.41361 1353.99 14.571C1363.39 20.6164 1370.11 28.9569 1374.14 39.5924C1378.28 50.1159 1379.74 62.4306 1378.51 76.5366C1377.5 88.0677 1374.59 98.4233 1369.77 107.603C1365.07 116.784 1358.69 124.62 1350.63 131.113C1342.68 137.607 1333.33 142.756 1322.58 146.563L1313.85 149.921H1252.73L1256.92 123.557L1297.9 123.893C1307.3 123.781 1315.59 121.709 1322.75 117.679C1329.92 113.537 1335.68 107.883 1340.05 100.718C1344.53 93.5534 1347.27 85.4369 1348.28 76.3687C1349.29 68.4201 1349.06 61.0872 1347.61 54.3701C1346.15 47.6529 1343.02 42.2232 1338.2 38.081C1333.5 33.8268 1326.67 31.5318 1317.71 31.1959L1279.76 31.028L1241.81 248.999H1211.75L1254.07 4.49528ZM1326.28 248.999L1298.4 138.166L1328.13 137.999L1358.69 246.816L1358.52 248.999H1326.28ZM1520.91 222.635L1516.21 248.999H1413.1L1417.8 222.635H1520.91ZM1461.13 4.49528L1418.64 248.999H1388.58L1430.9 4.49528H1461.13ZM1526.62 109.619L1522.08 135.983H1432.75L1437.45 109.619H1526.62ZM1557.18 4.49528L1552.48 31.028H1450.88L1455.58 4.49528H1557.18ZM1669.86 27.8374L1567.26 248.999H1535.35L1654.24 4.49528H1674.23L1669.86 27.8374ZM1684.3 248.999L1657.94 24.3109L1661.13 4.49528H1680.1L1714.03 248.999H1684.3ZM1699.75 158.486L1695.05 185.019H1580.52L1585.23 158.486H1699.75ZM1874.73 222.635L1870.03 248.999H1771.46L1776.16 222.635H1874.73ZM1819.49 4.49528L1777 248.999H1746.94L1789.26 4.49528H1819.49ZM1979.69 4.49528L1937.2 248.999H1906.98L1949.46 4.49528H1979.69ZM2103.28 4.49528L2060.8 248.999H2030.91L2073.39 4.49528H2103.28ZM2165.59 4.49528L2160.88 31.028H2006.39L2011.09 4.49528H2165.59ZM2215.97 4.49528L2242.83 126.915L2312.69 4.49528H2348.29L2253.08 159.493L2237.63 248.999H2207.4L2223.69 155.799L2183.22 4.49528H2215.97Z" fill="#FFF429"/>
</g>
<mask id="mask1_692_155" style="mask-type:alpha" maskUnits="userSpaceOnUse" x="1106" y="-12" width="1216" height="163">
<rect x="1106.59" y="-11.5742" width="1215" height="162" fill="#D9D9D9"/>
</mask>
<g mask="url(#mask1_692_155)">
<path d="M1224.86 4.49543L1289.18 4.66336C1303.62 5.11117 1315.48 8.41376 1324.78 14.5711C1334.18 20.6166 1340.9 28.957 1344.93 39.5925C1349.07 50.116 1350.53 62.4308 1349.29 76.5368C1348.29 88.0679 1345.38 98.4235 1340.56 107.604C1335.86 116.784 1329.48 124.62 1321.42 131.114C1313.47 137.607 1304.12 142.757 1293.37 146.563L1284.64 149.922H1223.52L1227.71 123.557L1268.69 123.893C1278.09 123.781 1286.38 121.71 1293.54 117.679C1300.71 113.537 1306.47 107.883 1310.84 100.719C1315.32 93.5536 1318.06 85.437 1319.07 76.3689C1320.07 68.4203 1319.85 61.0874 1318.4 54.3702C1316.94 47.6531 1313.81 42.2234 1308.99 38.0812C1304.29 33.827 1297.46 31.5319 1288.5 31.1961L1250.55 31.0282L1212.6 248.999H1182.54L1224.86 4.49543ZM1297.07 248.999L1269.19 138.167L1298.92 137.999L1329.48 246.816L1329.31 248.999H1297.07ZM1491.7 222.635L1487 248.999H1383.89L1388.59 222.635H1491.7ZM1431.91 4.49543L1389.43 248.999H1359.37L1401.69 4.49543H1431.91ZM1497.41 109.619L1492.87 135.984H1403.54L1408.24 109.619H1497.41ZM1527.97 4.49543L1523.27 31.0282H1421.67L1426.37 4.49543H1527.97ZM1640.65 27.8375L1538.05 248.999H1506.14L1625.03 4.49543H1645.02L1640.65 27.8375ZM1655.09 248.999L1628.73 24.311L1631.92 4.49543H1650.89L1684.82 248.999H1655.09ZM1670.54 158.486L1665.84 185.019H1551.31L1556.01 158.486H1670.54ZM1845.52 222.635L1840.82 248.999H1742.25L1746.95 222.635H1845.52ZM1790.27 4.49543L1747.79 248.999H1717.73L1760.05 4.49543H1790.27ZM1950.48 4.49543L1907.99 248.999H1877.77L1920.25 4.49543H1950.48ZM2074.07 4.49543L2031.59 248.999H2001.7L2044.18 4.49543H2074.07ZM2136.38 4.49543L2131.67 31.0282H1977.18L1981.88 4.49543H2136.38ZM2186.75 4.49543L2213.62 126.915L2283.48 4.49543H2319.08L2223.87 159.494L2208.42 248.999H2178.19L2194.48 155.799L2154.01 4.49543H2186.75Z" fill="#FFF429"/>
</g>
<path d="M9522.39 249H9466.47L9474.7 203.659L9524.24 203.995C9538.23 203.995 9549.76 200.525 9558.83 193.584C9568.01 186.643 9575.12 177.63 9580.16 166.547C9585.31 155.464 9588.78 143.765 9590.57 131.45L9591.74 121.038C9592.75 113.65 9593.2 105.925 9593.09 97.8643C9592.97 89.6917 9591.8 82.079 9589.56 75.026C9587.32 67.973 9583.51 62.1514 9578.14 57.5614C9572.88 52.9713 9565.49 50.5084 9555.97 50.1725L9500.05 50.0046L9507.95 4.49595L9557.82 4.66388C9574.17 4.99974 9588.5 8.35831 9600.81 14.7396C9613.13 21.0089 9623.26 29.5733 9631.21 40.4327C9639.16 51.1801 9644.75 63.4949 9648 77.377C9651.25 91.2591 9651.97 105.869 9650.18 121.206L9649.01 131.786C9646.88 148.131 9642.29 163.468 9635.24 177.798C9628.18 192.016 9619.12 204.499 9608.03 215.246C9596.95 225.882 9584.13 234.222 9569.58 240.268C9555.13 246.201 9539.41 249.112 9522.39 249ZM9542.04 4.49595L9499.55 249H9442.12L9484.44 4.49595H9542.04ZM9761.52 4.49595L9719.2 249H9661.77L9704.26 4.49595H9761.52ZM9975.8 118.352L9960.01 218.941C9952.51 227.673 9943.11 234.502 9931.8 239.428C9920.49 244.242 9908.62 247.601 9896.2 249.504C9883.88 251.519 9872.3 252.415 9861.44 252.191C9844.42 251.967 9829.92 248.608 9817.94 242.115C9806.08 235.622 9796.62 226.833 9789.56 215.75C9782.51 204.667 9777.75 192.072 9775.29 177.966C9772.83 163.86 9772.55 149.082 9774.45 133.633L9776.3 120.199C9778.42 104.302 9782.57 89.1879 9788.72 74.858C9794.99 60.4162 9803.11 47.5976 9813.07 36.4024C9823.04 25.2071 9834.85 16.4189 9848.51 10.0376C9862.28 3.65631 9877.84 0.633591 9895.19 0.969449C9913.21 1.19335 9928.5 4.6079 9941.03 11.2131C9953.69 17.7063 9963.48 27.1103 9970.42 39.4251C9977.36 51.7399 9981.39 66.7975 9982.51 84.5979L9927.6 84.43C9927.04 77.0411 9925.64 70.5479 9923.4 64.9502C9921.28 59.2407 9917.86 54.7626 9913.16 51.516C9908.46 48.2693 9902.02 46.4781 9893.85 46.1422C9884 45.6944 9875.6 47.7656 9868.66 52.3556C9861.72 56.8337 9855.9 62.8232 9851.19 70.324C9846.6 77.8248 9842.96 85.9413 9840.28 94.6736C9837.7 103.406 9835.86 111.746 9834.74 119.695L9832.89 133.801C9831.99 141.302 9831.43 149.25 9831.21 157.647C9831.1 166.043 9832.05 173.936 9834.06 181.325C9836.08 188.714 9839.72 194.759 9844.98 199.461C9850.35 204.163 9858.02 206.626 9867.99 206.85C9872.35 206.962 9876.55 206.682 9880.58 206.01C9884.72 205.339 9888.7 204.275 9892.5 202.82C9896.42 201.252 9900.17 199.293 9903.75 196.942L9911.31 158.822H9871.51L9878.57 118.352H9975.8ZM10089.7 4.49595L10047.3 249H9989.9L10032.4 4.49595H10089.7ZM10239.4 4.49595L10197.1 249H10139.5L10182 4.49595H10239.4ZM10310.8 4.49595L10302.9 50.0046H10104.3L10112.3 4.49595H10310.8ZM10405.9 58.7369L10315.9 249H10252.2L10381.8 4.49595H10422.5L10405.9 58.7369ZM10421.3 249L10396.5 52.8594L10397.8 4.49595H10436.1L10481.3 249H10421.3ZM10434.4 157.815L10426.3 203.323H10304.3L10312.3 157.815H10434.4ZM10664.3 203.659L10656.4 249H10536.2L10544.1 203.659H10664.3ZM10599.3 4.49595L10556.8 249H10499.4L10541.7 4.49595H10599.3Z" fill="#FFF429"/>
<path d="M7188.8 249H7133.72L7136.91 231.367H7189.31C7207.33 231.256 7223.34 227.001 7237.34 218.605C7251.33 210.097 7262.75 198.789 7271.59 184.683C7280.55 170.577 7286.48 155.016 7289.39 137.999L7293.09 115.161C7294.88 103.518 7294.99 92.2666 7293.42 81.4073C7291.97 70.4359 7288.67 60.5841 7283.52 51.8518C7278.48 43.0076 7271.48 35.9546 7262.53 30.6928C7253.68 25.431 7242.71 22.6322 7229.61 22.2964H7172.01L7175.03 4.49595H7229.95C7245.51 4.83181 7259 8.07843 7270.42 14.2358C7281.84 20.2812 7291.02 28.5097 7297.96 38.9213C7305.01 49.2209 7309.77 60.9759 7312.23 74.1863C7314.81 87.3967 7315.09 101.223 7313.07 115.665L7309.55 137.999C7307.08 153.449 7302.44 167.89 7295.61 181.325C7288.89 194.759 7280.27 206.514 7269.75 216.59C7259.33 226.665 7247.3 234.558 7233.64 240.268C7219.98 245.977 7205.04 248.888 7188.8 249ZM7185.11 4.49595L7142.79 249H7122.47L7164.79 4.49595H7185.11ZM7408.12 4.49595L7365.8 249H7345.48L7387.8 4.49595H7408.12ZM7621.56 132.793L7607.12 219.78C7600.51 228.177 7592.28 234.782 7582.43 239.596C7572.69 244.298 7562.33 247.601 7551.36 249.504C7540.5 251.407 7530.04 252.359 7519.96 252.359C7504.4 252.247 7491.24 249 7480.5 242.619C7469.75 236.125 7461.24 227.505 7454.97 216.758C7448.7 206.01 7444.56 194.087 7442.54 180.989C7440.64 167.779 7440.7 154.288 7442.71 140.518L7447.41 110.963C7449.77 96.6328 7453.8 82.8626 7459.51 69.6522C7465.33 56.4419 7472.83 44.6869 7482.01 34.3872C7491.19 23.9757 7502.05 15.8031 7514.59 9.86966C7527.13 3.93619 7541.29 1.02542 7557.07 1.13738C7571.96 1.24933 7584.95 4.21607 7596.03 10.0376C7607.12 15.8591 7615.74 24.1436 7621.89 34.891C7628.16 45.6385 7631.52 58.457 7631.97 73.3467H7611.98C7611.54 62.0395 7609.07 52.3556 7604.6 44.295C7600.23 36.2345 7593.96 30.0211 7585.79 25.655C7577.73 21.2888 7567.93 19.0498 7556.4 18.9378C7543.41 18.7139 7531.83 21.1769 7521.64 26.3267C7511.56 31.4765 7502.89 38.4735 7495.61 47.3177C7488.33 56.162 7482.4 66.0698 7477.81 77.0411C7473.22 88.0124 7469.92 99.2077 7467.9 110.627L7463.03 140.686C7461.35 151.322 7461.02 162.125 7462.02 173.096C7463.03 184.068 7465.66 194.199 7469.92 203.491C7474.28 212.671 7480.55 220.116 7488.73 225.826C7497.01 231.535 7507.59 234.446 7520.46 234.558C7528.19 234.67 7536.08 234.11 7544.14 232.879C7552.2 231.535 7559.87 229.352 7567.15 226.33C7574.54 223.195 7581.2 218.885 7587.13 213.399L7598.38 150.426H7534.74L7537.59 132.793H7621.56ZM7725.5 4.49595L7683.19 249H7662.87L7705.19 4.49595H7725.5ZM7864.38 4.49595L7822.23 249H7802.25L7844.57 4.49595H7864.38ZM7945.66 4.49595L7942.8 22.2964H7760.27L7763.29 4.49595H7945.66ZM8045.91 20.1133L7924.67 249H7902.84L8034.66 4.66388H8049.94L8045.91 20.1133ZM8081.18 249L8038.36 18.2661L8039.7 4.49595H8053.97L8101.5 249H8081.18ZM8081.18 162.685L8078.15 180.485H7952.04L7954.9 162.685H8081.18ZM8277.15 231.367L8274.13 249H8151.04L8153.89 231.367H8277.15ZM8199.4 4.49595L8157.08 249H8136.76L8179.08 4.49595H8199.4Z" fill="#FFF429"/>
<mask id="mask2_692_155" style="mask-type:alpha" maskUnits="userSpaceOnUse" x="8245" y="150" width="1216" height="115">
<rect x="8245.21" y="150.426" width="1215" height="114.197" fill="#D9D9D9"/>
</mask>
<g mask="url(#mask2_692_155)">
<path d="M8363.47 4.49577L8427.79 4.66369C8442.23 5.1115 8454.1 8.4141 8463.39 14.5715C8472.79 20.6169 8479.51 28.9574 8483.54 39.5928C8487.68 50.1164 8489.14 62.4311 8487.91 76.5371C8486.9 88.0682 8483.99 98.4238 8479.18 107.604C8474.47 116.784 8468.09 124.621 8460.03 131.114C8452.08 137.607 8442.74 142.757 8431.99 146.563L8423.26 149.922H8362.13L8366.33 123.557L8407.3 123.893C8416.71 123.781 8424.99 121.71 8432.16 117.68C8439.32 113.537 8445.09 107.884 8449.45 100.719C8453.93 93.5539 8456.67 85.4374 8457.68 76.3692C8458.69 68.4206 8458.46 61.0877 8457.01 54.3706C8455.55 47.6534 8452.42 42.2237 8447.61 38.0815C8442.9 33.8273 8436.07 31.5323 8427.12 31.1964L8389.17 31.0285L8351.21 249H8321.15L8363.47 4.49577ZM8435.68 249L8407.81 138.167L8437.53 137.999L8468.09 246.817L8467.92 249H8435.68ZM8630.31 222.635L8625.61 249H8522.5L8527.2 222.635H8630.31ZM8570.53 4.49577L8528.04 249H8497.98L8540.3 4.49577H8570.53ZM8636.02 109.619L8631.49 135.984H8542.15L8546.85 109.619H8636.02ZM8666.58 4.49577L8661.88 31.0285H8560.29L8564.99 4.49577H8666.58ZM8779.26 27.8378L8676.66 249H8644.75L8763.65 4.49577H8783.63L8779.26 27.8378ZM8793.71 249L8767.34 24.3113L8770.53 4.49577H8789.51L8823.43 249H8793.71ZM8809.16 158.486L8804.45 185.019H8689.93L8694.63 158.486H8809.16ZM8984.14 222.635L8979.43 249H8880.86L8885.56 222.635H8984.14ZM8928.89 4.49577L8886.4 249H8856.34L8898.66 4.49577H8928.89ZM9089.09 4.49577L9046.61 249H9016.38L9058.87 4.49577H9089.09ZM9212.69 4.49577L9170.2 249H9140.31L9182.8 4.49577H9212.69ZM9274.99 4.49577L9270.29 31.0285H9115.79L9120.49 4.49577H9274.99ZM9325.37 4.49577L9352.24 126.916L9422.09 4.49577H9457.7L9362.48 159.494L9347.03 249H9316.8L9333.09 155.799L9292.62 4.49577H9325.37Z" fill="#FFF429"/>
</g>
<mask id="mask3_692_155" style="mask-type:alpha" maskUnits="userSpaceOnUse" x="8215" y="-12" width="1216" height="163">
<rect x="8215.99" y="-11.5737" width="1215" height="162" fill="#D9D9D9"/>
</mask>
<g mask="url(#mask3_692_155)">
<path d="M8334.26 4.49595L8398.58 4.66388C8413.02 5.11169 8424.89 8.41428 8434.18 14.5717C8443.58 20.6171 8450.3 28.9575 8454.33 39.593C8458.47 50.1166 8459.93 62.4313 8458.69 76.5373C8457.69 88.0684 8454.78 98.424 8449.96 107.604C8445.26 116.784 8438.88 124.621 8430.82 131.114C8422.87 137.607 8413.52 142.757 8402.77 146.564L8394.04 149.922H8332.92L8337.11 123.557L8378.09 123.893C8387.49 123.781 8395.78 121.71 8402.94 117.68C8410.11 113.538 8415.87 107.884 8420.24 100.719C8424.72 93.5541 8427.46 85.4375 8428.47 76.3694C8429.48 68.4208 8429.25 61.0879 8427.8 54.3707C8426.34 47.6536 8423.21 42.2239 8418.39 38.0817C8413.69 33.8275 8406.86 31.5325 8397.9 31.1966L8359.95 31.0287L8322 249H8291.94L8334.26 4.49595ZM8406.47 249L8378.59 138.167L8408.32 137.999L8438.88 246.817L8438.71 249H8406.47ZM8601.1 222.635L8596.4 249H8493.29L8497.99 222.635H8601.1ZM8541.32 4.49595L8498.83 249H8468.77L8511.09 4.49595H8541.32ZM8606.81 109.619L8602.27 135.984H8512.94L8517.64 109.619H8606.81ZM8637.37 4.49595L8632.67 31.0287H8531.07L8535.77 4.49595H8637.37ZM8750.05 27.838L8647.45 249H8615.54L8734.43 4.49595H8754.42L8750.05 27.838ZM8764.49 249L8738.13 24.3115L8741.32 4.49595H8760.29L8794.22 249H8764.49ZM8779.94 158.486L8775.24 185.019H8660.71L8665.42 158.486H8779.94ZM8954.92 222.635L8950.22 249H8851.65L8856.35 222.635H8954.92ZM8899.68 4.49595L8857.19 249H8827.13L8869.45 4.49595H8899.68ZM9059.88 4.49595L9017.39 249H8987.17L9029.65 4.49595H9059.88ZM9183.47 4.49595L9140.99 249H9111.1L9153.58 4.49595H9183.47ZM9245.78 4.49595L9241.07 31.0287H9086.58L9091.28 4.49595H9245.78ZM9296.15 4.49595L9323.02 126.916L9392.88 4.49595H9428.48L9333.27 159.494L9317.82 249H9287.59L9303.88 155.8L9263.41 4.49595H9296.15Z" fill="#FFF429"/>
</g>
<path d="M5967.69 249H5911.77L5920 203.659L5969.53 203.995C5983.53 203.995 5995.06 200.525 6004.13 193.584C6013.31 186.643 6020.42 177.63 6025.45 166.547C6030.6 155.464 6034.07 143.765 6035.87 131.45L6037.04 121.038C6038.05 113.65 6038.5 105.925 6038.38 97.8643C6038.27 89.6917 6037.1 82.079 6034.86 75.026C6032.62 67.973 6028.81 62.1514 6023.44 57.5614C6018.18 52.9713 6010.79 50.5084 6001.27 50.1725L5945.35 50.0046L5953.24 4.49595L6003.12 4.66388C6019.46 4.99974 6033.79 8.35831 6046.11 14.7396C6058.42 21.0089 6068.56 29.5733 6076.5 40.4327C6084.45 51.1801 6090.05 63.4949 6093.3 77.377C6096.54 91.2591 6097.27 105.869 6095.48 121.206L6094.3 131.786C6092.18 148.131 6087.59 163.468 6080.53 177.798C6073.48 192.016 6064.41 204.499 6053.33 215.246C6042.25 225.882 6029.43 234.222 6014.87 240.268C6000.43 246.201 5984.7 249.112 5967.69 249ZM5987.33 4.49595L5944.85 249H5887.42L5929.73 4.49595H5987.33ZM6206.82 4.49595L6164.5 249H6107.07L6149.55 4.49595H6206.82ZM6421.09 118.352L6405.31 218.941C6397.81 227.673 6388.4 234.502 6377.1 239.428C6365.79 244.242 6353.92 247.601 6341.5 249.504C6329.18 251.519 6317.59 252.415 6306.73 252.191C6289.72 251.967 6275.22 248.608 6263.24 242.115C6251.37 235.622 6241.91 226.833 6234.86 215.75C6227.81 204.667 6223.05 192.072 6220.59 177.966C6218.12 163.86 6217.84 149.082 6219.75 133.633L6221.59 120.199C6223.72 104.302 6227.86 89.1879 6234.02 74.858C6240.29 60.4162 6248.41 47.5976 6258.37 36.4024C6268.33 25.2071 6280.15 16.4189 6293.8 10.0376C6307.57 3.65631 6323.14 0.633591 6340.49 0.969449C6358.51 1.19335 6373.79 4.6079 6386.33 11.2131C6398.98 17.7063 6408.78 27.1103 6415.72 39.4251C6422.66 51.7399 6426.69 66.7975 6427.81 84.5979L6372.9 84.43C6372.34 77.0411 6370.94 70.5479 6368.7 64.9502C6366.57 59.2407 6363.16 54.7626 6358.46 51.516C6353.75 48.2693 6347.32 46.4781 6339.14 46.1422C6329.29 45.6944 6320.9 47.7656 6313.96 52.3556C6307.01 56.8337 6301.19 62.8232 6296.49 70.324C6291.9 77.8248 6288.26 85.9413 6285.58 94.6736C6283 103.406 6281.15 111.746 6280.03 119.695L6278.19 133.801C6277.29 141.302 6276.73 149.25 6276.51 157.647C6276.4 166.043 6277.35 173.936 6279.36 181.325C6281.38 188.714 6285.02 194.759 6290.28 199.461C6295.65 204.163 6303.32 206.626 6313.28 206.85C6317.65 206.962 6321.85 206.682 6325.88 206.01C6330.02 205.339 6334 204.275 6337.8 202.82C6341.72 201.252 6345.47 199.293 6349.05 196.942L6356.61 158.822H6316.81L6323.86 118.352H6421.09ZM6534.95 4.49595L6492.63 249H6435.2L6477.69 4.49595H6534.95ZM6684.74 4.49595L6642.42 249H6584.82L6627.31 4.49595H6684.74ZM6756.11 4.49595L6748.22 50.0046H6549.56L6557.62 4.49595H6756.11ZM6851.16 58.7369L6761.15 249H6697.5L6827.15 4.49595H6867.78L6851.16 58.7369ZM6866.61 249L6841.76 52.8594L6843.1 4.49595H6881.39L6926.56 249H6866.61ZM6879.71 157.815L6871.65 203.323H6749.56L6757.62 157.815H6879.71ZM7109.6 203.659L7101.71 249H6981.47L6989.36 203.659H7109.6ZM7044.61 4.49595L7002.13 249H6944.7L6987.01 4.49595H7044.61Z" fill="#FFF429"/>
<path d="M3634.1 249H3579.02L3582.21 231.367H3634.61C3652.63 231.256 3668.64 227.001 3682.63 218.605C3696.63 210.097 3708.05 198.789 3716.89 184.683C3725.85 170.577 3731.78 155.016 3734.69 137.999L3738.39 115.161C3740.18 103.518 3740.29 92.2666 3738.72 81.4073C3737.27 70.4359 3733.96 60.5841 3728.81 51.8518C3723.78 43.0076 3716.78 35.9546 3707.82 30.6928C3698.98 25.431 3688.01 22.6322 3674.91 22.2964H3617.31L3620.33 4.49595H3675.25C3690.81 4.83181 3704.3 8.07843 3715.72 14.2358C3727.14 20.2812 3736.32 28.5097 3743.26 38.9213C3750.31 49.2209 3755.07 60.9759 3757.53 74.1863C3760.11 87.3967 3760.39 101.223 3758.37 115.665L3754.84 137.999C3752.38 153.449 3747.73 167.89 3740.91 181.325C3734.19 194.759 3725.57 206.514 3715.04 216.59C3704.63 226.665 3692.6 234.558 3678.94 240.268C3665.28 245.977 3650.34 248.888 3634.1 249ZM3630.41 4.49595L3588.09 249H3567.77L3610.09 4.49595H3630.41ZM3853.42 4.49595L3811.1 249H3790.78L3833.1 4.49595H3853.42ZM4066.86 132.793L4052.41 219.78C4045.81 228.177 4037.58 234.782 4027.73 239.596C4017.99 244.298 4007.63 247.601 3996.66 249.504C3985.8 251.407 3975.33 252.359 3965.26 252.359C3949.7 252.247 3936.54 249 3925.8 242.619C3915.05 236.125 3906.54 227.505 3900.27 216.758C3894 206.01 3889.86 194.087 3887.84 180.989C3885.94 167.779 3886 154.288 3888.01 140.518L3892.71 110.963C3895.06 96.6328 3899.09 82.8626 3904.8 69.6522C3910.63 56.4419 3918.13 44.6869 3927.31 34.3872C3936.49 23.9757 3947.35 15.8031 3959.88 9.86966C3972.42 3.93619 3986.59 1.02542 4002.37 1.13738C4017.26 1.24933 4030.25 4.21607 4041.33 10.0376C4052.41 15.8591 4061.03 24.1436 4067.19 34.891C4073.46 45.6385 4076.82 58.457 4077.27 73.3467H4057.28C4056.84 62.0395 4054.37 52.3556 4049.89 44.295C4045.53 36.2345 4039.26 30.0211 4031.09 25.655C4023.03 21.2888 4013.23 19.0498 4001.7 18.9378C3988.71 18.7139 3977.13 21.1769 3966.94 26.3267C3956.86 31.4765 3948.19 38.4735 3940.91 47.3177C3933.63 56.162 3927.7 66.0698 3923.11 77.0411C3918.52 88.0124 3915.22 99.2077 3913.2 110.627L3908.33 140.686C3906.65 151.322 3906.32 162.125 3907.32 173.096C3908.33 184.068 3910.96 194.199 3915.22 203.491C3919.58 212.671 3925.85 220.116 3934.02 225.826C3942.31 231.535 3952.89 234.446 3965.76 234.558C3973.49 234.67 3981.38 234.11 3989.44 232.879C3997.5 231.535 4005.17 229.352 4012.45 226.33C4019.84 223.195 4026.5 218.885 4032.43 213.399L4043.68 150.426H3980.04L3982.89 132.793H4066.86ZM4170.8 4.49595L4128.49 249H4108.17L4150.48 4.49595H4170.8ZM4309.68 4.49595L4267.53 249H4247.55L4289.86 4.49595H4309.68ZM4390.96 4.49595L4388.1 22.2964H4205.56L4208.59 4.49595H4390.96ZM4491.21 20.1133L4369.97 249H4348.14L4479.96 4.66388H4495.24L4491.21 20.1133ZM4526.48 249L4483.65 18.2661L4485 4.49595H4499.27L4546.8 249H4526.48ZM4526.48 162.685L4523.45 180.485H4397.34L4400.19 162.685H4526.48ZM4722.45 231.367L4719.43 249H4596.33L4599.19 231.367H4722.45ZM4644.7 4.49595L4602.38 249H4582.06L4624.38 4.49595H4644.7Z" fill="#FFF429"/>
<mask id="mask4_692_155" style="mask-type:alpha" maskUnits="userSpaceOnUse" x="4690" y="150" width="1216" height="115">
<rect x="4690.5" y="150.425" width="1215" height="114.197" fill="#D9D9D9"/>
</mask>
<g mask="url(#mask4_692_155)">
<path d="M4808.77 4.49528L4873.09 4.66321C4887.53 5.11102 4899.4 8.41361 4908.69 14.571C4918.09 20.6164 4924.81 28.9569 4928.84 39.5924C4932.98 50.1159 4934.44 62.4306 4933.21 76.5366C4932.2 88.0677 4929.29 98.4233 4924.47 107.603C4919.77 116.784 4913.39 124.62 4905.33 131.113C4897.38 137.607 4888.03 142.756 4877.29 146.563L4868.55 149.921H4807.43L4811.63 123.557L4852.6 123.893C4862 123.781 4870.29 121.709 4877.45 117.679C4884.62 113.537 4890.38 107.883 4894.75 100.718C4899.23 93.5534 4901.97 85.4369 4902.98 76.3687C4903.99 68.4201 4903.76 61.0872 4902.31 54.3701C4900.85 47.6529 4897.72 42.2232 4892.9 38.081C4888.2 33.8268 4881.37 31.5318 4872.42 31.1959L4834.46 31.028L4796.51 248.999H4766.45L4808.77 4.49528ZM4880.98 248.999L4853.1 138.166L4882.83 137.999L4913.39 246.816L4913.22 248.999H4880.98ZM5075.61 222.635L5070.91 248.999H4967.8L4972.5 222.635H5075.61ZM5015.83 4.49528L4973.34 248.999H4943.28L4985.6 4.49528H5015.83ZM5081.32 109.619L5076.79 135.983H4987.45L4992.15 109.619H5081.32ZM5111.88 4.49528L5107.18 31.028H5005.58L5010.29 4.49528H5111.88ZM5224.56 27.8374L5121.96 248.999H5090.05L5208.94 4.49528H5228.93L5224.56 27.8374ZM5239 248.999L5212.64 24.3109L5215.83 4.49528H5234.81L5268.73 248.999H5239ZM5254.45 158.486L5249.75 185.019H5135.22L5139.93 158.486H5254.45ZM5429.44 222.635L5424.73 248.999H5326.16L5330.86 222.635H5429.44ZM5374.19 4.49528L5331.7 248.999H5301.64L5343.96 4.49528H5374.19ZM5534.39 4.49528L5491.9 248.999H5461.68L5504.16 4.49528H5534.39ZM5657.99 4.49528L5615.5 248.999H5585.61L5628.09 4.49528H5657.99ZM5720.29 4.49528L5715.59 31.028H5561.09L5565.79 4.49528H5720.29ZM5770.67 4.49528L5797.53 126.915L5867.39 4.49528H5902.99L5807.78 159.493L5792.33 248.999H5762.1L5778.39 155.799L5737.92 4.49528H5770.67Z" fill="#FFF429"/>
</g>
<mask id="mask5_692_155" style="mask-type:alpha" maskUnits="userSpaceOnUse" x="4661" y="-12" width="1216" height="163">
<rect x="4661.29" y="-11.5737" width="1215" height="162" fill="#D9D9D9"/>
</mask>
<g mask="url(#mask5_692_155)">
<path d="M4779.56 4.49595L4843.88 4.66388C4858.32 5.11169 4870.19 8.41428 4879.48 14.5717C4888.88 20.6171 4895.6 28.9575 4899.63 39.593C4903.77 50.1166 4905.23 62.4313 4904 76.5373C4902.99 88.0684 4900.08 98.424 4895.26 107.604C4890.56 116.784 4884.18 124.621 4876.12 131.114C4868.17 137.607 4858.82 142.757 4848.08 146.564L4839.34 149.922H4778.22L4782.41 123.557L4823.39 123.893C4832.79 123.781 4841.08 121.71 4848.24 117.68C4855.41 113.538 4861.17 107.884 4865.54 100.719C4870.02 93.5541 4872.76 85.4375 4873.77 76.3694C4874.78 68.4208 4874.55 61.0879 4873.1 54.3707C4871.64 47.6536 4868.51 42.2239 4863.69 38.0817C4858.99 33.8275 4852.16 31.5325 4843.21 31.1966L4805.25 31.0287L4767.3 249H4737.24L4779.56 4.49595ZM4851.77 249L4823.89 138.167L4853.62 137.999L4884.18 246.817L4884.01 249H4851.77ZM5046.4 222.635L5041.7 249H4938.59L4943.29 222.635H5046.4ZM4986.62 4.49595L4944.13 249H4914.07L4956.39 4.49595H4986.62ZM5052.11 109.619L5047.57 135.984H4958.24L4962.94 109.619H5052.11ZM5082.67 4.49595L5077.97 31.0287H4976.37L4981.07 4.49595H5082.67ZM5195.35 27.838L5092.75 249H5060.84L5179.73 4.49595H5199.72L5195.35 27.838ZM5209.79 249L5183.43 24.3115L5186.62 4.49595H5205.6L5239.52 249H5209.79ZM5225.24 158.486L5220.54 185.019H5106.01L5110.72 158.486H5225.24ZM5400.22 222.635L5395.52 249H5296.95L5301.65 222.635H5400.22ZM5344.98 4.49595L5302.49 249H5272.43L5314.75 4.49595H5344.98ZM5505.18 4.49595L5462.69 249H5432.47L5474.95 4.49595H5505.18ZM5628.78 4.49595L5586.29 249H5556.4L5598.88 4.49595H5628.78ZM5691.08 4.49595L5686.37 31.0287H5531.88L5536.58 4.49595H5691.08ZM5741.46 4.49595L5768.32 126.916L5838.18 4.49595H5873.78L5778.57 159.494L5763.12 249H5732.89L5749.18 155.8L5708.71 4.49595H5741.46Z" fill="#FFF429"/>
</g>
<path d="M10743.5 249H10688.4L10691.6 231.367H10744C10762 231.256 10778 227.001 10792 218.605C10806 210.097 10817.5 198.789 10826.3 184.683C10835.3 170.577 10841.2 155.016 10844.1 137.999L10847.8 115.161C10849.6 103.518 10849.7 92.2666 10848.1 81.4073C10846.7 70.4359 10843.4 60.5841 10838.2 51.8518C10833.2 43.0076 10826.2 35.9546 10817.2 30.6928C10808.4 25.431 10797.4 22.6322 10784.3 22.2964H10726.7L10729.7 4.49595H10784.6C10800.2 4.83181 10813.7 8.07843 10825.1 14.2358C10836.5 20.2812 10845.7 28.5097 10852.7 38.9213C10859.7 49.2209 10864.5 60.9759 10866.9 74.1863C10869.5 87.3967 10869.8 101.223 10867.8 115.665L10864.2 137.999C10861.8 153.449 10857.1 167.89 10850.3 181.325C10843.6 194.759 10835 206.514 10824.4 216.59C10814 226.665 10802 234.558 10788.3 240.268C10774.7 245.977 10759.7 248.888 10743.5 249ZM10739.8 4.49595L10697.5 249H10677.2L10719.5 4.49595H10739.8ZM10962.8 4.49595L10920.5 249H10900.2L10942.5 4.49595H10962.8ZM11176.3 132.793L11161.8 219.78C11155.2 228.177 11147 234.782 11137.1 239.596C11127.4 244.298 11117 247.601 11106.1 249.504C11095.2 251.407 11084.7 252.359 11074.7 252.359C11059.1 252.247 11045.9 249 11035.2 242.619C11024.5 236.125 11015.9 227.505 11009.7 216.758C11003.4 206.01 10999.3 194.087 10997.2 180.989C10995.3 167.779 10995.4 154.288 10997.4 140.518L11002.1 110.963C11004.5 96.6328 11008.5 82.8626 11014.2 69.6522C11020 56.4419 11027.5 44.6869 11036.7 34.3872C11045.9 23.9757 11056.7 15.8031 11069.3 9.86966C11081.8 3.93619 11096 1.02542 11111.8 1.13738C11126.7 1.24933 11139.7 4.21607 11150.7 10.0376C11161.8 15.8591 11170.4 24.1436 11176.6 34.891C11182.9 45.6385 11186.2 58.457 11186.7 73.3467H11166.7C11166.2 62.0395 11163.8 52.3556 11159.3 44.295C11154.9 36.2345 11148.7 30.0211 11140.5 25.655C11132.4 21.2888 11122.6 19.0498 11111.1 18.9378C11098.1 18.7139 11086.5 21.1769 11076.3 26.3267C11066.3 31.4765 11057.6 38.4735 11050.3 47.3177C11043 56.162 11037.1 66.0698 11032.5 77.0411C11027.9 88.0124 11024.6 99.2077 11022.6 110.627L11017.7 140.686C11016.1 151.322 11015.7 162.125 11016.7 173.096C11017.7 184.068 11020.4 194.199 11024.6 203.491C11029 212.671 11035.3 220.116 11043.4 225.826C11051.7 231.535 11062.3 234.446 11075.2 234.558C11082.9 234.67 11090.8 234.11 11098.8 232.879C11106.9 231.535 11114.6 229.352 11121.8 226.33C11129.2 223.195 11135.9 218.885 11141.8 213.399L11153.1 150.426H11089.4L11092.3 132.793H11176.3ZM11280.2 4.49595L11237.9 249H11217.6L11259.9 4.49595H11280.2ZM11419.1 4.49595L11376.9 249H11356.9L11399.3 4.49595H11419.1ZM11500.4 4.49595L11497.5 22.2964H11315L11318 4.49595H11500.4ZM11600.6 20.1133L11479.4 249H11457.5L11589.4 4.66388H11604.6L11600.6 20.1133ZM11635.9 249L11593.1 18.2661L11594.4 4.49595H11608.7L11656.2 249H11635.9ZM11635.9 162.685L11632.9 180.485H11506.7L11509.6 162.685H11635.9ZM11831.9 231.367L11828.8 249H11705.7L11708.6 231.367H11831.9ZM11754.1 4.49595L11711.8 249H11691.5L11733.8 4.49595H11754.1Z" fill="#FFF429"/>
</svg>
