<svg width="1605" height="322" viewBox="0 0 1605 322" fill="none" xmlns="http://www.w3.org/2000/svg">
<g clip-path="url(#clip0_756_434)">
<mask id="mask0_756_434" style="mask-type:alpha" maskUnits="userSpaceOnUse" x="50" y="-5" width="1606" height="332">
<path d="M156.228 322H82.819L93.6209 262.48L158.653 262.921C177.023 262.921 192.161 258.365 204.065 249.253C216.116 240.141 225.448 228.311 232.061 213.761C238.822 199.212 243.378 183.854 245.729 167.688L247.272 154.02C248.595 144.32 249.183 134.18 249.036 123.598C248.889 112.87 247.346 102.876 244.406 93.6176C241.467 84.3588 236.47 76.7167 229.416 70.6911C222.509 64.6656 212.809 61.4324 200.317 60.9915L126.908 60.771L137.269 1.02995L202.742 1.2504C224.199 1.69129 243.01 6.10023 259.176 14.4772C275.343 22.7072 288.643 33.95 299.077 48.2056C309.512 62.3142 316.86 78.4803 321.122 96.7039C325.384 114.927 326.339 134.106 323.988 154.24L322.445 168.129C319.652 189.585 313.627 209.72 304.368 228.531C295.109 247.196 283.205 263.582 268.656 277.691C254.106 291.652 237.279 302.601 218.173 310.537C199.215 318.326 178.566 322.147 156.228 322ZM182.02 1.02995L126.247 322H50.8542L106.407 1.02995H182.02ZM470.144 1.02995L414.591 322H339.199L394.972 1.02995H470.144ZM751.434 150.493L730.712 282.541C720.865 294.004 708.52 302.969 693.677 309.435C678.834 315.754 663.255 320.163 646.942 322.662C630.776 325.307 615.565 326.483 601.31 326.189C578.971 325.895 559.939 321.486 544.214 312.962C528.636 304.438 516.217 292.902 506.959 278.352C497.7 263.803 491.454 247.269 488.221 228.751C484.987 210.234 484.62 190.835 487.118 170.554L489.543 152.918C492.336 132.049 497.773 112.209 505.856 93.3972C514.086 74.4387 524.741 57.6113 537.821 42.9148C550.901 28.2184 566.406 16.6817 584.335 8.3047C602.412 -0.0722795 622.84 -4.04032 645.62 -3.59943C669.281 -3.3055 689.342 1.17692 705.802 9.84783C722.409 18.3718 735.268 30.7168 744.38 46.8829C753.492 63.049 758.782 82.8157 760.252 106.183L688.166 105.963C687.431 96.263 685.594 87.739 682.655 80.3908C679.862 72.8956 675.38 67.017 669.207 62.7551C663.035 58.4931 654.584 56.1417 643.856 55.7008C630.923 55.1129 619.901 57.8317 610.789 63.8573C601.677 69.7359 594.035 77.5985 587.863 87.4451C581.837 97.2917 577.061 107.947 573.534 119.41C570.153 130.873 567.728 141.822 566.259 152.256L563.834 170.774C562.658 180.621 561.923 191.055 561.629 202.077C561.482 213.1 562.732 223.461 565.377 233.16C568.022 242.86 572.799 250.796 579.706 256.969C586.76 263.141 596.827 266.374 609.907 266.668C615.639 266.815 621.15 266.448 626.441 265.566C631.878 264.684 637.096 263.288 642.092 261.378C647.236 259.32 652.16 256.748 656.862 253.662L666.783 203.621H614.537L623.795 150.493H751.434ZM900.897 1.02995L845.344 322H769.952L825.725 1.02995H900.897ZM1097.54 1.02995L1041.98 322H966.37L1022.14 1.02995H1097.54ZM1191.23 1.02995L1180.86 60.771H920.076L930.657 1.02995H1191.23ZM1316 72.2343L1197.84 322H1114.29L1284.47 1.02995H1337.82L1316 72.2343ZM1336.28 322L1303.65 64.5186L1305.42 1.02995H1355.68L1414.98 322H1336.28ZM1353.47 202.298L1342.89 262.039H1182.63L1193.21 202.298H1353.47ZM1655.27 262.48L1644.9 322H1487.07L1497.43 262.48H1655.27ZM1569.95 1.02995L1514.18 322H1438.79L1494.34 1.02995H1569.95Z" fill="white"/>
</mask>
<g mask="url(#mask0_756_434)">
<rect x="-22.8398" y="-51.8516" width="1731.54" height="219.098" fill="#FFF429"/>
</g>
<mask id="mask1_756_434" style="mask-type:alpha" maskUnits="userSpaceOnUse" x="0" y="-5" width="1605" height="332">
<path d="M105.769 322H32.3605L43.1624 262.48L108.194 262.921C126.565 262.921 141.702 258.365 153.606 249.253C165.657 240.141 174.99 228.31 181.603 213.761C188.363 199.211 192.919 183.854 195.271 167.687L196.814 154.02C198.136 144.32 198.724 134.18 198.577 123.598C198.43 112.87 196.887 102.876 193.948 93.6174C191.009 84.3586 186.012 76.7164 178.958 70.6909C172.05 64.6654 162.351 61.4321 149.859 60.9912L76.4499 60.7708L86.8109 1.02971L152.284 1.25016C173.74 1.69105 192.552 6.09999 208.718 14.477C224.884 22.707 238.184 33.9498 248.619 48.2053C259.053 62.3139 266.402 78.48 270.663 96.7036C274.925 114.927 275.881 134.106 273.529 154.24L271.986 168.128C269.194 189.585 263.168 209.719 253.91 228.531C244.651 247.195 232.747 263.582 218.197 277.69C203.648 291.652 186.82 302.601 167.715 310.537C148.756 318.326 128.108 322.147 105.769 322ZM131.562 1.02971L75.7885 322H0.395715L55.9483 1.02971H131.562ZM419.686 1.02971L364.133 322H288.74L344.513 1.02971H419.686ZM700.976 150.493L680.254 282.54C670.407 294.004 658.062 302.968 643.219 309.435C628.375 315.754 612.797 320.163 596.484 322.662C580.318 325.307 565.107 326.483 550.851 326.189C528.513 325.895 509.481 321.486 493.756 312.962C478.177 304.438 465.759 292.901 456.5 278.352C447.241 263.802 440.995 247.269 437.762 228.751C434.529 210.234 434.162 190.834 436.66 170.553L439.085 152.918C441.877 132.049 447.315 112.208 455.398 93.3969C463.628 74.4385 474.283 57.6111 487.363 42.9146C500.443 28.2181 515.947 16.6814 533.877 8.30445C551.954 -0.0725237 572.382 -4.04057 595.161 -3.59967C618.822 -3.30574 638.883 1.17667 655.343 9.84758C671.95 18.3715 684.81 30.7165 693.921 46.8826C703.033 63.0487 708.324 82.8155 709.793 106.183L637.707 105.962C636.973 96.2627 635.135 87.7388 632.196 80.3906C629.404 72.8954 624.921 67.0168 618.749 62.7548C612.576 58.4928 604.126 56.1414 593.398 55.7005C580.465 55.1127 569.442 57.8315 560.331 63.857C551.219 69.7356 543.577 77.5982 537.404 87.4449C531.379 97.2915 526.602 107.946 523.075 119.41C519.695 130.873 517.27 141.822 515.8 152.256L513.375 170.774C512.2 180.62 511.465 191.055 511.171 202.077C511.024 213.1 512.273 223.461 514.919 233.16C517.564 242.86 522.34 250.796 529.248 256.968C536.302 263.141 546.369 266.374 559.449 266.668C565.18 266.815 570.692 266.448 575.982 265.566C581.42 264.684 586.637 263.288 591.634 261.377C596.778 259.32 601.701 256.748 606.404 253.662L616.324 203.62H564.078L573.337 150.493H700.976ZM850.439 1.02971L794.886 322H719.493L775.266 1.02971H850.439ZM1047.08 1.02971L991.524 322H915.911L971.684 1.02971H1047.08ZM1140.77 1.02971L1130.41 60.7708H869.617L880.199 1.02971H1140.77ZM1265.54 72.234L1147.38 322H1063.83L1234.02 1.02971H1287.36L1265.54 72.234ZM1285.82 322L1253.19 64.5184L1254.96 1.02971H1305.22L1364.52 322H1285.82ZM1303.02 202.298L1292.43 262.039H1132.17L1142.75 202.298H1303.02ZM1604.81 262.48L1594.45 322H1436.61L1446.97 262.48H1604.81ZM1519.49 1.02971L1463.72 322H1388.33L1443.88 1.02971H1519.49Z" fill="white"/>
</mask>
<g mask="url(#mask1_756_434)">
<rect x="-73.2988" y="167.247" width="1731.54" height="219.098" fill="#FFF429"/>
</g>
</g>
<defs>
<clipPath id="clip0_756_434">
<rect width="1605" height="322" fill="white"/>
</clipPath>
</defs>
</svg>
