<svg width="11840" height="331" viewBox="0 0 11840 331" fill="none" xmlns="http://www.w3.org/2000/svg">
<mask id="path-1-outside-1_690_153" maskUnits="userSpaceOnUse" x="1606.69" y="5.5899" width="1417" height="320" fill="black">
<rect fill="white" x="1606.69" y="5.5899" width="1417" height="320"/>
<path d="M1674.56 21.0713L1756.69 21.2701C1773.92 21.8004 1788.24 25.6447 1799.64 32.8031C1811.17 39.829 1819.59 49.6387 1824.89 62.2322C1830.32 74.8258 1832.31 89.6729 1830.85 106.774C1829.66 120.825 1826.41 133.286 1821.11 144.156C1815.81 155.027 1808.58 164.372 1799.44 172.194C1790.29 180.015 1779.35 186.577 1766.63 191.879L1751.32 199.435H1677.15L1683.91 158.871L1732.23 159.269C1742.17 159.136 1750.72 156.883 1757.88 152.508C1765.17 148.133 1771 142.168 1775.38 134.612C1779.75 127.056 1782.47 118.572 1783.53 109.16C1784.59 101.471 1784.52 94.1137 1783.33 87.0879C1782.27 79.9294 1779.49 74.0304 1774.98 69.3906C1770.6 64.7509 1763.91 62.2322 1754.9 61.8345L1714.73 61.6357L1671.38 310.59H1624.25L1674.56 21.0713ZM1756.29 310.59L1725.07 180.545L1772.2 180.346L1806.6 307.806V310.59H1756.29ZM2002.26 270.224L1995.1 310.59H1873.01L1879.97 270.224H2002.26ZM1935.84 21.0713L1885.54 310.59H1838.41L1888.72 21.0713H1935.84ZM2008.22 141.571L2001.26 181.341H1895.48L1902.44 141.571H2008.22ZM2044.22 21.0713L2037.26 61.6357H1915.96L1923.12 21.0713H2044.22ZM2173.66 63.2264L2063.5 310.59H2013L2152.19 21.0713H2184L2173.66 63.2264ZM2185.59 310.59L2160.34 58.653L2163.92 21.0713H2194.34L2233.32 310.59H2185.59ZM2205.08 203.015L2197.72 243.579H2066.68L2073.84 203.015H2205.08ZM2424.61 270.224L2417.45 310.59H2300.53L2307.49 270.224H2424.61ZM2363.36 21.0713L2313.05 310.59H2265.93L2316.24 21.0713H2363.36ZM2553.86 21.0713L2503.35 310.59H2456.42L2506.73 21.0713H2553.86ZM2703.98 21.0713L2653.68 310.59H2606.95L2657.26 21.0713H2703.98ZM2775.77 21.0713L2768.61 61.6357H2579.11L2586.27 21.0713H2775.77ZM2844.57 21.0713L2869.82 157.877L2943 21.0713H2997.08L2886.13 206.594L2868.23 310.59H2820.71L2839.8 201.623L2794.46 21.0713H2844.57Z"/>
</mask>
<path d="M1674.56 21.0713L1674.6 6.46476L1662.28 6.43493L1660.17 18.5706L1674.56 21.0713ZM1756.69 21.2701L1757.13 6.67047L1756.93 6.66411L1756.72 6.6636L1756.69 21.2701ZM1799.64 32.8031L1791.87 45.1733L1791.95 45.2258L1792.04 45.2772L1799.64 32.8031ZM1824.89 62.2322L1811.43 67.9004L1811.45 67.9603L1811.48 68.0201L1824.89 62.2322ZM1830.85 106.774L1816.3 105.533L1816.3 105.538L1830.85 106.774ZM1821.11 144.156L1807.98 137.753L1821.11 144.156ZM1766.63 191.879L1761.01 178.396L1760.58 178.575L1760.16 178.781L1766.63 191.879ZM1751.32 199.435V214.042H1754.72L1757.78 212.534L1751.32 199.435ZM1677.15 199.435L1662.74 197.034L1659.9 214.042H1677.15V199.435ZM1683.91 158.871L1684.03 144.265L1671.55 144.162L1669.5 156.47L1683.91 158.871ZM1732.23 159.269L1732.11 173.875L1732.26 173.876L1732.42 173.874L1732.23 159.269ZM1757.88 152.508L1750.36 139.983L1750.31 140.013L1750.26 140.044L1757.88 152.508ZM1783.53 109.16L1769.06 107.164L1769.03 107.344L1769.01 107.524L1783.53 109.16ZM1783.33 87.0879L1768.88 89.2284L1768.9 89.3811L1768.93 89.5332L1783.33 87.0879ZM1774.98 69.3906L1764.35 79.4109L1764.43 79.4902L1764.5 79.5683L1774.98 69.3906ZM1754.9 61.8345L1755.54 47.2422L1755.25 47.2296L1754.97 47.2282L1754.9 61.8345ZM1714.73 61.6357L1714.8 47.0293L1702.46 46.9682L1700.34 59.1301L1714.73 61.6357ZM1671.38 310.59V325.196H1683.66L1685.77 313.096L1671.38 310.59ZM1624.25 310.59L1609.86 308.089L1606.89 325.196H1624.25V310.59ZM1756.29 310.59L1742.08 313.999L1744.77 325.196H1756.29V310.59ZM1725.07 180.545L1725.01 165.939L1706.56 166.017L1710.87 183.955L1725.07 180.545ZM1772.2 180.346L1786.3 176.54L1783.37 165.692L1772.13 165.74L1772.2 180.346ZM1806.6 307.806H1821.2V305.87L1820.7 304L1806.6 307.806ZM1806.6 310.59V325.196H1821.2V310.59H1806.6ZM1674.53 35.6778L1756.65 35.8766L1756.72 6.6636L1674.6 6.46476L1674.53 35.6778ZM1756.24 35.8697C1771.59 36.3422 1783.2 39.7312 1791.87 45.1733L1807.4 20.433C1793.27 11.5582 1776.25 7.25855 1757.13 6.67047L1756.24 35.8697ZM1792.04 45.2772C1800.92 50.6865 1807.3 58.0991 1811.43 67.9004L1838.35 56.564C1831.87 41.1783 1821.42 28.9715 1807.23 20.329L1792.04 45.2772ZM1811.48 68.0201C1815.75 77.9126 1817.6 90.2408 1816.3 105.533L1845.41 108.015C1847.02 89.1049 1844.9 71.7389 1838.3 56.4444L1811.48 68.0201ZM1816.3 105.538C1815.23 118.087 1812.38 128.747 1807.98 137.753L1834.24 150.56C1840.45 137.825 1844.09 123.564 1845.41 108.009L1816.3 105.538ZM1807.98 137.753C1803.55 146.834 1797.56 154.578 1789.94 161.092L1808.93 183.295C1819.6 174.167 1828.06 163.22 1834.24 150.56L1807.98 137.753ZM1789.94 161.092C1782.11 167.79 1772.53 173.597 1761.01 178.396L1772.25 205.362C1786.18 199.557 1798.47 192.24 1808.93 183.295L1789.94 161.092ZM1760.16 178.781L1744.85 186.337L1757.78 212.534L1773.09 204.978L1760.16 178.781ZM1751.32 184.829H1677.15V214.042H1751.32V184.829ZM1691.55 201.837L1698.32 161.272L1669.5 156.47L1662.74 197.034L1691.55 201.837ZM1683.79 173.477L1732.11 173.875L1732.35 144.663L1684.03 144.265L1683.79 173.477ZM1732.42 173.874C1744.5 173.713 1755.72 170.947 1765.49 164.971L1750.26 140.044C1745.72 142.818 1739.84 144.559 1732.03 144.663L1732.42 173.874ZM1765.39 165.033C1774.86 159.35 1782.44 151.568 1788.02 141.93L1762.74 127.293C1759.57 132.768 1755.47 136.917 1750.36 139.983L1765.39 165.033ZM1788.02 141.93C1793.49 132.486 1796.78 122.039 1798.04 110.795L1769.01 107.524C1768.16 115.105 1766.02 121.626 1762.74 127.293L1788.02 141.93ZM1798 111.155C1799.24 102.122 1799.19 93.2613 1797.73 84.6425L1768.93 89.5332C1769.85 94.9661 1769.93 100.82 1769.06 107.164L1798 111.155ZM1797.78 84.9473C1796.33 75.1357 1792.35 66.3069 1785.46 59.213L1764.5 79.5683C1766.62 81.7538 1768.21 84.7232 1768.88 89.2284L1797.78 84.9473ZM1785.61 59.3704C1777.71 50.9941 1766.76 47.7374 1755.54 47.2422L1754.25 76.4269C1761.06 76.727 1763.5 78.5078 1764.35 79.4109L1785.61 59.3704ZM1754.97 47.2282L1714.8 47.0293L1714.66 76.2421L1754.82 76.4409L1754.97 47.2282ZM1700.34 59.1301L1656.99 308.084L1685.77 313.096L1729.12 64.1413L1700.34 59.1301ZM1671.38 295.983H1624.25V325.196H1671.38V295.983ZM1638.65 313.091L1688.95 23.5719L1660.17 18.5706L1609.86 308.089L1638.65 313.091ZM1770.49 307.18L1739.27 177.136L1710.87 183.955L1742.08 313.999L1770.49 307.18ZM1725.13 195.152L1772.26 194.953L1772.13 165.74L1725.01 165.939L1725.13 195.152ZM1758.09 184.152L1792.49 311.612L1820.7 304L1786.3 176.54L1758.09 184.152ZM1791.99 307.806V310.59H1821.2V307.806H1791.99ZM1806.6 295.983H1756.29V325.196H1806.6V295.983ZM2002.26 270.224L2016.64 272.775L2019.68 255.618H2002.26V270.224ZM1995.1 310.59V325.196H2007.34L2009.48 313.14L1995.1 310.59ZM1873.01 310.59L1858.62 308.108L1855.67 325.196H1873.01V310.59ZM1879.97 270.224V255.618H1867.67L1865.57 267.743L1879.97 270.224ZM1935.84 21.0713L1950.24 23.5719L1953.21 6.46472H1935.84V21.0713ZM1885.54 310.59V325.196H1897.82L1899.93 313.091L1885.54 310.59ZM1838.41 310.59L1824.02 308.089L1821.05 325.196H1838.41V310.59ZM1888.72 21.0713V6.46472H1876.43L1874.33 18.5706L1888.72 21.0713ZM2008.22 141.571L2022.61 144.089L2025.61 126.965H2008.22V141.571ZM2001.26 181.341V195.947H2013.54L2015.65 183.858L2001.26 181.341ZM1895.48 181.341L1881.09 178.823L1878.09 195.947H1895.48V181.341ZM1902.44 141.571V126.965H1890.17L1888.05 139.054L1902.44 141.571ZM2044.22 21.0713L2058.61 23.5412L2061.54 6.46472H2044.22V21.0713ZM2037.26 61.6357V76.2422H2049.57L2051.65 64.1056L2037.26 61.6357ZM1915.96 61.6357L1901.58 59.0973L1898.55 76.2422H1915.96V61.6357ZM1923.12 21.0713V6.46472H1910.86L1908.73 18.5329L1923.12 21.0713ZM1987.88 267.674L1980.72 308.039L2009.48 313.14L2016.64 272.775L1987.88 267.674ZM1995.1 295.983H1873.01V325.196H1995.1V295.983ZM1887.4 313.072L1894.36 272.706L1865.57 267.743L1858.62 308.108L1887.4 313.072ZM1879.97 284.831H2002.26V255.618H1879.97V284.831ZM1921.45 18.5706L1871.15 308.089L1899.93 313.091L1950.24 23.5719L1921.45 18.5706ZM1885.54 295.983H1838.41V325.196H1885.54V295.983ZM1852.8 313.091L1903.11 23.5719L1874.33 18.5706L1824.02 308.089L1852.8 313.091ZM1888.72 35.6778H1935.84V6.46472H1888.72V35.6778ZM1993.84 139.054L1986.88 178.823L2015.65 183.858L2022.61 144.089L1993.84 139.054ZM2001.26 166.734H1895.48V195.947H2001.26V166.734ZM1909.87 183.858L1916.83 144.089L1888.05 139.054L1881.09 178.823L1909.87 183.858ZM1902.44 156.178H2008.22V126.965H1902.44V156.178ZM2029.82 18.6013L2022.86 59.1657L2051.65 64.1056L2058.61 23.5412L2029.82 18.6013ZM2037.26 47.0291H1915.96V76.2422H2037.26V47.0291ZM1930.34 64.1741L1937.5 23.6097L1908.73 18.5329L1901.58 59.0973L1930.34 64.1741ZM1923.12 35.6778H2044.22V6.46472H1923.12V35.6778ZM2173.66 63.2264L2187.01 69.1687L2187.54 67.9751L2187.85 66.706L2173.66 63.2264ZM2063.5 310.59V325.196H2072.99L2076.85 316.532L2063.5 310.59ZM2013 310.59L1999.83 304.261L1989.77 325.196H2013V310.59ZM2152.19 21.0713V6.46472H2143L2139.02 14.7423L2152.19 21.0713ZM2184 21.0713L2198.19 24.5509L2202.63 6.46472H2184V21.0713ZM2185.59 310.59L2171.06 312.047L2172.38 325.196H2185.59V310.59ZM2160.34 58.653L2145.8 57.2682L2145.66 58.6893L2145.81 60.1098L2160.34 58.653ZM2163.92 21.0713V6.46472H2150.64L2149.38 19.6864L2163.92 21.0713ZM2194.34 21.0713L2208.82 19.1226L2207.12 6.46472H2194.34V21.0713ZM2233.32 310.59V325.196H2250.02L2247.79 308.641L2233.32 310.59ZM2205.08 203.015L2219.45 205.621L2222.58 188.408H2205.08V203.015ZM2197.72 243.579V258.186H2209.92L2212.1 246.186L2197.72 243.579ZM2066.68 243.579L2052.3 241.041L2049.27 258.186H2066.68V243.579ZM2073.84 203.015V188.408H2061.59L2059.46 200.476L2073.84 203.015ZM2160.32 57.2842L2050.16 304.648L2076.85 316.532L2187.01 69.1687L2160.32 57.2842ZM2063.5 295.983H2013V325.196H2063.5V295.983ZM2026.16 316.919L2165.35 27.4002L2139.02 14.7423L1999.83 304.261L2026.16 316.919ZM2152.19 35.6778H2184V6.46472H2152.19V35.6778ZM2169.82 17.5917L2159.48 59.7469L2187.85 66.706L2198.19 24.5509L2169.82 17.5917ZM2200.13 309.133L2174.87 57.1962L2145.81 60.1098L2171.06 312.047L2200.13 309.133ZM2174.88 60.0378L2178.46 22.4561L2149.38 19.6864L2145.8 57.2682L2174.88 60.0378ZM2163.92 35.6778H2194.34V6.46472H2163.92V35.6778ZM2179.87 23.0199L2218.84 312.539L2247.79 308.641L2208.82 19.1226L2179.87 23.0199ZM2233.32 295.983H2185.59V325.196H2233.32V295.983ZM2190.71 200.408L2183.35 240.972L2212.1 246.186L2219.45 205.621L2190.71 200.408ZM2197.72 228.973H2066.68V258.186H2197.72V228.973ZM2081.07 246.117L2088.23 205.553L2059.46 200.476L2052.3 241.041L2081.07 246.117ZM2073.84 217.621H2205.08V188.408H2073.84V217.621ZM2424.61 270.224L2438.99 272.775L2442.03 255.618H2424.61V270.224ZM2417.45 310.59V325.196H2429.69L2431.83 313.14L2417.45 310.59ZM2300.53 310.59L2286.13 308.108L2283.19 325.196H2300.53V310.59ZM2307.49 270.224V255.618H2295.18L2293.09 267.743L2307.49 270.224ZM2363.36 21.0713L2377.75 23.5719L2380.73 6.46472H2363.36V21.0713ZM2313.05 310.59V325.196H2325.34L2327.44 313.091L2313.05 310.59ZM2265.93 310.59L2251.54 308.089L2248.56 325.196H2265.93V310.59ZM2316.24 21.0713V6.46472H2303.95L2301.84 18.5706L2316.24 21.0713ZM2410.22 267.674L2403.07 308.039L2431.83 313.14L2438.99 272.775L2410.22 267.674ZM2417.45 295.983H2300.53V325.196H2417.45V295.983ZM2314.92 313.072L2321.88 272.706L2293.09 267.743L2286.13 308.108L2314.92 313.072ZM2307.49 284.831H2424.61V255.618H2307.49V284.831ZM2348.97 18.5706L2298.66 308.089L2327.44 313.091L2377.75 23.5719L2348.97 18.5706ZM2313.05 295.983H2265.93V325.196H2313.05V295.983ZM2280.32 313.091L2330.63 23.5719L2301.84 18.5706L2251.54 308.089L2280.32 313.091ZM2316.24 35.6778H2363.36V6.46472H2316.24V35.6778ZM2553.86 21.0713L2568.24 23.5815L2571.23 6.46472H2553.86V21.0713ZM2503.35 310.59V325.196H2515.63L2517.74 313.1L2503.35 310.59ZM2456.42 310.59L2442.03 308.089L2439.06 325.196H2456.42V310.59ZM2506.73 21.0713V6.46472H2494.44L2492.34 18.5706L2506.73 21.0713ZM2539.47 18.5611L2488.96 308.08L2517.74 313.1L2568.24 23.5815L2539.47 18.5611ZM2503.35 295.983H2456.42V325.196H2503.35V295.983ZM2470.81 313.091L2521.12 23.5719L2492.34 18.5706L2442.03 308.089L2470.81 313.091ZM2506.73 35.6778H2553.86V6.46472H2506.73V35.6778ZM2703.98 21.0713L2718.37 23.5719L2721.35 6.46472H2703.98V21.0713ZM2653.68 310.59V325.196H2665.96L2668.07 313.091L2653.68 310.59ZM2606.95 310.59L2592.56 308.089L2589.58 325.196H2606.95V310.59ZM2657.26 21.0713V6.46472H2644.97L2642.86 18.5706L2657.26 21.0713ZM2775.77 21.0713L2790.15 23.6097L2793.18 6.46472H2775.77V21.0713ZM2768.61 61.6357V76.2422H2780.86L2782.99 64.1741L2768.61 61.6357ZM2579.11 61.6357L2564.72 59.0973L2561.7 76.2422H2579.11V61.6357ZM2586.27 21.0713V6.46472H2574.01L2571.88 18.5329L2586.27 21.0713ZM2689.59 18.5706L2639.29 308.089L2668.07 313.091L2718.37 23.5719L2689.59 18.5706ZM2653.68 295.983H2606.95V325.196H2653.68V295.983ZM2621.34 313.091L2671.65 23.5719L2642.86 18.5706L2592.56 308.089L2621.34 313.091ZM2657.26 35.6778H2703.98V6.46472H2657.26V35.6778ZM2761.38 18.5329L2754.22 59.0973L2782.99 64.1741L2790.15 23.6097L2761.38 18.5329ZM2768.61 47.0291H2579.11V76.2422H2768.61V47.0291ZM2593.49 64.1741L2600.65 23.6097L2571.88 18.5329L2564.72 59.0973L2593.49 64.1741ZM2586.27 35.6778H2775.77V6.46472H2586.27V35.6778ZM2844.57 21.0713L2858.93 18.4198L2856.72 6.46472H2844.57V21.0713ZM2869.82 157.877L2855.46 160.528L2863.03 201.545L2882.7 164.766L2869.82 157.877ZM2943 21.0713V6.46472H2934.24L2930.12 14.1821L2943 21.0713ZM2997.08 21.0713L3009.62 28.5685L3022.84 6.46472H2997.08V21.0713ZM2886.13 206.594L2873.59 199.097L2872.19 201.433L2871.73 204.117L2886.13 206.594ZM2868.23 310.59V325.196H2880.54L2882.62 313.067L2868.23 310.59ZM2820.71 310.59L2806.32 308.069L2803.32 325.196H2820.71V310.59ZM2839.8 201.623L2854.18 204.143L2854.72 201.081L2853.96 198.065L2839.8 201.623ZM2794.46 21.0713V6.46472H2775.73L2780.29 24.6286L2794.46 21.0713ZM2830.2 23.7227L2855.46 160.528L2884.18 155.225L2858.93 18.4198L2830.2 23.7227ZM2882.7 164.766L2955.88 27.9605L2930.12 14.1821L2856.94 150.988L2882.7 164.766ZM2943 35.6778H2997.08V6.46472H2943V35.6778ZM2984.55 13.574L2873.59 199.097L2898.66 214.091L3009.62 28.5685L2984.55 13.574ZM2871.73 204.117L2853.83 308.113L2882.62 313.067L2900.52 209.071L2871.73 204.117ZM2868.23 295.983H2820.71V325.196H2868.23V295.983ZM2835.09 313.11L2854.18 204.143L2825.41 199.102L2806.32 308.069L2835.09 313.11ZM2853.96 198.065L2808.63 17.514L2780.29 24.6286L2825.63 205.18L2853.96 198.065ZM2794.46 35.6778H2844.57V6.46472H2794.46V35.6778Z" fill="#FFF429" mask="url(#path-1-outside-1_690_153)"/>
<mask id="mask0_690_153" style="mask-type:alpha" maskUnits="userSpaceOnUse" x="51" y="0" width="1605" height="331">
<path d="M156.509 326.361H83.0998L93.9017 266.841L158.933 267.281C177.304 267.281 192.441 262.726 204.345 253.614C216.397 244.502 225.729 232.671 232.342 218.122C239.103 203.572 243.659 188.215 246.01 172.048L247.553 158.381C248.876 148.681 249.464 138.541 249.317 127.959C249.17 117.231 247.627 107.237 244.687 97.9783C241.748 88.7196 236.751 81.0774 229.697 75.0519C222.79 69.0263 213.09 65.7931 200.598 65.3522L127.189 65.1318L137.55 5.39067L203.023 5.61112C224.48 6.05201 243.291 10.4609 259.457 18.8379C275.623 27.0679 288.924 38.3107 299.358 52.5663C309.793 66.6749 317.141 82.841 321.403 101.065C325.665 119.288 326.62 138.467 324.269 158.601L322.725 172.489C319.933 193.946 313.908 214.08 304.649 232.892C295.39 251.556 283.486 267.943 268.936 282.051C254.387 296.013 237.559 306.962 218.454 314.898C199.496 322.687 178.847 326.508 156.509 326.361ZM182.301 5.39067L126.528 326.361H51.135L106.688 5.39067H182.301ZM470.425 5.39067L414.872 326.361H339.479L395.252 5.39067H470.425ZM751.715 154.854L730.993 286.901C721.146 298.364 708.801 307.329 693.958 313.796C679.114 320.115 663.536 324.524 647.223 327.023C631.057 329.668 615.846 330.844 601.591 330.55C579.252 330.256 560.22 325.847 544.495 317.323C528.917 308.799 516.498 297.262 507.239 282.713C497.981 268.163 491.735 251.63 488.501 233.112C485.268 214.595 484.901 195.195 487.399 174.914L489.824 157.279C492.616 136.41 498.054 116.569 506.137 97.7579C514.367 78.7995 525.022 61.972 538.102 47.2756C551.182 32.5791 566.687 21.0424 584.616 12.6654C602.693 4.28844 623.121 0.320396 645.9 0.76129C669.562 1.05522 689.622 5.53764 706.082 14.2085C722.689 22.7325 735.549 35.0775 744.661 51.2436C753.772 67.4097 759.063 87.1764 760.533 110.544L688.447 110.323C687.712 100.624 685.875 92.0997 682.935 84.7515C680.143 77.2563 675.661 71.3777 669.488 67.1158C663.316 62.8538 654.865 60.5024 644.137 60.0615C631.204 59.4736 620.182 62.1925 611.07 68.218C601.958 74.0966 594.316 81.9592 588.143 91.8058C582.118 101.652 577.341 112.307 573.814 123.771C570.434 135.234 568.009 146.183 566.54 156.617L564.115 175.135C562.939 184.981 562.204 195.416 561.91 206.438C561.763 217.46 563.012 227.821 565.658 237.521C568.303 247.221 573.079 255.157 579.987 261.329C587.041 267.502 597.108 270.735 610.188 271.029C615.92 271.176 621.431 270.809 626.722 269.927C632.159 269.045 637.376 267.649 642.373 265.738C647.517 263.681 652.44 261.109 657.143 258.023L667.063 207.981H614.817L624.076 154.854H751.715ZM901.178 5.39067L845.625 326.361H770.232L826.005 5.39067H901.178ZM1097.82 5.39067L1042.26 326.361H966.651L1022.42 5.39067H1097.82ZM1191.51 5.39067L1181.15 65.1318H920.357L930.938 5.39067H1191.51ZM1316.28 76.595L1198.12 326.361H1114.57L1284.76 5.39067H1338.1L1316.28 76.595ZM1336.56 326.361L1303.93 68.8793L1305.7 5.39067H1355.96L1415.26 326.361H1336.56ZM1353.76 206.659L1343.17 266.4H1182.91L1193.49 206.659H1353.76ZM1655.55 266.841L1645.19 326.361H1487.35L1497.71 266.841H1655.55ZM1570.23 5.39067L1514.46 326.361H1439.07L1494.62 5.39067H1570.23Z" fill="white"/>
</mask>
<g mask="url(#mask0_690_153)">
<rect x="-22.5596" y="-47.491" width="1731.54" height="219.098" fill="#FFF429"/>
</g>
<mask id="mask1_690_153" style="mask-type:alpha" maskUnits="userSpaceOnUse" x="0" y="0" width="1606" height="331">
<path d="M106.052 326.361H32.6437L43.4456 266.841L108.477 267.281C126.848 267.281 141.985 262.726 153.889 253.614C165.941 244.502 175.273 232.671 181.886 218.122C188.647 203.572 193.202 188.215 195.554 172.048L197.097 158.381C198.42 148.681 199.008 138.541 198.861 127.959C198.714 117.231 197.17 107.237 194.231 97.9783C191.292 88.7196 186.295 81.0774 179.241 75.0519C172.333 69.0263 162.634 65.7931 150.142 65.3522L76.7331 65.1318L87.0941 5.39067L152.567 5.61112C174.024 6.05201 192.835 10.4609 209.001 18.8379C225.167 27.0679 238.468 38.3107 248.902 52.5663C259.336 66.6749 266.685 82.841 270.947 101.065C275.209 119.288 276.164 138.467 273.812 158.601L272.269 172.489C269.477 193.946 263.451 214.08 254.193 232.892C244.934 251.556 233.03 267.943 218.48 282.051C203.931 296.013 187.103 306.962 167.998 314.898C149.04 322.687 128.391 326.508 106.052 326.361ZM131.845 5.39067L76.0717 326.361H0.678919L56.2315 5.39067H131.845ZM419.969 5.39067L364.416 326.361H289.023L344.796 5.39067H419.969ZM701.259 154.854L680.537 286.901C670.69 298.364 658.345 307.329 643.502 313.796C628.658 320.115 613.08 324.524 596.767 327.023C580.601 329.668 565.39 330.844 551.135 330.55C528.796 330.256 509.764 325.847 494.039 317.323C478.461 308.799 466.042 297.262 456.783 282.713C447.525 268.163 441.279 251.63 438.045 233.112C434.812 214.595 434.445 195.195 436.943 174.914L439.368 157.279C442.16 136.41 447.598 116.569 455.681 97.7579C463.911 78.7995 474.566 61.972 487.646 47.2756C500.726 32.5791 516.23 21.0424 534.16 12.6654C552.237 4.28844 572.665 0.320396 595.444 0.76129C619.106 1.05522 639.166 5.53764 655.626 14.2085C672.233 22.7325 685.093 35.0775 694.205 51.2436C703.316 67.4097 708.607 87.1764 710.077 110.544L637.991 110.323C637.256 100.624 635.419 92.0997 632.479 84.7515C629.687 77.2563 625.205 71.3777 619.032 67.1158C612.86 62.8538 604.409 60.5024 593.681 60.0615C580.748 59.4736 569.726 62.1925 560.614 68.218C551.502 74.0966 543.86 81.9592 537.687 91.8058C531.662 101.652 526.885 112.307 523.358 123.771C519.978 135.234 517.553 146.183 516.084 156.617L513.659 175.135C512.483 184.981 511.748 195.416 511.454 206.438C511.307 217.46 512.556 227.821 515.202 237.521C517.847 247.221 522.623 255.157 529.531 261.329C536.585 267.502 546.652 270.735 559.732 271.029C565.464 271.176 570.975 270.809 576.265 269.927C581.703 269.045 586.92 267.649 591.917 265.738C597.061 263.681 601.984 261.109 606.687 258.023L616.607 207.981H564.361L573.62 154.854H701.259ZM850.722 5.39067L795.169 326.361H719.776L775.549 5.39067H850.722ZM1047.36 5.39067L991.808 326.361H916.194L971.967 5.39067H1047.36ZM1141.05 5.39067L1130.69 65.1318H869.901L880.482 5.39067H1141.05ZM1265.82 76.595L1147.66 326.361H1064.11L1234.3 5.39067H1287.65L1265.82 76.595ZM1286.1 326.361L1253.48 68.8793L1255.24 5.39067H1305.5L1364.8 326.361H1286.1ZM1303.3 206.659L1292.72 266.4H1132.45L1143.03 206.659H1303.3ZM1605.09 266.841L1594.73 326.361H1436.89L1447.25 266.841H1605.09ZM1519.78 5.39067L1464 326.361H1388.61L1444.16 5.39067H1519.78Z" fill="white"/>
</mask>
<g mask="url(#mask1_690_153)">
<rect x="-73.0156" y="171.606" width="1731.54" height="219.098" fill="#FFF429"/>
</g>
<mask id="path-7-outside-2_690_153" maskUnits="userSpaceOnUse" x="7510.4" y="5.59009" width="1390" height="320" fill="black">
<rect fill="white" x="7510.4" y="5.59009" width="1390" height="320"/>
<path d="M7578.26 21.0714L7654.41 21.2703C7671.52 21.8005 7685.57 25.7112 7696.57 33.0022C7707.71 40.1606 7715.66 50.0366 7720.43 62.6301C7725.34 75.0911 7727.06 89.673 7725.6 106.376C7724.41 120.03 7720.96 132.292 7715.26 143.162C7709.69 154.033 7702.14 163.312 7692.59 171.001C7683.18 178.689 7672.11 184.787 7659.39 189.295L7649.05 193.271H7576.67L7581.64 162.053L7630.16 162.45C7641.29 162.318 7651.1 159.865 7659.58 155.093C7668.07 150.188 7674.9 143.494 7680.07 135.01C7685.37 126.526 7688.62 116.915 7689.81 106.177C7691 96.7652 7690.74 88.0823 7689.01 80.1285C7687.29 72.1747 7683.58 65.7453 7677.88 60.8405C7672.31 55.8031 7664.22 53.0855 7653.62 52.6878L7608.68 52.489L7563.74 310.59H7528.15L7578.26 21.0714ZM7663.76 310.59L7630.75 179.352L7665.95 179.153L7702.14 308.005L7701.94 310.59H7663.76ZM7894.22 279.371L7888.65 310.59H7766.56L7772.13 279.371H7894.22ZM7823.43 21.0714L7773.13 310.59H7737.53L7787.64 21.0714H7823.43ZM7900.98 145.549L7895.61 176.767H7789.83L7795.4 145.549H7900.98ZM7937.17 21.0714L7931.61 52.489H7811.3L7816.87 21.0714H7937.17ZM8070.6 48.7109L7949.1 310.59H7911.32L8052.11 21.0714H8075.77L8070.6 48.7109ZM8087.7 310.59L8056.48 44.5352L8060.26 21.0714H8082.73L8122.89 310.59H8087.7ZM8105.99 203.413L8100.42 234.83H7964.81L7970.38 203.413H8105.99ZM8313.19 279.371L8307.62 310.59H8190.9L8196.47 279.371H8313.19ZM8247.77 21.0714L8197.46 310.59H8161.87L8211.98 21.0714H8247.77ZM8437.47 21.0714L8387.16 310.59H8351.37L8401.68 21.0714H8437.47ZM8583.82 21.0714L8533.51 310.59H8498.12L8548.42 21.0714H8583.82ZM8657.59 21.0714L8652.02 52.489H8469.08L8474.65 21.0714H8657.59ZM8717.24 21.0714L8749.06 166.03L8831.78 21.0714H8873.93L8761.19 204.606L8742.89 310.59H8707.1L8726.39 200.231L8678.47 21.0714H8717.24Z"/>
</mask>
<path d="M7578.26 21.0714L7578.3 6.46495L7565.97 6.43276L7563.86 18.5804L7578.26 21.0714ZM7654.41 21.2703L7654.87 6.67076L7654.66 6.66434L7654.45 6.66379L7654.41 21.2703ZM7696.57 33.0022L7688.5 45.1781L7688.59 45.2341L7688.67 45.2889L7696.57 33.0022ZM7720.43 62.6301L7706.77 67.806L7706.81 67.8932L7706.84 67.98L7720.43 62.6301ZM7725.6 106.376L7740.15 107.647L7740.15 107.646L7725.6 106.376ZM7715.26 143.162L7702.33 136.379L7702.29 136.441L7702.26 136.504L7715.26 143.162ZM7692.59 171.001L7683.43 159.626L7683.39 159.657L7683.35 159.689L7692.59 171.001ZM7659.39 189.295L7654.51 175.526L7654.33 175.591L7654.14 175.662L7659.39 189.295ZM7649.05 193.271V207.878H7651.76L7654.29 206.904L7649.05 193.271ZM7576.67 193.271L7562.24 190.974L7559.55 207.878H7576.67V193.271ZM7581.64 162.053L7581.76 147.447L7569.19 147.344L7567.21 159.756L7581.64 162.053ZM7630.16 162.45L7630.04 177.056L7630.18 177.058L7630.33 177.056L7630.16 162.45ZM7659.58 155.093L7666.75 167.824L7666.82 167.782L7666.9 167.739L7659.58 155.093ZM7680.07 135.01L7667.68 127.268L7667.64 127.338L7667.59 127.409L7680.07 135.01ZM7689.81 106.177L7675.32 104.34L7675.3 104.452L7675.29 104.564L7689.81 106.177ZM7677.88 60.8405L7668.08 71.6718L7668.21 71.7938L7668.35 71.9124L7677.88 60.8405ZM7653.62 52.6878L7654.17 38.0915L7653.93 38.0825L7653.68 38.0814L7653.62 52.6878ZM7608.68 52.489L7608.75 37.8826L7596.41 37.828L7594.29 49.9835L7608.68 52.489ZM7563.74 310.59V325.197H7576.02L7578.13 313.096L7563.74 310.59ZM7528.15 310.59L7513.76 308.099L7510.8 325.197H7528.15V310.59ZM7663.76 310.59L7649.6 314.153L7652.37 325.197H7663.76V310.59ZM7630.75 179.352L7630.67 164.746L7612.04 164.851L7616.59 182.915L7630.75 179.352ZM7665.95 179.153L7680.01 175.204L7677 164.484L7665.87 164.547L7665.95 179.153ZM7702.14 308.005L7716.7 309.125L7716.9 306.546L7716.2 304.055L7702.14 308.005ZM7701.94 310.59V325.197H7715.47L7716.5 311.71L7701.94 310.59ZM7578.22 35.6779L7654.38 35.8768L7654.45 6.66379L7578.3 6.46495L7578.22 35.6779ZM7653.96 35.8698C7669.14 36.3404 7680.34 39.7709 7688.5 45.1781L7704.64 20.8263C7690.79 11.6515 7673.89 7.26069 7654.87 6.67076L7653.96 35.8698ZM7688.67 45.2889C7697.13 50.7239 7703.09 58.0839 7706.77 67.806L7734.09 57.4542C7728.23 41.9892 7718.28 29.5973 7704.47 20.7154L7688.67 45.2889ZM7706.84 67.98C7710.74 77.8756 7712.36 90.1001 7711.05 105.106L7740.15 107.646C7741.76 89.246 7739.94 72.3065 7734.02 57.2802L7706.84 67.98ZM7711.05 105.105C7710.01 117.057 7707.03 127.41 7702.33 136.379L7728.2 149.946C7734.89 137.174 7738.81 123.003 7740.15 107.647L7711.05 105.105ZM7702.26 136.504C7697.63 145.543 7691.38 153.218 7683.43 159.626L7701.76 182.376C7712.89 173.406 7721.76 162.522 7728.26 149.821L7702.26 136.504ZM7683.35 159.689C7675.38 166.202 7665.83 171.518 7654.51 175.526L7664.26 203.063C7678.4 198.056 7690.98 191.177 7701.83 182.313L7683.35 159.689ZM7654.14 175.662L7643.8 179.638L7654.29 206.904L7664.63 202.927L7654.14 175.662ZM7649.05 178.665H7576.67V207.878H7649.05V178.665ZM7591.09 195.568L7596.06 164.35L7567.21 159.756L7562.24 190.974L7591.09 195.568ZM7581.52 176.659L7630.04 177.056L7630.28 147.844L7581.76 147.447L7581.52 176.659ZM7630.33 177.056C7643.56 176.898 7655.84 173.961 7666.75 167.824L7652.42 142.362C7646.37 145.77 7639.02 147.737 7629.98 147.845L7630.33 177.056ZM7666.9 167.739C7677.53 161.593 7686.12 153.151 7692.54 142.611L7667.59 127.409C7663.68 133.836 7658.61 138.784 7652.27 142.448L7666.9 167.739ZM7692.45 142.751C7699.01 132.265 7702.91 120.528 7704.33 107.79L7675.29 104.564C7674.32 113.302 7671.73 120.787 7667.68 127.268L7692.45 142.751ZM7704.3 108.014C7705.67 97.2254 7705.42 86.852 7703.29 77.0355L7674.74 83.2215C7676.06 89.3125 7676.34 96.305 7675.32 104.34L7704.3 108.014ZM7703.29 77.0355C7700.95 66.2474 7695.72 56.9197 7687.41 49.7686L7668.35 71.9124C7671.44 74.571 7673.63 78.102 7674.74 83.2215L7703.29 77.0355ZM7687.68 50.0092C7678.69 41.8774 7666.8 38.5654 7654.17 38.0915L7653.07 67.2841C7661.65 67.6056 7665.93 69.7287 7668.08 71.6718L7687.68 50.0092ZM7653.68 38.0814L7608.75 37.8826L7608.62 67.0954L7653.55 67.2942L7653.68 38.0814ZM7594.29 49.9835L7549.35 308.085L7578.13 313.096L7623.07 54.9945L7594.29 49.9835ZM7563.74 295.984H7528.15V325.197H7563.74V295.984ZM7542.54 313.081L7592.65 23.5625L7563.86 18.5804L7513.76 308.099L7542.54 313.081ZM7677.93 307.027L7644.92 175.789L7616.59 182.915L7649.6 314.153L7677.93 307.027ZM7630.83 193.959L7666.03 193.76L7665.87 164.547L7630.67 164.746L7630.83 193.959ZM7651.89 183.103L7688.08 311.955L7716.2 304.055L7680.01 175.204L7651.89 183.103ZM7687.57 306.885L7687.38 309.47L7716.5 311.71L7716.7 309.125L7687.57 306.885ZM7701.94 295.984H7663.76V325.197H7701.94V295.984ZM7894.22 279.371L7908.6 281.936L7911.66 264.765H7894.22V279.371ZM7888.65 310.59V325.197H7900.89L7903.03 313.155L7888.65 310.59ZM7766.56 310.59L7752.18 308.026L7749.12 325.197H7766.56V310.59ZM7772.13 279.371V264.765H7759.9L7757.75 276.807L7772.13 279.371ZM7823.43 21.0714L7837.82 23.5721L7840.8 6.4649H7823.43V21.0714ZM7773.13 310.59V325.197H7785.41L7787.52 313.091L7773.13 310.59ZM7737.53 310.59L7723.14 308.099L7720.18 325.197H7737.53V310.59ZM7787.64 21.0714V6.4649H7775.35L7773.25 18.5804L7787.64 21.0714ZM7900.98 145.549L7915.38 148.024L7918.32 130.942H7900.98V145.549ZM7895.61 176.767V191.374H7907.92L7910.01 179.243L7895.61 176.767ZM7789.83 176.767L7775.45 174.203L7772.39 191.374H7789.83V176.767ZM7795.4 145.549V130.942H7783.16L7781.02 142.984L7795.4 145.549ZM7937.17 21.0714L7951.56 23.6202L7954.6 6.4649H7937.17V21.0714ZM7931.61 52.489V67.0955H7943.85L7945.99 55.0378L7931.61 52.489ZM7811.3 52.489L7796.92 49.9402L7793.88 67.0955H7811.3V52.489ZM7816.87 21.0714V6.4649H7804.63L7802.49 18.5227L7816.87 21.0714ZM7879.84 276.807L7874.27 308.026L7903.03 313.155L7908.6 281.936L7879.84 276.807ZM7888.65 295.984H7766.56V325.197H7888.65V295.984ZM7780.94 313.155L7786.51 281.936L7757.75 276.807L7752.18 308.026L7780.94 313.155ZM7772.13 293.978H7894.22V264.765H7772.13V293.978ZM7809.04 18.5708L7758.73 308.089L7787.52 313.091L7837.82 23.5721L7809.04 18.5708ZM7773.13 295.984H7737.53V325.197H7773.13V295.984ZM7751.92 313.081L7802.03 23.5625L7773.25 18.5804L7723.14 308.099L7751.92 313.081ZM7787.64 35.678H7823.43V6.4649H7787.64V35.678ZM7886.59 143.073L7881.22 174.292L7910.01 179.243L7915.38 148.024L7886.59 143.073ZM7895.61 162.161H7789.83V191.374H7895.61V162.161ZM7804.21 179.332L7809.78 148.113L7781.02 142.984L7775.45 174.203L7804.21 179.332ZM7795.4 160.155H7900.98V130.942H7795.4V160.155ZM7922.79 18.5227L7917.22 49.9402L7945.99 55.0378L7951.56 23.6202L7922.79 18.5227ZM7931.61 37.8824H7811.3V67.0955H7931.61V37.8824ZM7825.69 55.0378L7831.25 23.6202L7802.49 18.5227L7796.92 49.9402L7825.69 55.0378ZM7816.87 35.678H7937.17V6.4649H7816.87V35.678ZM8070.6 48.7109L8083.85 54.8581L8084.62 53.1967L8084.96 51.3965L8070.6 48.7109ZM7949.1 310.59V325.197H7958.43L7962.35 316.737L7949.1 310.59ZM7911.32 310.59L7898.19 304.203L7887.98 325.197H7911.32V310.59ZM8052.11 21.0714V6.4649H8042.97L8038.97 14.6839L8052.11 21.0714ZM8075.77 21.0714L8090.13 23.757L8093.36 6.4649H8075.77V21.0714ZM8087.7 310.59L8073.19 312.292L8074.71 325.197H8087.7V310.59ZM8056.48 44.5352L8042.06 42.2132L8041.74 44.2193L8041.97 46.2374L8056.48 44.5352ZM8060.26 21.0714V6.4649H8047.82L8045.84 18.7495L8060.26 21.0714ZM8082.73 21.0714L8097.2 19.0642L8095.45 6.4649H8082.73V21.0714ZM8122.89 310.59V325.197H8139.67L8137.36 308.583L8122.89 310.59ZM8105.99 203.413L8120.37 205.961L8123.42 188.806H8105.99V203.413ZM8100.42 234.83V249.437H8112.67L8114.81 237.379L8100.42 234.83ZM7964.81 234.83L7950.43 232.281L7947.39 249.437H7964.81V234.83ZM7970.38 203.413V188.806H7958.13L7956 200.864L7970.38 203.413ZM8057.35 42.5638L7935.85 304.443L7962.35 316.737L8083.85 54.8581L8057.35 42.5638ZM7949.1 295.984H7911.32V325.197H7949.1V295.984ZM7924.46 316.978L8065.24 27.4589L8038.97 14.6839L7898.19 304.203L7924.46 316.978ZM8052.11 35.678H8075.77V6.4649H8052.11V35.678ZM8061.41 18.3859L8056.24 46.0253L8084.96 51.3965L8090.13 23.757L8061.41 18.3859ZM8102.21 308.888L8070.99 42.8329L8041.97 46.2374L8073.19 312.292L8102.21 308.888ZM8070.9 46.8572L8074.68 23.3934L8045.84 18.7495L8042.06 42.2132L8070.9 46.8572ZM8060.26 35.678H8082.73V6.4649H8060.26V35.678ZM8068.26 23.0787L8108.43 312.597L8137.36 308.583L8097.2 19.0642L8068.26 23.0787ZM8122.89 295.984H8087.7V325.197H8122.89V295.984ZM8091.61 200.864L8086.04 232.281L8114.81 237.379L8120.37 205.961L8091.61 200.864ZM8100.42 220.224H7964.81V249.437H8100.42V220.224ZM7979.19 237.379L7984.76 205.961L7956 200.864L7950.43 232.281L7979.19 237.379ZM7970.38 218.019H8105.99V188.806H7970.38V218.019ZM8313.19 279.371L8327.57 281.936L8330.63 264.765H8313.19V279.371ZM8307.62 310.59V325.197H8319.85L8322 313.155L8307.62 310.59ZM8190.9 310.59L8176.52 308.026L8173.46 325.197H8190.9V310.59ZM8196.47 279.371V264.765H8184.23L8182.09 276.807L8196.47 279.371ZM8247.77 21.0714L8262.16 23.5721L8265.13 6.4649H8247.77V21.0714ZM8197.46 310.59V325.197H8209.75L8211.85 313.091L8197.46 310.59ZM8161.87 310.59L8147.48 308.099L8144.52 325.197H8161.87V310.59ZM8211.98 21.0714V6.4649H8199.68L8197.58 18.5804L8211.98 21.0714ZM8298.81 276.807L8293.24 308.026L8322 313.155L8327.57 281.936L8298.81 276.807ZM8307.62 295.984H8190.9V325.197H8307.62V295.984ZM8205.28 313.155L8210.85 281.936L8182.09 276.807L8176.52 308.026L8205.28 313.155ZM8196.47 293.978H8313.19V264.765H8196.47V293.978ZM8233.38 18.5708L8183.07 308.089L8211.85 313.091L8262.16 23.5721L8233.38 18.5708ZM8197.46 295.984H8161.87V325.197H8197.46V295.984ZM8176.26 313.081L8226.37 23.5625L8197.58 18.5804L8147.48 308.099L8176.26 313.081ZM8211.98 35.678H8247.77V6.4649H8211.98V35.678ZM8437.47 21.0714L8451.86 23.5721L8454.83 6.4649H8437.47V21.0714ZM8387.16 310.59V325.197H8399.45L8401.55 313.091L8387.16 310.59ZM8351.37 310.59L8336.98 308.089L8334 325.197H8351.37V310.59ZM8401.68 21.0714V6.4649H8389.39L8387.28 18.5708L8401.68 21.0714ZM8423.08 18.5708L8372.77 308.089L8401.55 313.091L8451.86 23.5721L8423.08 18.5708ZM8387.16 295.984H8351.37V325.197H8387.16V295.984ZM8365.76 313.091L8416.07 23.5721L8387.28 18.5708L8336.98 308.089L8365.76 313.091ZM8401.68 35.678H8437.47V6.4649H8401.68V35.678ZM8583.82 21.0714L8598.21 23.5721L8601.18 6.4649H8583.82V21.0714ZM8533.51 310.59V325.197H8545.8L8547.9 313.091L8533.51 310.59ZM8498.12 310.59L8483.72 308.089L8480.75 325.197H8498.12V310.59ZM8548.42 21.0714V6.4649H8536.14L8534.03 18.5708L8548.42 21.0714ZM8657.59 21.0714L8671.97 23.6202L8675.01 6.4649H8657.59V21.0714ZM8652.02 52.489V67.0955H8664.27L8666.4 55.0378L8652.02 52.489ZM8469.08 52.489L8454.7 49.9402L8451.66 67.0955H8469.08V52.489ZM8474.65 21.0714V6.4649H8462.41L8460.27 18.5227L8474.65 21.0714ZM8569.43 18.5708L8519.12 308.089L8547.9 313.091L8598.21 23.5721L8569.43 18.5708ZM8533.51 295.984H8498.12V325.197H8533.51V295.984ZM8512.51 313.091L8562.81 23.5721L8534.03 18.5708L8483.72 308.089L8512.51 313.091ZM8548.42 35.678H8583.82V6.4649H8548.42V35.678ZM8643.21 18.5227L8637.64 49.9402L8666.4 55.0378L8671.97 23.6202L8643.21 18.5227ZM8652.02 37.8824H8469.08V67.0955H8652.02V37.8824ZM8483.47 55.0378L8489.03 23.6202L8460.27 18.5227L8454.7 49.9402L8483.47 55.0378ZM8474.65 35.678H8657.59V6.4649H8474.65V35.678ZM8717.24 21.0714L8731.51 17.9401L8728.99 6.4649H8717.24V21.0714ZM8749.06 166.03L8734.79 169.161L8742.93 206.241L8761.74 173.269L8749.06 166.03ZM8831.78 21.0714V6.4649H8823.3L8819.09 13.8321L8831.78 21.0714ZM8873.93 21.0714L8886.38 28.7169L8900.05 6.4649H8873.93V21.0714ZM8761.19 204.606L8748.74 196.96L8747.27 199.353L8746.79 202.121L8761.19 204.606ZM8742.89 310.59V325.197H8755.19L8757.29 313.075L8742.89 310.59ZM8707.1 310.59L8692.71 308.075L8689.72 325.197H8707.1V310.59ZM8726.39 200.231L8740.78 202.746L8741.33 199.571L8740.5 196.457L8726.39 200.231ZM8678.47 21.0714V6.4649H8659.44L8664.36 24.8457L8678.47 21.0714ZM8702.98 24.2027L8734.79 169.161L8763.32 162.898L8731.51 17.9401L8702.98 24.2027ZM8761.74 173.269L8844.46 28.3108L8819.09 13.8321L8736.37 158.79L8761.74 173.269ZM8831.78 35.678H8873.93V6.4649H8831.78V35.678ZM8861.49 13.426L8748.74 196.96L8773.63 212.251L8886.38 28.7169L8861.49 13.426ZM8746.79 202.121L8728.5 308.106L8757.29 313.075L8775.58 207.09L8746.79 202.121ZM8742.89 295.984H8707.1V325.197H8742.89V295.984ZM8721.49 313.105L8740.78 202.746L8712 197.716L8692.71 308.075L8721.49 313.105ZM8740.5 196.457L8692.58 17.2972L8664.36 24.8457L8712.28 204.005L8740.5 196.457ZM8678.47 35.678H8717.24V6.4649H8678.47V35.678Z" fill="#FFF429" mask="url(#path-7-outside-2_690_153)"/>
<mask id="mask2_690_153" style="mask-type:alpha" maskUnits="userSpaceOnUse" x="5950" y="0" width="1606" height="331">
<path d="M6056.23 326.361H5982.82L5993.62 266.84L6058.65 267.281C6077.02 267.281 6092.16 262.725 6104.06 253.613C6116.12 244.502 6125.45 232.671 6132.06 218.121C6138.82 203.572 6143.38 188.214 6145.73 172.048L6147.27 158.38C6148.59 148.681 6149.18 138.54 6149.04 127.959C6148.89 117.23 6147.35 107.237 6144.41 97.9779C6141.47 88.7191 6136.47 81.077 6129.42 75.0514C6122.51 69.0259 6112.81 65.7927 6100.32 65.3518L6026.91 65.1313L6037.27 5.39024L6102.74 5.61069C6124.2 6.05159 6143.01 10.4605 6159.18 18.8375C6175.34 27.0675 6188.64 38.3103 6199.08 52.5659C6209.51 66.6745 6216.86 82.8406 6221.12 101.064C6225.38 119.288 6226.34 138.467 6223.99 158.601L6222.44 172.489C6219.65 193.946 6213.63 214.08 6204.37 232.891C6195.11 251.556 6183.21 267.942 6168.66 282.051C6154.11 296.013 6137.28 306.961 6118.17 314.898C6099.21 322.687 6078.57 326.508 6056.23 326.361ZM6082.02 5.39024L6026.25 326.361H5950.85L6006.41 5.39024H6082.02ZM6370.14 5.39024L6314.59 326.361H6239.2L6294.97 5.39024H6370.14ZM6651.43 154.853L6630.71 286.901C6620.87 298.364 6608.52 307.329 6593.68 313.795C6578.83 320.115 6563.26 324.524 6546.94 327.022C6530.78 329.667 6515.57 330.843 6501.31 330.549C6478.97 330.255 6459.94 325.846 6444.21 317.322C6428.64 308.799 6416.22 297.262 6406.96 282.712C6397.7 268.163 6391.45 251.629 6388.22 233.112C6384.99 214.594 6384.62 195.195 6387.12 174.914L6389.54 157.278C6392.34 136.409 6397.77 116.569 6405.86 97.7575C6414.09 78.799 6424.74 61.9716 6437.82 47.2751C6450.9 32.5787 6466.41 21.042 6484.34 12.665C6502.41 4.28801 6522.84 0.319969 6545.62 0.760862C6569.28 1.05479 6589.34 5.53721 6605.8 14.2081C6622.41 22.7321 6635.27 35.0771 6644.38 51.2432C6653.49 67.4093 6658.78 87.176 6660.25 110.543L6588.17 110.323C6587.43 100.623 6585.59 92.0993 6582.65 84.7511C6579.86 77.2559 6575.38 71.3773 6569.21 67.1153C6563.03 62.8534 6554.58 60.5019 6543.86 60.0611C6530.92 59.4732 6519.9 62.192 6510.79 68.2176C6501.68 74.0962 6494.04 81.9588 6487.86 91.8054C6481.84 101.652 6477.06 112.307 6473.53 123.77C6470.15 135.233 6467.73 146.182 6466.26 156.617L6463.83 175.134C6462.66 184.981 6461.92 195.415 6461.63 206.438C6461.48 217.46 6462.73 227.821 6465.38 237.521C6468.02 247.22 6472.8 255.156 6479.71 261.329C6486.76 267.501 6496.83 270.735 6509.91 271.029C6515.64 271.176 6521.15 270.808 6526.44 269.926C6531.88 269.045 6537.1 267.648 6542.09 265.738C6547.24 263.68 6552.16 261.109 6556.86 258.022L6566.78 207.981H6514.54L6523.8 154.853H6651.43ZM6800.9 5.39024L6745.34 326.361H6669.95L6725.72 5.39024H6800.9ZM6997.54 5.39024L6941.98 326.361H6866.37L6922.14 5.39024H6997.54ZM7091.23 5.39024L7080.86 65.1313H6820.08L6830.66 5.39024H7091.23ZM7216 76.5946L7097.84 326.361H7014.29L7184.47 5.39024H7237.82L7216 76.5946ZM7236.28 326.361L7203.65 68.8789L7205.42 5.39024H7255.68L7314.98 326.361H7236.28ZM7253.47 206.658L7242.89 266.399H7082.63L7093.21 206.658H7253.47ZM7555.27 266.84L7544.9 326.361H7387.07L7397.43 266.84H7555.27ZM7469.95 5.39024L7414.18 326.361H7338.79L7394.34 5.39024H7469.95Z" fill="white"/>
</mask>
<g mask="url(#mask2_690_153)">
<rect x="5877.16" y="-47.4912" width="1731.54" height="219.098" fill="#FFF429"/>
</g>
<mask id="mask3_690_153" style="mask-type:alpha" maskUnits="userSpaceOnUse" x="5900" y="0" width="1605" height="331">
<path d="M6005.77 326.361H5932.36L5943.16 266.84L6008.19 267.281C6026.56 267.281 6041.7 262.725 6053.61 253.613C6065.66 244.501 6074.99 232.671 6081.6 218.121C6088.36 203.572 6092.92 188.214 6095.27 172.048L6096.81 158.38C6098.14 148.68 6098.72 138.54 6098.58 127.958C6098.43 117.23 6096.89 107.236 6093.95 97.9777C6091.01 88.7189 6086.01 81.0767 6078.96 75.0512C6072.05 69.0256 6062.35 65.7924 6049.86 65.3515L5976.45 65.1311L5986.81 5.39L6052.28 5.61045C6073.74 6.05134 6092.55 10.4603 6108.72 18.8373C6124.88 27.0673 6138.18 38.3101 6148.62 52.5656C6159.05 66.6742 6166.4 82.8403 6170.66 101.064C6174.93 119.288 6175.88 138.466 6173.53 158.601L6171.99 172.489C6169.19 193.945 6163.17 214.08 6153.91 232.891C6144.65 251.556 6132.75 267.942 6118.2 282.051C6103.65 296.012 6086.82 306.961 6067.71 314.897C6048.76 322.686 6028.11 326.507 6005.77 326.361ZM6031.56 5.39L5975.79 326.361H5900.4L5955.95 5.39H6031.56ZM6319.69 5.39L6264.13 326.361H6188.74L6244.51 5.39H6319.69ZM6600.98 154.853L6580.25 286.901C6570.41 298.364 6558.06 307.329 6543.22 313.795C6528.38 320.115 6512.8 324.523 6496.48 327.022C6480.32 329.667 6465.11 330.843 6450.85 330.549C6428.51 330.255 6409.48 325.846 6393.76 317.322C6378.18 308.798 6365.76 297.262 6356.5 282.712C6347.24 268.163 6341 251.629 6337.76 233.112C6334.53 214.594 6334.16 195.195 6336.66 174.914L6339.08 157.278C6341.88 136.409 6347.31 116.569 6355.4 97.7572C6363.63 78.7988 6374.28 61.9713 6387.36 47.2749C6400.44 32.5784 6415.95 21.0417 6433.88 12.6647C6451.95 4.28777 6472.38 0.319725 6495.16 0.760618C6518.82 1.05455 6538.88 5.53697 6555.34 14.2079C6571.95 22.7318 6584.81 35.0768 6593.92 51.2429C6603.03 67.409 6608.32 87.1758 6609.79 110.543L6537.71 110.323C6536.97 100.623 6535.14 92.0991 6532.2 84.7508C6529.4 77.2557 6524.92 71.3771 6518.75 67.1151C6512.58 62.8531 6504.13 60.5017 6493.4 60.0608C6480.46 59.4729 6469.44 62.1918 6460.33 68.2173C6451.22 74.0959 6443.58 81.9585 6437.4 91.8051C6431.38 101.652 6426.6 112.307 6423.08 123.77C6419.69 135.233 6417.27 146.182 6415.8 156.617L6413.38 175.134C6412.2 184.981 6411.46 195.415 6411.17 206.437C6411.02 217.46 6412.27 227.821 6414.92 237.52C6417.56 247.22 6422.34 255.156 6429.25 261.329C6436.3 267.501 6446.37 270.734 6459.45 271.028C6465.18 271.175 6470.69 270.808 6475.98 269.926C6481.42 269.044 6486.64 267.648 6491.63 265.738C6496.78 263.68 6501.7 261.108 6506.4 258.022L6516.32 207.981H6464.08L6473.34 154.853H6600.98ZM6750.44 5.39L6694.89 326.361H6619.49L6675.27 5.39H6750.44ZM6947.08 5.39L6891.52 326.361H6815.91L6871.68 5.39H6947.08ZM7040.77 5.39L7030.41 65.1311H6769.62L6780.2 5.39H7040.77ZM7165.54 76.5943L7047.38 326.361H6963.83L7134.02 5.39H7187.36L7165.54 76.5943ZM7185.82 326.361L7153.19 68.8787L7154.96 5.39H7205.22L7264.52 326.361H7185.82ZM7203.02 206.658L7192.43 266.399H7032.17L7042.75 206.658H7203.02ZM7504.81 266.84L7494.45 326.361H7336.61L7346.97 266.84H7504.81ZM7419.49 5.39L7363.72 326.361H7288.33L7343.88 5.39H7419.49Z" fill="white"/>
</mask>
<g mask="url(#mask3_690_153)">
<rect x="5826.7" y="171.607" width="1731.54" height="219.098" fill="#FFF429"/>
</g>
<mask id="path-13-outside-3_690_153" maskUnits="userSpaceOnUse" x="4549.24" y="5.59009" width="1417" height="320" fill="black">
<rect fill="white" x="4549.24" y="5.59009" width="1417" height="320"/>
<path d="M4617.12 21.0714L4699.24 21.2703C4716.48 21.8005 4730.79 25.6449 4742.19 32.8033C4753.73 39.8292 4762.14 49.6389 4767.45 62.2324C4772.88 74.8259 4774.87 89.673 4773.41 106.774C4772.22 120.825 4768.97 133.286 4763.67 144.157C4758.37 155.027 4751.14 164.373 4741.99 172.194C4732.85 180.015 4721.91 186.577 4709.18 191.879L4693.87 199.436H4619.7L4626.47 158.871L4674.78 159.269C4684.73 159.136 4693.28 156.883 4700.44 152.508C4707.73 148.134 4713.56 142.168 4717.93 134.612C4722.31 127.056 4725.03 118.572 4726.09 109.16C4727.15 101.471 4727.08 94.1139 4725.89 87.0881C4724.83 79.9296 4722.04 74.0306 4717.54 69.3908C4713.16 64.7511 4706.47 62.2324 4697.45 61.8347L4657.29 61.6359L4613.94 310.59H4566.81L4617.12 21.0714ZM4698.85 310.59L4667.63 180.545L4714.75 180.346L4749.15 307.806V310.59H4698.85ZM4944.82 270.225L4937.66 310.59H4815.57L4822.53 270.225H4944.82ZM4878.4 21.0714L4828.09 310.59H4780.97L4831.28 21.0714H4878.4ZM4950.78 141.572L4943.82 181.341H4838.04L4845 141.572H4950.78ZM4986.77 21.0714L4979.81 61.6359H4858.52L4865.68 21.0714H4986.77ZM5116.22 63.2266L5006.06 310.59H4955.55L5094.75 21.0714H5126.56L5116.22 63.2266ZM5128.15 310.59L5102.9 58.6532L5106.48 21.0714H5136.9L5175.87 310.59H5128.15ZM5147.64 203.015L5140.28 243.579H5009.24L5016.4 203.015H5147.64ZM5367.16 270.225L5360.01 310.59H5243.08L5250.04 270.225H5367.16ZM5305.92 21.0714L5255.61 310.59H5208.49L5258.79 21.0714H5305.92ZM5496.41 21.0714L5445.91 310.59H5398.98L5449.29 21.0714H5496.41ZM5646.54 21.0714L5596.23 310.59H5549.5L5599.81 21.0714H5646.54ZM5718.32 21.0714L5711.17 61.6359H5521.67L5528.82 21.0714H5718.32ZM5787.12 21.0714L5812.38 157.877L5885.55 21.0714H5939.64L5828.68 206.594L5810.79 310.59H5763.26L5782.35 201.623L5737.02 21.0714H5787.12Z"/>
</mask>
<path d="M4617.12 21.0714L4617.16 6.46494L4604.84 6.43512L4602.73 18.5708L4617.12 21.0714ZM4699.24 21.2703L4699.69 6.67065L4699.49 6.66429L4699.28 6.66379L4699.24 21.2703ZM4742.19 32.8033L4734.43 45.1734L4734.51 45.226L4734.59 45.2774L4742.19 32.8033ZM4767.45 62.2324L4753.98 67.9006L4754.01 67.9605L4754.04 68.0203L4767.45 62.2324ZM4773.41 106.774L4758.86 105.533L4758.86 105.538L4773.41 106.774ZM4763.67 144.157L4750.54 137.753L4763.67 144.157ZM4709.18 191.879L4703.57 178.397L4703.14 178.575L4702.72 178.781L4709.18 191.879ZM4693.87 199.436V214.042H4697.28L4700.34 212.534L4693.87 199.436ZM4619.7 199.436L4605.3 197.034L4602.46 214.042H4619.7V199.436ZM4626.47 158.871L4626.59 144.265L4614.11 144.162L4612.06 156.47L4626.47 158.871ZM4674.78 159.269L4674.66 173.875L4674.82 173.876L4674.98 173.874L4674.78 159.269ZM4700.44 152.508L4692.92 139.983L4692.87 140.014L4692.82 140.045L4700.44 152.508ZM4726.09 109.16L4711.62 107.164L4711.59 107.344L4711.57 107.524L4726.09 109.16ZM4725.89 87.0881L4711.44 89.2286L4711.46 89.3813L4711.49 89.5334L4725.89 87.0881ZM4717.54 69.3908L4706.91 79.4111L4706.98 79.4903L4707.06 79.5685L4717.54 69.3908ZM4697.45 61.8347L4698.1 47.2424L4697.81 47.2298L4697.53 47.2283L4697.45 61.8347ZM4657.29 61.6359L4657.36 47.0295L4645.01 46.9684L4642.9 59.1303L4657.29 61.6359ZM4613.94 310.59V325.197H4626.22L4628.33 313.096L4613.94 310.59ZM4566.81 310.59L4552.42 308.089L4549.45 325.197H4566.81V310.59ZM4698.85 310.59L4684.64 314L4687.33 325.197H4698.85V310.59ZM4667.63 180.545L4667.56 165.939L4649.12 166.017L4653.42 183.955L4667.63 180.545ZM4714.75 180.346L4728.85 176.54L4725.93 165.693L4714.69 165.74L4714.75 180.346ZM4749.15 307.806H4763.76V305.87L4763.25 304L4749.15 307.806ZM4749.15 310.59V325.197H4763.76V310.59H4749.15ZM4617.08 35.6779L4699.21 35.8768L4699.28 6.66379L4617.16 6.46494L4617.08 35.6779ZM4698.79 35.8699C4714.15 36.3424 4725.76 39.7314 4734.43 45.1734L4749.96 20.4332C4735.83 11.5584 4718.8 7.25873 4699.69 6.67065L4698.79 35.8699ZM4734.59 45.2774C4743.47 50.6866 4749.86 58.0993 4753.98 67.9006L4780.91 56.5642C4774.43 41.1785 4763.98 28.9717 4749.79 20.3292L4734.59 45.2774ZM4754.04 68.0203C4758.31 77.9128 4760.16 90.241 4758.86 105.533L4787.97 108.015C4789.58 89.1051 4787.46 71.739 4780.86 56.4445L4754.04 68.0203ZM4758.86 105.538C4757.79 118.087 4754.93 128.748 4750.54 137.753L4776.8 150.56C4783.01 137.825 4786.65 123.564 4787.97 108.009L4758.86 105.538ZM4750.54 137.753C4746.11 146.834 4740.12 154.578 4732.5 161.092L4751.49 183.295C4762.16 174.167 4770.62 163.22 4776.8 150.56L4750.54 137.753ZM4732.5 161.092C4724.67 167.79 4715.09 173.597 4703.57 178.397L4714.8 205.362C4728.74 199.557 4741.03 192.24 4751.49 183.295L4732.5 161.092ZM4702.72 178.781L4687.41 186.337L4700.34 212.534L4715.65 204.978L4702.72 178.781ZM4693.87 184.829H4619.7V214.042H4693.87V184.829ZM4634.11 201.837L4640.87 161.272L4612.06 156.47L4605.3 197.034L4634.11 201.837ZM4626.35 173.477L4674.66 173.875L4674.9 144.663L4626.59 144.265L4626.35 173.477ZM4674.98 173.874C4687.05 173.713 4698.27 170.948 4708.05 164.972L4692.82 140.045C4688.28 142.818 4682.4 144.559 4674.59 144.664L4674.98 173.874ZM4707.95 165.033C4717.42 159.35 4725 151.568 4730.58 141.93L4705.29 127.294C4702.12 132.768 4698.03 136.917 4692.92 139.983L4707.95 165.033ZM4730.58 141.93C4736.04 132.486 4739.33 122.039 4740.6 110.795L4711.57 107.524C4710.72 115.105 4708.57 121.626 4705.29 127.294L4730.58 141.93ZM4740.56 111.156C4741.8 102.123 4741.75 93.2615 4740.29 84.6427L4711.49 89.5334C4712.41 94.9663 4712.49 100.82 4711.62 107.164L4740.56 111.156ZM4740.34 84.9475C4738.88 75.1359 4734.9 66.3071 4728.01 59.2132L4707.06 79.5685C4709.18 81.754 4710.77 84.7234 4711.44 89.2286L4740.34 84.9475ZM4728.16 59.3706C4720.27 50.9942 4709.32 47.7376 4698.1 47.2424L4696.81 76.4271C4703.61 76.7272 4706.06 78.508 4706.91 79.4111L4728.16 59.3706ZM4697.53 47.2283L4657.36 47.0295L4657.21 76.2422L4697.38 76.4411L4697.53 47.2283ZM4642.9 59.1303L4599.55 308.084L4628.33 313.096L4671.68 64.1415L4642.9 59.1303ZM4613.94 295.984H4566.81V325.197H4613.94V295.984ZM4581.2 313.091L4631.51 23.5721L4602.73 18.5708L4552.42 308.089L4581.2 313.091ZM4713.05 307.18L4681.83 177.136L4653.42 183.955L4684.64 314L4713.05 307.18ZM4667.69 195.152L4714.81 194.953L4714.69 165.74L4667.56 165.939L4667.69 195.152ZM4700.65 184.152L4735.05 311.612L4763.25 304L4728.85 176.54L4700.65 184.152ZM4734.55 307.806V310.59H4763.76V307.806H4734.55ZM4749.15 295.984H4698.85V325.197H4749.15V295.984ZM4944.82 270.225L4959.2 272.775L4962.24 255.618H4944.82V270.225ZM4937.66 310.59V325.197H4949.9L4952.04 313.141L4937.66 310.59ZM4815.57 310.59L4801.17 308.108L4798.23 325.197H4815.57V310.59ZM4822.53 270.225V255.618H4810.22L4808.13 267.743L4822.53 270.225ZM4878.4 21.0714L4892.79 23.5721L4895.77 6.4649H4878.4V21.0714ZM4828.09 310.59V325.197H4840.38L4842.49 313.091L4828.09 310.59ZM4780.97 310.59L4766.58 308.089L4763.6 325.197H4780.97V310.59ZM4831.28 21.0714V6.4649H4818.99L4816.89 18.5708L4831.28 21.0714ZM4950.78 141.572L4965.17 144.09L4968.17 126.965H4950.78V141.572ZM4943.82 181.341V195.947H4956.09L4958.21 183.859L4943.82 181.341ZM4838.04 181.341L4823.65 178.823L4820.65 195.947H4838.04V181.341ZM4845 141.572V126.965H4832.72L4830.61 139.054L4845 141.572ZM4986.77 21.0714L5001.17 23.5414L5004.1 6.4649H4986.77V21.0714ZM4979.81 61.6359V76.2424H4992.13L4994.21 64.1058L4979.81 61.6359ZM4858.52 61.6359L4844.13 59.0975L4841.11 76.2424H4858.52V61.6359ZM4865.68 21.0714V6.4649H4853.42L4851.29 18.533L4865.68 21.0714ZM4930.43 267.674L4923.28 308.04L4952.04 313.141L4959.2 272.775L4930.43 267.674ZM4937.66 295.984H4815.57V325.197H4937.66V295.984ZM4829.96 313.072L4836.92 272.706L4808.13 267.743L4801.17 308.108L4829.96 313.072ZM4822.53 284.831H4944.82V255.618H4822.53V284.831ZM4864.01 18.5708L4813.7 308.089L4842.49 313.091L4892.79 23.5721L4864.01 18.5708ZM4828.09 295.984H4780.97V325.197H4828.09V295.984ZM4795.36 313.091L4845.67 23.5721L4816.89 18.5708L4766.58 308.089L4795.36 313.091ZM4831.28 35.678H4878.4V6.4649H4831.28V35.678ZM4936.39 139.054L4929.43 178.823L4958.21 183.859L4965.17 144.09L4936.39 139.054ZM4943.82 166.734H4838.04V195.947H4943.82V166.734ZM4852.42 183.859L4859.38 144.09L4830.61 139.054L4823.65 178.823L4852.42 183.859ZM4845 156.178H4950.78V126.965H4845V156.178ZM4972.38 18.6015L4965.42 59.1659L4994.21 64.1058L5001.17 23.5414L4972.38 18.6015ZM4979.81 47.0293H4858.52V76.2424H4979.81V47.0293ZM4872.9 64.1743L4880.06 23.6098L4851.29 18.533L4844.13 59.0975L4872.9 64.1743ZM4865.68 35.678H4986.77V6.4649H4865.68V35.678ZM5116.22 63.2266L5129.56 69.1689L5130.1 67.9752L5130.41 66.7062L5116.22 63.2266ZM5006.06 310.59V325.197H5015.55L5019.4 316.532L5006.06 310.59ZM4955.55 310.59L4942.39 304.261L4932.32 325.197H4955.55V310.59ZM5094.75 21.0714V6.4649H5085.56L5081.58 14.7425L5094.75 21.0714ZM5126.56 21.0714L5140.75 24.551L5145.18 6.4649H5126.56V21.0714ZM5128.15 310.59L5113.62 312.047L5114.94 325.197H5128.15V310.59ZM5102.9 58.6532L5088.36 57.2684L5088.22 58.6895L5088.36 60.11L5102.9 58.6532ZM5106.48 21.0714V6.4649H5093.2L5091.94 19.6866L5106.48 21.0714ZM5136.9 21.0714L5151.38 19.1228L5149.67 6.4649H5136.9V21.0714ZM5175.87 310.59V325.197H5192.58L5190.35 308.641L5175.87 310.59ZM5147.64 203.015L5162.01 205.622L5165.13 188.408H5147.64V203.015ZM5140.28 243.579V258.186H5152.48L5154.65 246.186L5140.28 243.579ZM5009.24 243.579L4994.86 241.041L4991.83 258.186H5009.24V243.579ZM5016.4 203.015V188.408H5004.15L5002.02 200.476L5016.4 203.015ZM5102.88 57.2844L4992.72 304.648L5019.4 316.532L5129.56 69.1689L5102.88 57.2844ZM5006.06 295.984H4955.55V325.197H5006.06V295.984ZM4968.72 316.919L5107.91 27.4004L5081.58 14.7425L4942.39 304.261L4968.72 316.919ZM5094.75 35.678H5126.56V6.4649H5094.75V35.678ZM5112.38 17.5919L5102.04 59.747L5130.41 66.7062L5140.75 24.551L5112.38 17.5919ZM5142.69 309.133L5117.43 57.1964L5088.36 60.11L5113.62 312.047L5142.69 309.133ZM5117.44 60.038L5121.02 22.4563L5091.94 19.6866L5088.36 57.2684L5117.44 60.038ZM5106.48 35.678H5136.9V6.4649H5106.48V35.678ZM5122.43 23.0201L5161.4 312.539L5190.35 308.641L5151.38 19.1228L5122.43 23.0201ZM5175.87 295.984H5128.15V325.197H5175.87V295.984ZM5133.27 200.408L5125.91 240.973L5154.65 246.186L5162.01 205.622L5133.27 200.408ZM5140.28 228.973H5009.24V258.186H5140.28V228.973ZM5023.63 246.118L5030.79 205.553L5002.02 200.476L4994.86 241.041L5023.63 246.118ZM5016.4 217.621H5147.64V188.408H5016.4V217.621ZM5367.16 270.225L5381.55 272.775L5384.59 255.618H5367.16V270.225ZM5360.01 310.59V325.197H5372.25L5374.39 313.141L5360.01 310.59ZM5243.08 310.59L5228.69 308.108L5225.74 325.197H5243.08V310.59ZM5250.04 270.225V255.618H5237.74L5235.65 267.743L5250.04 270.225ZM5305.92 21.0714L5320.31 23.5721L5323.28 6.4649H5305.92V21.0714ZM5255.61 310.59V325.197H5267.9L5270 313.091L5255.61 310.59ZM5208.49 310.59L5194.09 308.089L5191.12 325.197H5208.49V310.59ZM5258.79 21.0714V6.4649H5246.51L5244.4 18.5708L5258.79 21.0714ZM5352.78 267.674L5345.62 308.04L5374.39 313.141L5381.55 272.775L5352.78 267.674ZM5360.01 295.984H5243.08V325.197H5360.01V295.984ZM5257.48 313.072L5264.44 272.706L5235.65 267.743L5228.69 308.108L5257.48 313.072ZM5250.04 284.831H5367.16V255.618H5250.04V284.831ZM5291.53 18.5708L5241.22 308.089L5270 313.091L5320.31 23.5721L5291.53 18.5708ZM5255.61 295.984H5208.49V325.197H5255.61V295.984ZM5222.88 313.091L5273.18 23.5721L5244.4 18.5708L5194.09 308.089L5222.88 313.091ZM5258.79 35.678H5305.92V6.4649H5258.79V35.678ZM5496.41 21.0714L5510.8 23.5817L5513.79 6.4649H5496.41V21.0714ZM5445.91 310.59V325.197H5458.19L5460.3 313.1L5445.91 310.59ZM5398.98 310.59L5384.59 308.089L5381.62 325.197H5398.98V310.59ZM5449.29 21.0714V6.4649H5437L5434.9 18.5708L5449.29 21.0714ZM5482.02 18.5612L5431.52 308.08L5460.3 313.1L5510.8 23.5817L5482.02 18.5612ZM5445.91 295.984H5398.98V325.197H5445.91V295.984ZM5413.37 313.091L5463.68 23.5721L5434.9 18.5708L5384.59 308.089L5413.37 313.091ZM5449.29 35.678H5496.41V6.4649H5449.29V35.678ZM5646.54 21.0714L5660.93 23.5721L5663.9 6.4649H5646.54V21.0714ZM5596.23 310.59V325.197H5608.52L5610.62 313.091L5596.23 310.59ZM5549.5 310.59L5535.11 308.089L5532.14 325.197H5549.5V310.59ZM5599.81 21.0714V6.4649H5587.53L5585.42 18.5708L5599.81 21.0714ZM5718.32 21.0714L5732.71 23.6098L5735.73 6.4649H5718.32V21.0714ZM5711.17 61.6359V76.2424H5723.42L5725.55 64.1743L5711.17 61.6359ZM5521.67 61.6359L5507.28 59.0975L5504.26 76.2424H5521.67V61.6359ZM5528.82 21.0714V6.4649H5516.57L5514.44 18.533L5528.82 21.0714ZM5632.15 18.5708L5581.84 308.089L5610.62 313.091L5660.93 23.5721L5632.15 18.5708ZM5596.23 295.984H5549.5V325.197H5596.23V295.984ZM5563.9 313.091L5614.2 23.5721L5585.42 18.5708L5535.11 308.089L5563.9 313.091ZM5599.81 35.678H5646.54V6.4649H5599.81V35.678ZM5703.94 18.533L5696.78 59.0975L5725.55 64.1743L5732.71 23.6098L5703.94 18.533ZM5711.17 47.0293H5521.67V76.2424H5711.17V47.0293ZM5536.05 64.1743L5543.21 23.6098L5514.44 18.533L5507.28 59.0975L5536.05 64.1743ZM5528.82 35.678H5718.32V6.4649H5528.82V35.678ZM5787.12 21.0714L5801.49 18.42L5799.28 6.4649H5787.12V21.0714ZM5812.38 157.877L5798.01 160.528L5805.59 201.545L5825.26 164.766L5812.38 157.877ZM5885.55 21.0714V6.4649H5876.8L5872.67 14.1822L5885.55 21.0714ZM5939.64 21.0714L5952.17 28.5687L5965.39 6.4649H5939.64V21.0714ZM5828.68 206.594L5816.15 199.097L5814.75 201.434L5814.29 204.117L5828.68 206.594ZM5810.79 310.59V325.197H5823.1L5825.18 313.067L5810.79 310.59ZM5763.26 310.59L5748.88 308.07L5745.88 325.197H5763.26V310.59ZM5782.35 201.623L5796.74 204.143L5797.28 201.081L5796.52 198.066L5782.35 201.623ZM5737.02 21.0714V6.4649H5718.29L5722.85 24.6287L5737.02 21.0714ZM5772.76 23.7229L5798.01 160.528L5826.74 155.225L5801.49 18.42L5772.76 23.7229ZM5825.26 164.766L5898.43 27.9607L5872.67 14.1822L5799.5 150.988L5825.26 164.766ZM5885.55 35.678H5939.64V6.4649H5885.55V35.678ZM5927.1 13.5742L5816.15 199.097L5841.22 214.091L5952.17 28.5687L5927.1 13.5742ZM5814.29 204.117L5796.39 308.113L5825.18 313.067L5843.08 209.071L5814.29 204.117ZM5810.79 295.984H5763.26V325.197H5810.79V295.984ZM5777.65 313.111L5796.74 204.143L5767.97 199.102L5748.88 308.07L5777.65 313.111ZM5796.52 198.066L5751.18 17.5142L5722.85 24.6287L5768.19 205.18L5796.52 198.066ZM5737.02 35.678H5787.12V6.4649H5737.02V35.678Z" fill="#FFF429" mask="url(#path-13-outside-3_690_153)"/>
<mask id="mask4_690_153" style="mask-type:alpha" maskUnits="userSpaceOnUse" x="2993" y="0" width="1606" height="331">
<path d="M3099.06 326.361H3025.65L3036.46 266.841L3101.49 267.282C3119.86 267.282 3135 262.726 3146.9 253.614C3158.95 244.502 3168.28 232.672 3174.9 218.122C3181.66 203.573 3186.21 188.215 3188.56 172.049L3190.11 158.381C3191.43 148.681 3192.02 138.541 3191.87 127.959C3191.72 117.231 3190.18 107.237 3187.24 97.9786C3184.3 88.7198 3179.31 81.0776 3172.25 75.0521C3165.34 69.0266 3155.64 65.7933 3143.15 65.3524L3069.74 65.132L3080.1 5.39092L3145.58 5.61136C3167.03 6.05226 3185.85 10.4612 3202.01 18.8382C3218.18 27.0682 3231.48 38.311 3241.91 52.5665C3252.35 66.6751 3259.7 82.8412 3263.96 101.065C3268.22 119.288 3269.17 138.467 3266.82 158.601L3265.28 172.49C3262.49 193.946 3256.46 214.081 3247.2 232.892C3237.94 251.557 3226.04 267.943 3211.49 282.052C3196.94 296.013 3180.11 306.962 3161.01 314.898C3142.05 322.687 3121.4 326.508 3099.06 326.361ZM3124.86 5.39092L3069.08 326.361H2993.69L3049.24 5.39092H3124.86ZM3412.98 5.39092L3357.43 326.361H3282.03L3337.81 5.39092H3412.98ZM3694.27 154.854L3673.55 286.901C3663.7 298.365 3651.36 307.33 3636.51 313.796C3621.67 320.115 3606.09 324.524 3589.78 327.023C3573.61 329.668 3558.4 330.844 3544.15 330.55C3521.81 330.256 3502.77 325.847 3487.05 317.323C3471.47 308.799 3459.05 297.262 3449.79 282.713C3440.54 268.163 3434.29 251.63 3431.06 233.112C3427.82 214.595 3427.46 195.196 3429.95 174.915L3432.38 157.279C3435.17 136.41 3440.61 116.57 3448.69 97.7581C3456.92 78.7997 3467.58 61.9723 3480.66 47.2758C3493.74 32.5794 3509.24 21.0426 3527.17 12.6657C3545.25 4.28868 3565.68 0.32064 3588.46 0.761534C3612.12 1.05546 3632.18 5.53788 3648.64 14.2088C3665.24 22.7327 3678.1 35.0778 3687.22 51.2438C3696.33 67.4099 3701.62 87.1767 3703.09 110.544L3631 110.324C3630.27 100.624 3628.43 92.1 3625.49 84.7518C3622.7 77.2566 3618.22 71.378 3612.04 67.116C3605.87 62.854 3597.42 60.5026 3586.69 60.0617C3573.76 59.4739 3562.74 62.1927 3553.62 68.2183C3544.51 74.0968 3536.87 81.9594 3530.7 91.8061C3524.67 101.653 3519.9 112.308 3516.37 123.771C3512.99 135.234 3510.56 146.183 3509.09 156.617L3506.67 175.135C3505.49 184.982 3504.76 195.416 3504.46 206.438C3504.32 217.461 3505.57 227.822 3508.21 237.521C3510.86 247.221 3515.63 255.157 3522.54 261.33C3529.6 267.502 3539.66 270.735 3552.74 271.029C3558.47 271.176 3563.99 270.809 3569.28 269.927C3574.71 269.045 3579.93 267.649 3584.93 265.739C3590.07 263.681 3595 261.109 3599.7 258.023L3609.62 207.982H3557.37L3566.63 154.854H3694.27ZM3843.73 5.39092L3788.18 326.361H3712.79L3768.56 5.39092H3843.73ZM4040.37 5.39092L3984.82 326.361H3909.21L3964.98 5.39092H4040.37ZM4134.06 5.39092L4123.7 65.132H3862.91L3873.49 5.39092H4134.06ZM4258.83 76.5952L4140.67 326.361H4057.12L4227.31 5.39092H4280.66L4258.83 76.5952ZM4279.11 326.361L4246.49 68.8796L4248.25 5.39092H4298.51L4357.81 326.361H4279.11ZM4296.31 206.659L4285.73 266.4H4125.46L4136.04 206.659H4296.31ZM4598.1 266.841L4587.74 326.361H4429.9L4440.26 266.841H4598.1ZM4512.79 5.39092L4457.02 326.361H4381.62L4437.18 5.39092H4512.79Z" fill="white"/>
</mask>
<g mask="url(#mask4_690_153)">
<rect x="2920" y="-47.4913" width="1731.54" height="219.098" fill="#FFF429"/>
</g>
<mask id="mask5_690_153" style="mask-type:alpha" maskUnits="userSpaceOnUse" x="2943" y="0" width="1605" height="331">
<path d="M3048.61 326.36H2975.2L2986 266.84L3051.03 267.281C3069.4 267.281 3084.54 262.725 3096.44 253.613C3108.49 244.501 3117.83 232.671 3124.44 218.121C3131.2 203.572 3135.76 188.214 3138.11 172.048L3139.65 158.38C3140.97 148.68 3141.56 138.54 3141.41 127.958C3141.27 117.23 3139.72 107.236 3136.78 97.9776C3133.85 88.7188 3128.85 81.0767 3121.79 75.0511C3114.89 69.0256 3105.19 65.7924 3092.7 65.3515L3019.29 65.131L3029.65 5.38994L3095.12 5.61039C3116.58 6.05128 3135.39 10.4602 3151.55 18.8372C3167.72 27.0672 3181.02 38.31 3191.46 52.5656C3201.89 66.6741 3209.24 82.8402 3213.5 101.064C3217.76 119.287 3218.72 138.466 3216.37 158.6L3214.82 172.489C3212.03 193.945 3206.01 214.08 3196.75 232.891C3187.49 251.556 3175.58 267.942 3161.03 282.051C3146.48 296.012 3129.66 306.961 3110.55 314.897C3091.59 322.686 3070.94 326.507 3048.61 326.36ZM3074.4 5.38994L3018.63 326.36H2943.23L2998.79 5.38994H3074.4ZM3362.52 5.38994L3306.97 326.36H3231.58L3287.35 5.38994H3362.52ZM3643.81 154.853L3623.09 286.9C3613.24 298.364 3600.9 307.329 3586.06 313.795C3571.21 320.114 3555.63 324.523 3539.32 327.022C3523.15 329.667 3507.94 330.843 3493.69 330.549C3471.35 330.255 3452.32 325.846 3436.59 317.322C3421.01 308.798 3408.6 297.261 3399.34 282.712C3390.08 268.163 3383.83 251.629 3380.6 233.111C3377.37 214.594 3377 195.195 3379.5 174.914L3381.92 157.278C3384.71 136.409 3390.15 116.569 3398.23 97.7571C3406.46 78.7987 3417.12 61.9713 3430.2 47.2748C3443.28 32.5784 3458.78 21.0417 3476.71 12.6647C3494.79 4.28771 3515.22 0.319663 3538 0.760557C3561.66 1.05449 3581.72 5.5369 3598.18 14.2078C3614.79 22.7318 3627.65 35.0768 3636.76 51.2429C3645.87 67.409 3651.16 87.1757 3652.63 110.543L3580.54 110.323C3579.81 100.623 3577.97 92.099 3575.03 84.7508C3572.24 77.2556 3567.76 71.377 3561.59 67.115C3555.41 62.8531 3546.96 60.5016 3536.23 60.0607C3523.3 59.4729 3512.28 62.1917 3503.17 68.2173C3494.06 74.0959 3486.41 81.9585 3480.24 91.8051C3474.22 101.652 3469.44 112.307 3465.91 123.77C3462.53 135.233 3460.11 146.182 3458.64 156.616L3456.21 175.134C3455.04 184.981 3454.3 195.415 3454.01 206.437C3453.86 217.46 3455.11 227.821 3457.76 237.52C3460.4 247.22 3465.18 255.156 3472.08 261.329C3479.14 267.501 3489.21 270.734 3502.29 271.028C3508.02 271.175 3513.53 270.808 3518.82 269.926C3524.26 269.044 3529.47 267.648 3534.47 265.738C3539.61 263.68 3544.54 261.108 3549.24 258.022L3559.16 207.981H3506.92L3516.17 154.853H3643.81ZM3793.28 5.38994L3737.72 326.36H3662.33L3718.1 5.38994H3793.28ZM3989.91 5.38994L3934.36 326.36H3858.75L3914.52 5.38994H3989.91ZM4083.6 5.38994L4073.24 65.131H3812.45L3823.04 5.38994H4083.6ZM4208.38 76.5943L4090.22 326.36H4006.67L4176.85 5.38994H4230.2L4208.38 76.5943ZM4228.66 326.36L4196.03 68.8786L4197.8 5.38994H4248.06L4307.36 326.36H4228.66ZM4245.85 206.658L4235.27 266.399H4075.01L4085.59 206.658H4245.85ZM4547.64 266.84L4537.28 326.36H4379.44L4389.8 266.84H4547.64ZM4462.33 5.38994L4406.56 326.36H4331.17L4386.72 5.38994H4462.33Z" fill="white"/>
</mask>
<g mask="url(#mask5_690_153)">
<rect x="2869.54" y="171.607" width="1731.54" height="219.098" fill="#FFF429"/>
</g>
<mask id="path-19-outside-4_690_153" maskUnits="userSpaceOnUse" x="10449" y="5.59009" width="1417" height="320" fill="black">
<rect fill="white" x="10449" y="5.59009" width="1417" height="320"/>
<path d="M10516.8 21.0714L10599 21.2703C10616.2 21.8005 10630.5 25.6449 10641.9 32.8033C10653.4 39.8292 10661.9 49.6389 10667.2 62.2324C10672.6 74.8259 10674.6 89.673 10673.1 106.774C10671.9 120.825 10668.7 133.286 10663.4 144.157C10658.1 155.027 10650.9 164.373 10641.7 172.194C10632.6 180.015 10621.6 186.577 10608.9 191.879L10593.6 199.436H10519.4L10526.2 158.871L10574.5 159.269C10584.4 159.136 10593 156.883 10600.2 152.508C10607.4 148.134 10613.3 142.168 10617.6 134.612C10622 127.056 10624.7 118.572 10625.8 109.16C10626.9 101.471 10626.8 94.1139 10625.6 87.0881C10624.5 79.9296 10621.8 74.0306 10617.3 69.3908C10612.9 64.7511 10606.2 62.2324 10597.2 61.8347L10557 61.6359L10513.7 310.59H10466.5L10516.8 21.0714ZM10598.6 310.59L10567.3 180.545L10614.5 180.346L10648.9 307.806V310.59H10598.6ZM10844.5 270.225L10837.4 310.59H10715.3L10722.2 270.225H10844.5ZM10778.1 21.0714L10727.8 310.59H10680.7L10731 21.0714H10778.1ZM10850.5 141.572L10843.5 181.341H10737.8L10744.7 141.572H10850.5ZM10886.5 21.0714L10879.5 61.6359H10758.2L10765.4 21.0714H10886.5ZM11015.9 63.2266L10905.8 310.59H10855.3L10994.5 21.0714H11026.3L11015.9 63.2266ZM11027.9 310.59L11002.6 58.6532L11006.2 21.0714H11036.6L11075.6 310.59H11027.9ZM11047.4 203.015L11040 243.579H10909L10916.1 203.015H11047.4ZM11266.9 270.225L11259.7 310.59H11142.8L11149.8 270.225H11266.9ZM11205.6 21.0714L11155.3 310.59H11108.2L11158.5 21.0714H11205.6ZM11396.1 21.0714L11345.6 310.59H11298.7L11349 21.0714H11396.1ZM11546.3 21.0714L11495.9 310.59H11449.2L11499.5 21.0714H11546.3ZM11618 21.0714L11610.9 61.6359H11421.4L11428.5 21.0714H11618ZM11686.8 21.0714L11712.1 157.877L11785.3 21.0714H11839.4L11728.4 206.594L11710.5 310.59H11663L11682.1 201.623L11636.7 21.0714H11686.8Z"/>
</mask>
<path d="M10516.8 21.0714L10516.9 6.46494L10504.6 6.43512L10502.4 18.5708L10516.8 21.0714ZM10599 21.2703L10599.4 6.67065L10599.2 6.66429L10599 6.66379L10599 21.2703ZM10641.9 32.8033L10634.1 45.1734L10634.2 45.226L10634.3 45.2774L10641.9 32.8033ZM10667.2 62.2324L10653.7 67.9006L10653.7 67.9605L10653.8 68.0203L10667.2 62.2324ZM10673.1 106.774L10658.6 105.533L10658.6 105.538L10673.1 106.774ZM10663.4 144.157L10650.3 137.753L10663.4 144.157ZM10608.9 191.879L10603.3 178.397L10602.9 178.575L10602.4 178.781L10608.9 191.879ZM10593.6 199.436V214.042H10597L10600.1 212.534L10593.6 199.436ZM10519.4 199.436L10505 197.034L10502.2 214.042H10519.4V199.436ZM10526.2 158.871L10526.3 144.265L10513.8 144.162L10511.8 156.47L10526.2 158.871ZM10574.5 159.269L10574.4 173.875L10574.5 173.876L10574.7 173.874L10574.5 159.269ZM10600.2 152.508L10592.6 139.983L10592.6 140.014L10592.5 140.045L10600.2 152.508ZM10625.8 109.16L10611.3 107.164L10611.3 107.344L10611.3 107.524L10625.8 109.16ZM10625.6 87.0881L10611.2 89.2286L10611.2 89.3813L10611.2 89.5334L10625.6 87.0881ZM10617.3 69.3908L10606.6 79.4111L10606.7 79.4903L10606.8 79.5685L10617.3 69.3908ZM10597.2 61.8347L10597.8 47.2424L10597.5 47.2298L10597.2 47.2283L10597.2 61.8347ZM10557 61.6359L10557.1 47.0295L10544.7 46.9684L10542.6 59.1303L10557 61.6359ZM10513.7 310.59V325.197H10525.9L10528 313.096L10513.7 310.59ZM10466.5 310.59L10452.1 308.089L10449.2 325.197H10466.5V310.59ZM10598.6 310.59L10584.4 314L10587 325.197H10598.6V310.59ZM10567.3 180.545L10567.3 165.939L10548.8 166.017L10553.1 183.955L10567.3 180.545ZM10614.5 180.346L10628.6 176.54L10625.6 165.693L10614.4 165.74L10614.5 180.346ZM10648.9 307.806H10663.5V305.87L10663 304L10648.9 307.806ZM10648.9 310.59V325.197H10663.5V310.59H10648.9ZM10516.8 35.6779L10598.9 35.8768L10599 6.66379L10516.9 6.46494L10516.8 35.6779ZM10598.5 35.8699C10613.9 36.3424 10625.5 39.7314 10634.1 45.1734L10649.7 20.4332C10635.5 11.5584 10618.5 7.25873 10599.4 6.67065L10598.5 35.8699ZM10634.3 45.2774C10643.2 50.6866 10649.6 58.0993 10653.7 67.9006L10680.6 56.5642C10674.1 41.1785 10663.7 28.9717 10649.5 20.3292L10634.3 45.2774ZM10653.8 68.0203C10658 77.9128 10659.9 90.241 10658.6 105.533L10687.7 108.015C10689.3 89.1051 10687.2 71.739 10680.6 56.4445L10653.8 68.0203ZM10658.6 105.538C10657.5 118.087 10654.6 128.748 10650.3 137.753L10676.5 150.56C10682.7 137.825 10686.4 123.564 10687.7 108.009L10658.6 105.538ZM10650.3 137.753C10645.8 146.834 10639.8 154.578 10632.2 161.092L10651.2 183.295C10661.9 174.167 10670.3 163.22 10676.5 150.56L10650.3 137.753ZM10632.2 161.092C10624.4 167.79 10614.8 173.597 10603.3 178.397L10614.5 205.362C10628.5 199.557 10640.7 192.24 10651.2 183.295L10632.2 161.092ZM10602.4 178.781L10587.1 186.337L10600.1 212.534L10615.4 204.978L10602.4 178.781ZM10593.6 184.829H10519.4V214.042H10593.6V184.829ZM10533.8 201.837L10540.6 161.272L10511.8 156.47L10505 197.034L10533.8 201.837ZM10526.1 173.477L10574.4 173.875L10574.6 144.663L10526.3 144.265L10526.1 173.477ZM10574.7 173.874C10586.8 173.713 10598 170.948 10607.8 164.972L10592.5 140.045C10588 142.818 10582.1 144.559 10574.3 144.664L10574.7 173.874ZM10607.7 165.033C10617.1 159.35 10624.7 151.568 10630.3 141.93L10605 127.294C10601.8 132.768 10597.7 136.917 10592.6 139.983L10607.7 165.033ZM10630.3 141.93C10635.8 132.486 10639.1 122.039 10640.3 110.795L10611.3 107.524C10610.4 115.105 10608.3 121.626 10605 127.294L10630.3 141.93ZM10640.3 111.156C10641.5 102.123 10641.5 93.2615 10640 84.6427L10611.2 89.5334C10612.1 94.9663 10612.2 100.82 10611.3 107.164L10640.3 111.156ZM10640.1 84.9475C10638.6 75.1359 10634.6 66.3071 10627.7 59.2132L10606.8 79.5685C10608.9 81.754 10610.5 84.7234 10611.2 89.2286L10640.1 84.9475ZM10627.9 59.3706C10620 50.9942 10609 47.7376 10597.8 47.2424L10596.5 76.4271C10603.3 76.7272 10605.8 78.508 10606.6 79.4111L10627.9 59.3706ZM10597.2 47.2283L10557.1 47.0295L10556.9 76.2422L10597.1 76.4411L10597.2 47.2283ZM10542.6 59.1303L10499.3 308.084L10528 313.096L10571.4 64.1415L10542.6 59.1303ZM10513.7 295.984H10466.5V325.197H10513.7V295.984ZM10480.9 313.091L10531.2 23.5721L10502.4 18.5708L10452.1 308.089L10480.9 313.091ZM10612.8 307.18L10581.5 177.136L10553.1 183.955L10584.4 314L10612.8 307.18ZM10567.4 195.152L10614.5 194.953L10614.4 165.74L10567.3 165.939L10567.4 195.152ZM10600.4 184.152L10634.8 311.612L10663 304L10628.6 176.54L10600.4 184.152ZM10634.3 307.806V310.59H10663.5V307.806H10634.3ZM10648.9 295.984H10598.6V325.197H10648.9V295.984ZM10844.5 270.225L10858.9 272.775L10862 255.618H10844.5V270.225ZM10837.4 310.59V325.197H10849.6L10851.8 313.141L10837.4 310.59ZM10715.3 310.59L10700.9 308.108L10697.9 325.197H10715.3V310.59ZM10722.2 270.225V255.618H10709.9L10707.8 267.743L10722.2 270.225ZM10778.1 21.0714L10792.5 23.5721L10795.5 6.4649H10778.1V21.0714ZM10727.8 310.59V325.197H10740.1L10742.2 313.091L10727.8 310.59ZM10680.7 310.59L10666.3 308.089L10663.3 325.197H10680.7V310.59ZM10731 21.0714V6.4649H10718.7L10716.6 18.5708L10731 21.0714ZM10850.5 141.572L10864.9 144.09L10867.9 126.965H10850.5V141.572ZM10843.5 181.341V195.947H10855.8L10857.9 183.859L10843.5 181.341ZM10737.8 181.341L10723.4 178.823L10720.4 195.947H10737.8V181.341ZM10744.7 141.572V126.965H10732.4L10730.3 139.054L10744.7 141.572ZM10886.5 21.0714L10900.9 23.5414L10903.8 6.4649H10886.5V21.0714ZM10879.5 61.6359V76.2424H10891.8L10893.9 64.1058L10879.5 61.6359ZM10758.2 61.6359L10743.8 59.0975L10740.8 76.2424H10758.2V61.6359ZM10765.4 21.0714V6.4649H10753.1L10751 18.533L10765.4 21.0714ZM10830.2 267.674L10823 308.04L10851.8 313.141L10858.9 272.775L10830.2 267.674ZM10837.4 295.984H10715.3V325.197H10837.4V295.984ZM10729.7 313.072L10736.6 272.706L10707.8 267.743L10700.9 308.108L10729.7 313.072ZM10722.2 284.831H10844.5V255.618H10722.2V284.831ZM10763.7 18.5708L10713.4 308.089L10742.2 313.091L10792.5 23.5721L10763.7 18.5708ZM10727.8 295.984H10680.7V325.197H10727.8V295.984ZM10695.1 313.091L10745.4 23.5721L10716.6 18.5708L10666.3 308.089L10695.1 313.091ZM10731 35.678H10778.1V6.4649H10731V35.678ZM10836.1 139.054L10829.2 178.823L10857.9 183.859L10864.9 144.09L10836.1 139.054ZM10843.5 166.734H10737.8V195.947H10843.5V166.734ZM10752.1 183.859L10759.1 144.09L10730.3 139.054L10723.4 178.823L10752.1 183.859ZM10744.7 156.178H10850.5V126.965H10744.7V156.178ZM10872.1 18.6015L10865.1 59.1659L10893.9 64.1058L10900.9 23.5414L10872.1 18.6015ZM10879.5 47.0293H10758.2V76.2424H10879.5V47.0293ZM10772.6 64.1743L10779.8 23.6098L10751 18.533L10743.8 59.0975L10772.6 64.1743ZM10765.4 35.678H10886.5V6.4649H10765.4V35.678ZM11015.9 63.2266L11029.3 69.1689L11029.8 67.9752L11030.1 66.7062L11015.9 63.2266ZM10905.8 310.59V325.197H10915.3L10919.1 316.532L10905.8 310.59ZM10855.3 310.59L10842.1 304.261L10832 325.197H10855.3V310.59ZM10994.5 21.0714V6.4649H10985.3L10981.3 14.7425L10994.5 21.0714ZM11026.3 21.0714L11040.5 24.551L11044.9 6.4649H11026.3V21.0714ZM11027.9 310.59L11013.3 312.047L11014.7 325.197H11027.9V310.59ZM11002.6 58.6532L10988.1 57.2684L10987.9 58.6895L10988.1 60.11L11002.6 58.6532ZM11006.2 21.0714V6.4649H10992.9L10991.7 19.6866L11006.2 21.0714ZM11036.6 21.0714L11051.1 19.1228L11049.4 6.4649H11036.6V21.0714ZM11075.6 310.59V325.197H11092.3L11090.1 308.641L11075.6 310.59ZM11047.4 203.015L11061.7 205.622L11064.8 188.408H11047.4V203.015ZM11040 243.579V258.186H11052.2L11054.4 246.186L11040 243.579ZM10909 243.579L10894.6 241.041L10891.5 258.186H10909V243.579ZM10916.1 203.015V188.408H10903.9L10901.7 200.476L10916.1 203.015ZM11002.6 57.2844L10892.4 304.648L10919.1 316.532L11029.3 69.1689L11002.6 57.2844ZM10905.8 295.984H10855.3V325.197H10905.8V295.984ZM10868.4 316.919L11007.6 27.4004L10981.3 14.7425L10842.1 304.261L10868.4 316.919ZM10994.5 35.678H11026.3V6.4649H10994.5V35.678ZM11012.1 17.5919L11001.8 59.747L11030.1 66.7062L11040.5 24.551L11012.1 17.5919ZM11042.4 309.133L11017.1 57.1964L10988.1 60.11L11013.3 312.047L11042.4 309.133ZM11017.2 60.038L11020.7 22.4563L10991.7 19.6866L10988.1 57.2684L11017.2 60.038ZM11006.2 35.678H11036.6V6.4649H11006.2V35.678ZM11022.1 23.0201L11061.1 312.539L11090.1 308.641L11051.1 19.1228L11022.1 23.0201ZM11075.6 295.984H11027.9V325.197H11075.6V295.984ZM11033 200.408L11025.6 240.973L11054.4 246.186L11061.7 205.622L11033 200.408ZM11040 228.973H10909V258.186H11040V228.973ZM10923.3 246.118L10930.5 205.553L10901.7 200.476L10894.6 241.041L10923.3 246.118ZM10916.1 217.621H11047.4V188.408H10916.1V217.621ZM11266.9 270.225L11281.3 272.775L11284.3 255.618H11266.9V270.225ZM11259.7 310.59V325.197H11272L11274.1 313.141L11259.7 310.59ZM11142.8 310.59L11128.4 308.108L11125.5 325.197H11142.8V310.59ZM11149.8 270.225V255.618H11137.5L11135.4 267.743L11149.8 270.225ZM11205.6 21.0714L11220 23.5721L11223 6.4649H11205.6V21.0714ZM11155.3 310.59V325.197H11167.6L11169.7 313.091L11155.3 310.59ZM11108.2 310.59L11093.8 308.089L11090.8 325.197H11108.2V310.59ZM11158.5 21.0714V6.4649H11146.2L11144.1 18.5708L11158.5 21.0714ZM11252.5 267.674L11245.3 308.04L11274.1 313.141L11281.3 272.775L11252.5 267.674ZM11259.7 295.984H11142.8V325.197H11259.7V295.984ZM11157.2 313.072L11164.2 272.706L11135.4 267.743L11128.4 308.108L11157.2 313.072ZM11149.8 284.831H11266.9V255.618H11149.8V284.831ZM11191.2 18.5708L11140.9 308.089L11169.7 313.091L11220 23.5721L11191.2 18.5708ZM11155.3 295.984H11108.2V325.197H11155.3V295.984ZM11122.6 313.091L11172.9 23.5721L11144.1 18.5708L11093.8 308.089L11122.6 313.091ZM11158.5 35.678H11205.6V6.4649H11158.5V35.678ZM11396.1 21.0714L11410.5 23.5817L11413.5 6.4649H11396.1V21.0714ZM11345.6 310.59V325.197H11357.9L11360 313.1L11345.6 310.59ZM11298.7 310.59L11284.3 308.089L11281.3 325.197H11298.7V310.59ZM11349 21.0714V6.4649H11336.7L11334.6 18.5708L11349 21.0714ZM11381.7 18.5612L11331.2 308.08L11360 313.1L11410.5 23.5817L11381.7 18.5612ZM11345.6 295.984H11298.7V325.197H11345.6V295.984ZM11313.1 313.091L11363.4 23.5721L11334.6 18.5708L11284.3 308.089L11313.1 313.091ZM11349 35.678H11396.1V6.4649H11349V35.678ZM11546.3 21.0714L11560.6 23.5721L11563.6 6.4649H11546.3V21.0714ZM11495.9 310.59V325.197H11508.2L11510.3 313.091L11495.9 310.59ZM11449.2 310.59L11434.8 308.089L11431.9 325.197H11449.2V310.59ZM11499.5 21.0714V6.4649H11487.2L11485.1 18.5708L11499.5 21.0714ZM11618 21.0714L11632.4 23.6098L11635.5 6.4649H11618V21.0714ZM11610.9 61.6359V76.2424H11623.1L11625.3 64.1743L11610.9 61.6359ZM11421.4 61.6359L11407 59.0975L11404 76.2424H11421.4V61.6359ZM11428.5 21.0714V6.4649H11416.3L11414.2 18.533L11428.5 21.0714ZM11531.9 18.5708L11481.6 308.089L11510.3 313.091L11560.6 23.5721L11531.9 18.5708ZM11495.9 295.984H11449.2V325.197H11495.9V295.984ZM11463.6 313.091L11513.9 23.5721L11485.1 18.5708L11434.8 308.089L11463.6 313.091ZM11499.5 35.678H11546.3V6.4649H11499.5V35.678ZM11603.7 18.533L11596.5 59.0975L11625.3 64.1743L11632.4 23.6098L11603.7 18.533ZM11610.9 47.0293H11421.4V76.2424H11610.9V47.0293ZM11435.8 64.1743L11442.9 23.6098L11414.2 18.533L11407 59.0975L11435.8 64.1743ZM11428.5 35.678H11618V6.4649H11428.5V35.678ZM11686.8 21.0714L11701.2 18.42L11699 6.4649H11686.8V21.0714ZM11712.1 157.877L11697.7 160.528L11705.3 201.545L11725 164.766L11712.1 157.877ZM11785.3 21.0714V6.4649H11776.5L11772.4 14.1822L11785.3 21.0714ZM11839.4 21.0714L11851.9 28.5687L11865.1 6.4649H11839.4V21.0714ZM11728.4 206.594L11715.9 199.097L11714.5 201.434L11714 204.117L11728.4 206.594ZM11710.5 310.59V325.197H11722.8L11724.9 313.067L11710.5 310.59ZM11663 310.59L11648.6 308.07L11645.6 325.197H11663V310.59ZM11682.1 201.623L11696.5 204.143L11697 201.081L11696.2 198.066L11682.1 201.623ZM11636.7 21.0714V6.4649H11618L11622.6 24.6287L11636.7 21.0714ZM11672.5 23.7229L11697.7 160.528L11726.5 155.225L11701.2 18.42L11672.5 23.7229ZM11725 164.766L11798.1 27.9607L11772.4 14.1822L11699.2 150.988L11725 164.766ZM11785.3 35.678H11839.4V6.4649H11785.3V35.678ZM11826.8 13.5742L11715.9 199.097L11740.9 214.091L11851.9 28.5687L11826.8 13.5742ZM11714 204.117L11696.1 308.113L11724.9 313.067L11742.8 209.071L11714 204.117ZM11710.5 295.984H11663V325.197H11710.5V295.984ZM11677.4 313.111L11696.5 204.143L11667.7 199.102L11648.6 308.07L11677.4 313.111ZM11696.2 198.066L11650.9 17.5142L11622.6 24.6287L11667.9 205.18L11696.2 198.066ZM11636.7 35.678H11686.8V6.4649H11636.7V35.678Z" fill="#FFF429" mask="url(#path-19-outside-4_690_153)"/>
<mask id="mask6_690_153" style="mask-type:alpha" maskUnits="userSpaceOnUse" x="8893" y="0" width="1605" height="331">
<path d="M8998.78 326.361H8925.37L8936.18 266.84L9001.21 267.281C9019.58 267.281 9034.72 262.725 9046.62 253.613C9058.67 244.502 9068 232.671 9074.62 218.121C9081.38 203.572 9085.93 188.214 9088.28 172.048L9089.83 158.38C9091.15 148.681 9091.74 138.54 9091.59 127.959C9091.44 117.23 9089.9 107.237 9086.96 97.9779C9084.02 88.7191 9079.03 81.077 9071.97 75.0514C9065.06 69.0259 9055.36 65.7927 9042.87 65.3518L8969.46 65.1313L8979.82 5.39024L9045.3 5.61069C9066.75 6.05159 9085.57 10.4605 9101.73 18.8375C9117.9 27.0675 9131.2 38.3103 9141.63 52.5659C9152.07 66.6745 9159.42 82.8406 9163.68 101.064C9167.94 119.288 9168.89 138.467 9166.54 158.601L9165 172.489C9162.21 193.946 9156.18 214.08 9146.92 232.891C9137.66 251.556 9125.76 267.942 9111.21 282.051C9096.66 296.013 9079.83 306.961 9060.73 314.898C9041.77 322.687 9021.12 326.508 8998.78 326.361ZM9024.58 5.39024L8968.8 326.361H8893.41L8948.96 5.39024H9024.58ZM9312.7 5.39024L9257.15 326.361H9181.75L9237.53 5.39024H9312.7ZM9593.99 154.853L9573.27 286.901C9563.42 298.364 9551.08 307.329 9536.23 313.795C9521.39 320.115 9505.81 324.524 9489.5 327.022C9473.33 329.667 9458.12 330.843 9443.87 330.549C9421.53 330.255 9402.49 325.846 9386.77 317.322C9371.19 308.799 9358.77 297.262 9349.51 282.712C9340.26 268.163 9334.01 251.629 9330.78 233.112C9327.54 214.594 9327.18 195.195 9329.67 174.914L9332.1 157.278C9334.89 136.409 9340.33 116.569 9348.41 97.7575C9356.64 78.799 9367.3 61.9716 9380.38 47.2751C9393.46 32.5787 9408.96 21.042 9426.89 12.665C9444.97 4.28801 9465.4 0.319969 9488.17 0.760862C9511.84 1.05479 9531.9 5.53721 9548.36 14.2081C9564.96 22.7321 9577.82 35.0771 9586.93 51.2432C9596.05 67.4093 9601.34 87.176 9602.81 110.543L9530.72 110.323C9529.99 100.623 9528.15 92.0993 9525.21 84.7511C9522.42 77.2559 9517.94 71.3773 9511.76 67.1153C9505.59 62.8534 9497.14 60.5019 9486.41 60.0611C9473.48 59.4732 9462.46 62.192 9453.34 68.2176C9444.23 74.0962 9436.59 81.9588 9430.42 91.8054C9424.39 101.652 9419.62 112.307 9416.09 123.77C9412.71 135.233 9410.28 146.182 9408.81 156.617L9406.39 175.134C9405.21 184.981 9404.48 195.415 9404.18 206.438C9404.04 217.46 9405.29 227.821 9407.93 237.521C9410.58 247.22 9415.35 255.156 9422.26 261.329C9429.32 267.501 9439.38 270.735 9452.46 271.029C9458.19 271.176 9463.71 270.808 9469 269.926C9474.43 269.045 9479.65 267.648 9484.65 265.738C9489.79 263.68 9494.71 261.109 9499.42 258.022L9509.34 207.981H9457.09L9466.35 154.853H9593.99ZM9743.45 5.39024L9687.9 326.361H9612.51L9668.28 5.39024H9743.45ZM9940.09 5.39024L9884.54 326.361H9808.92L9864.7 5.39024H9940.09ZM10033.8 5.39024L10023.4 65.1313H9762.63L9773.21 5.39024H10033.8ZM10158.6 76.5946L10040.4 326.361H9956.84L10127 5.39024H10180.4L10158.6 76.5946ZM10178.8 326.361L10146.2 68.8789L10148 5.39024H10198.2L10257.5 326.361H10178.8ZM10196 206.658L10185.4 266.399H10025.2L10035.8 206.658H10196ZM10497.8 266.84L10487.5 326.361H10329.6L10340 266.84H10497.8ZM10412.5 5.39024L10356.7 326.361H10281.3L10336.9 5.39024H10412.5Z" fill="white"/>
</mask>
<g mask="url(#mask6_690_153)">
<rect x="8819.71" y="-47.4912" width="1731.54" height="219.098" fill="#FFF429"/>
</g>
<mask id="mask7_690_153" style="mask-type:alpha" maskUnits="userSpaceOnUse" x="8842" y="0" width="1606" height="331">
<path d="M8948.32 326.361H8874.92L8885.72 266.84L8950.75 267.281C8969.12 267.281 8984.26 262.725 8996.16 253.613C9008.21 244.501 9017.54 232.671 9024.16 218.121C9030.92 203.572 9035.47 188.214 9037.83 172.048L9039.37 158.38C9040.69 148.68 9041.28 138.54 9041.13 127.958C9040.99 117.23 9039.44 107.236 9036.5 97.9777C9033.56 88.7189 9028.57 81.0767 9021.51 75.0512C9014.6 69.0256 9004.91 65.7924 8992.41 65.3515L8919 65.1311L8929.37 5.39L8994.84 5.61045C9016.3 6.05134 9035.11 10.4603 9051.27 18.8373C9067.44 27.0673 9080.74 38.3101 9091.17 52.5656C9101.61 66.6742 9108.96 82.8403 9113.22 101.064C9117.48 119.288 9118.44 138.466 9116.08 158.601L9114.54 172.489C9111.75 193.945 9105.72 214.08 9096.46 232.891C9087.21 251.556 9075.3 267.942 9060.75 282.051C9046.2 296.012 9029.37 306.961 9010.27 314.897C8991.31 322.686 8970.66 326.507 8948.32 326.361ZM8974.12 5.39L8918.34 326.361H8842.95L8898.5 5.39H8974.12ZM9262.24 5.39L9206.69 326.361H9131.29L9187.07 5.39H9262.24ZM9543.53 154.853L9522.81 286.901C9512.96 298.364 9500.62 307.329 9485.77 313.795C9470.93 320.115 9455.35 324.523 9439.04 327.022C9422.87 329.667 9407.66 330.843 9393.41 330.549C9371.07 330.255 9352.04 325.846 9336.31 317.322C9320.73 308.798 9308.31 297.262 9299.05 282.712C9289.8 268.163 9283.55 251.629 9280.32 233.112C9277.08 214.594 9276.72 195.195 9279.21 174.914L9281.64 157.278C9284.43 136.409 9289.87 116.569 9297.95 97.7572C9306.18 78.7988 9316.84 61.9713 9329.92 47.2749C9343 32.5784 9358.5 21.0417 9376.43 12.6647C9394.51 4.28777 9414.94 0.319725 9437.72 0.760618C9461.38 1.05455 9481.44 5.53697 9497.9 14.2079C9514.5 22.7318 9527.36 35.0768 9536.48 51.2429C9545.59 67.409 9550.88 87.1758 9552.35 110.543L9480.26 110.323C9479.53 100.623 9477.69 92.0991 9474.75 84.7508C9471.96 77.2557 9467.48 71.3771 9461.3 67.1151C9455.13 62.8531 9446.68 60.5017 9435.95 60.0608C9423.02 59.4729 9412 62.1918 9402.89 68.2173C9393.77 74.0959 9386.13 81.9585 9379.96 91.8051C9373.93 101.652 9369.16 112.307 9365.63 123.77C9362.25 135.233 9359.82 146.182 9358.35 156.617L9355.93 175.134C9354.75 184.981 9354.02 195.415 9353.73 206.437C9353.58 217.46 9354.83 227.821 9357.47 237.52C9360.12 247.22 9364.89 255.156 9371.8 261.329C9378.86 267.501 9388.92 270.734 9402 271.028C9407.74 271.175 9413.25 270.808 9418.54 269.926C9423.97 269.044 9429.19 267.648 9434.19 265.738C9439.33 263.68 9444.26 261.108 9448.96 258.022L9458.88 207.981H9406.63L9415.89 154.853H9543.53ZM9692.99 5.39L9637.44 326.361H9562.05L9617.82 5.39H9692.99ZM9889.63 5.39L9834.08 326.361H9758.47L9814.24 5.39H9889.63ZM9983.32 5.39L9972.96 65.1311H9712.17L9722.75 5.39H9983.32ZM10108.1 76.5943L9989.94 326.361H9906.39L10076.6 5.39H10129.9L10108.1 76.5943ZM10128.4 326.361L10095.7 68.8787L10097.5 5.39H10147.8L10207.1 326.361H10128.4ZM10145.6 206.658L10135 266.399H9974.72L9985.31 206.658H10145.6ZM10447.4 266.84L10437 326.361H10279.2L10289.5 266.84H10447.4ZM10362 5.39L10306.3 326.361H10230.9L10286.4 5.39H10362Z" fill="white"/>
</mask>
<g mask="url(#mask7_690_153)">
<rect x="8769.26" y="171.607" width="1731.54" height="219.098" fill="#FFF429"/>
</g>
</svg>
