<svg width="1156" height="252" viewBox="0 0 1156 252" fill="none" xmlns="http://www.w3.org/2000/svg">
<path d="M1155.67 230.368L1152.65 248H1029.56L1032.41 230.368H1155.67ZM1077.92 3.49597L1035.61 248H1015.29L1057.6 3.49597H1077.92Z" fill="#FFF429"/>
<path d="M924.437 19.1133L803.193 248H781.362L913.186 3.6639H928.467L924.437 19.1133ZM959.702 248L916.88 17.2661L918.224 3.49597H932.498L980.021 248H959.702ZM959.702 161.685L956.679 179.485H830.565L833.42 161.685H959.702Z" fill="#FFF429"/>
<path d="M742.906 3.49597L700.756 248H680.773L723.091 3.49597H742.906ZM824.184 3.49597L821.329 21.2964H638.791L641.813 3.49597H824.184Z" fill="#FFF429"/>
<path d="M604.029 3.49597L561.711 248H541.392L583.71 3.49597H604.029Z" fill="#FFF429"/>
<path d="M500.081 131.793L485.639 218.78C479.034 227.177 470.806 233.782 460.954 238.596C451.214 243.298 440.858 246.601 429.887 248.504C419.028 250.407 408.56 251.359 398.484 251.359C382.923 251.247 369.769 248 359.021 241.619C348.274 235.125 339.765 226.505 333.496 215.758C327.227 205.01 323.084 193.087 321.069 179.989C319.166 166.779 319.222 153.288 321.237 139.518L325.939 109.963C328.29 95.6328 332.32 81.8627 338.03 68.6523C343.852 55.4419 351.352 43.6869 360.532 33.3872C369.713 22.9757 380.572 14.8032 393.111 8.86968C405.649 2.9362 419.811 0.0254347 435.597 0.137387C450.486 0.24934 463.473 3.21608 474.556 9.0376C485.639 14.8591 494.26 23.1436 500.417 33.891C506.686 44.6385 510.045 57.457 510.493 72.3467H490.509C490.061 61.0395 487.598 51.3556 483.12 43.295C478.754 35.2345 472.485 29.0211 464.312 24.655C456.252 20.2888 446.456 18.0498 434.925 17.9378C421.938 17.7139 410.351 20.1769 400.164 25.3267C390.088 30.4765 381.412 37.4735 374.135 46.3178C366.858 55.162 360.924 65.0698 356.334 76.0411C351.744 87.0125 348.442 98.2077 346.426 109.627L341.557 139.686C339.877 150.322 339.541 161.125 340.549 172.096C341.557 183.068 344.187 193.199 348.442 202.491C352.808 211.671 359.077 219.116 367.25 224.826C375.534 230.535 386.114 233.446 398.988 233.558C406.713 233.67 414.605 233.11 422.666 231.879C430.727 230.535 438.395 228.352 445.672 225.33C453.061 222.195 459.722 217.885 465.656 212.399L476.907 149.426H413.262L416.117 131.793H500.081Z" fill="#FFF429"/>
<path d="M286.644 3.49597L244.326 248H224.007L266.325 3.49597H286.644Z" fill="#FFF429"/>
<path d="M67.3294 248H12.2488L15.4394 230.368H67.8331C85.8575 230.256 101.867 226.001 115.861 217.605C129.855 209.097 141.274 197.789 150.118 183.683C159.074 169.577 165.008 154.016 167.919 136.999L171.613 114.161C173.404 102.518 173.516 91.2667 171.949 80.4073C170.493 69.4359 167.191 59.5841 162.041 50.8518C157.003 42.0076 150.006 34.9546 141.05 29.6928C132.206 24.4311 121.234 21.6323 108.136 21.2964H50.5365L53.5592 3.49597H108.472C124.033 3.83183 137.524 7.07845 148.943 13.2358C160.362 19.2813 169.542 27.5098 176.483 37.9213C183.536 48.221 188.294 59.976 190.757 73.1863C193.332 86.3967 193.612 100.223 191.597 114.665L188.07 136.999C185.607 152.449 180.961 166.891 174.132 180.325C167.415 193.759 158.794 205.514 148.271 215.59C137.859 225.666 125.824 233.558 112.166 239.268C98.5081 244.977 83.5625 247.888 67.3294 248ZM63.6349 3.49597L21.3169 248H0.997559L43.3156 3.49597H63.6349Z" fill="#FFF429"/>
</svg>
