<svg width="1224" height="253" viewBox="0 0 1224 253" fill="none" xmlns="http://www.w3.org/2000/svg">
<path d="M1223.13 203.659L1215.23 249H1095L1102.89 203.659H1223.13ZM1158.14 4.49597L1115.65 249H1058.22L1100.54 4.49597H1158.14Z" fill="#FFF429"/>
<path d="M964.683 58.7369L874.674 249H811.029L940.67 4.49597H981.308L964.683 58.7369ZM980.133 249L955.279 52.8594L956.623 4.49597H994.911L1040.08 249H980.133ZM993.231 157.815L985.171 203.323H863.087L871.147 157.815H993.231Z" fill="#FFF429"/>
<path d="M798.266 4.49597L755.948 249H698.349L740.835 4.49597H798.266ZM869.636 4.49597L861.743 50.0046H663.084L671.145 4.49597H869.636Z" fill="#FFF429"/>
<path d="M648.474 4.49597L606.156 249H548.725L591.211 4.49597H648.474Z" fill="#FFF429"/>
<path d="M534.619 118.352L518.833 218.941C511.333 227.673 501.929 234.502 490.621 239.428C479.314 244.242 467.447 247.601 455.02 249.504C442.706 251.519 431.119 252.415 420.259 252.191C403.242 251.967 388.745 248.608 376.766 242.115C364.899 235.622 355.439 226.833 348.386 215.75C341.333 204.667 336.575 192.072 334.112 177.966C331.649 163.86 331.369 149.082 333.272 133.633L335.119 120.199C337.247 104.301 341.389 89.1879 347.546 74.858C353.815 60.4161 361.932 47.5976 371.896 36.4023C381.86 25.2071 393.671 16.4188 407.329 10.0375C421.099 3.65625 436.66 0.633546 454.013 0.969403C472.037 1.19331 487.319 4.60786 499.857 11.213C512.508 17.7063 522.304 27.1103 529.245 39.4251C536.186 51.7398 540.216 66.7974 541.336 84.5979L486.423 84.4299C485.863 77.0411 484.464 70.5478 482.225 64.9502C480.098 59.2406 476.683 54.7625 471.981 51.5159C467.279 48.2693 460.842 46.4781 452.669 46.1422C442.818 45.6944 434.421 47.7655 427.48 52.3555C420.539 56.8336 414.718 62.8231 410.016 70.3239C405.426 77.8247 401.787 85.9413 399.1 94.6736C396.525 103.406 394.678 111.746 393.559 119.695L391.711 133.801C390.816 141.302 390.256 149.25 390.032 157.647C389.92 166.043 390.872 173.936 392.887 181.325C394.902 188.714 398.54 194.759 403.802 199.461C409.176 204.163 416.845 206.626 426.808 206.85C431.175 206.962 435.373 206.682 439.403 206.01C443.545 205.339 447.52 204.275 451.326 202.82C455.244 201.252 458.995 199.293 462.577 196.942L470.134 158.822H430.335L437.388 118.352H534.619Z" fill="#FFF429"/>
<path d="M320.341 4.49597L278.023 249H220.592L263.078 4.49597H320.341Z" fill="#FFF429"/>
<path d="M81.2113 249H25.2911L33.5196 203.659L83.0585 203.995C97.0525 203.995 108.584 200.525 117.652 193.584C126.832 186.643 133.941 177.63 138.979 166.547C144.129 155.464 147.599 143.765 149.39 131.45L150.566 121.038C151.573 113.65 152.021 105.925 151.909 97.8643C151.797 89.6918 150.622 82.079 148.383 75.026C146.144 67.973 142.337 62.1515 136.964 57.5614C131.702 52.9714 124.313 50.5084 114.797 50.1726L58.8768 50.0046L66.7694 4.49597L116.644 4.6639C132.989 4.99976 147.319 8.35833 159.634 14.7396C171.949 21.009 182.08 29.5733 190.029 40.4327C197.978 51.1801 203.575 63.4949 206.822 77.377C210.069 91.2591 210.796 105.869 209.005 121.206L207.829 131.786C205.702 148.131 201.112 163.468 194.059 177.798C187.006 192.016 177.938 204.499 166.855 215.246C155.772 225.882 142.953 234.222 128.399 240.268C113.957 246.201 98.228 249.112 81.2113 249ZM100.859 4.49597L58.373 249H0.941406L43.2594 4.49597H100.859Z" fill="#FFF429"/>
</svg>
