<svg width="522" height="121" viewBox="0 0 522 121" fill="none" xmlns="http://www.w3.org/2000/svg">
<g clip-path="url(#clip0_754_389)">
<mask id="mask0_754_389" style="mask-type:alpha" maskUnits="userSpaceOnUse" x="-63" y="57" width="661" height="70">
<path d="M-62.4819 57.2781H597.468V126.327H-62.4819V57.2781Z" fill="#D9D9D9"/>
</mask>
<g mask="url(#mask0_754_389)">
<path fill-rule="evenodd" clip-rule="evenodd" d="M521.393 92.0069V120.357H449.356V0.140625H483.283V92.0069H521.393ZM479.565 95.725H517.675V116.639H453.074V3.85865H479.565V95.725Z" fill="#FFF429"/>
<path fill-rule="evenodd" clip-rule="evenodd" d="M397.342 37.2578L388.548 74.5787H406.137L397.342 37.2578ZM401.441 70.8606L397.342 53.4675L393.244 70.8606H401.441ZM409.697 3.85865L444.554 116.639H416.049L411.084 95.5701H383.601L378.636 116.639H350.131L384.91 3.85865H409.697ZM382.166 0.140625L345.094 120.357H381.58L386.545 99.2881H408.14L413.105 120.357H449.594L412.44 0.140625H382.166Z" fill="#FFF429"/>
<path fill-rule="evenodd" clip-rule="evenodd" d="M274.531 3.85865V24.85H301.1V116.639H327.668V24.85H355.011V3.85865H274.531ZM331.386 28.5681V120.357H297.382V28.5681H270.813V0.140625H358.729V28.5681H331.386Z" fill="#FFF429"/>
<path fill-rule="evenodd" clip-rule="evenodd" d="M267.792 0.140625V120.357H233.943V0.140625H267.792ZM264.074 3.85865H237.661V116.639H264.074V3.85865Z" fill="#FFF429"/>
<path fill-rule="evenodd" clip-rule="evenodd" d="M225.732 52.6577V105.043L224.604 106.139C222.626 108.058 219.845 110.21 216.363 112.585C212.604 115.147 207.993 117.321 202.607 119.152L202.596 119.156L202.586 119.159C197.002 121.02 190.545 121.906 183.285 121.906C176.453 121.906 170.186 120.867 164.536 118.72C158.845 116.558 153.943 113.266 149.878 108.857L149.861 108.839L149.844 108.82C145.827 104.345 142.804 98.8315 140.709 92.3808L140.706 92.372C138.596 85.8191 137.584 78.213 137.584 69.6212V50.9536C137.584 42.4096 138.597 34.8083 140.704 28.2116L140.708 28.1981L140.712 28.1847C142.857 21.6412 145.906 16.094 149.937 11.6596C153.927 7.27105 158.679 3.97517 164.162 1.80216C169.614 -0.410088 175.591 -1.48608 182.045 -1.48608C191.465 -1.48608 199.521 0.096571 206.003 3.50942C212.504 6.90511 217.433 11.8494 220.683 18.2892C223.888 24.5867 225.491 32.062 225.654 40.5806L225.727 44.3696H192.987L192.817 40.8306C192.62 36.758 192.039 33.7798 191.219 31.7304C190.415 29.7194 189.421 28.6514 188.421 28.0835L188.388 28.0649L188.356 28.0457C187.178 27.3451 185.46 26.8639 182.975 26.8639C181.104 26.8639 179.575 27.2252 178.306 27.8558C177.261 28.3981 176.19 29.3802 175.178 31.0773C174.236 32.691 173.393 35.0672 172.768 38.3713C172.2 41.6519 171.898 45.7793 171.898 50.7987V69.6212C171.898 74.5999 172.201 78.7108 172.773 81.9973C173.346 85.2931 174.186 87.6386 175.15 89.2192C176.069 90.7266 177.239 91.755 178.698 92.4148C180.25 93.1167 182.375 93.5561 185.221 93.5561C186.89 93.5561 188.009 93.3318 188.72 93.0474C189.774 92.6258 190.545 92.1856 191.096 91.7645C191.331 91.5846 191.568 91.409 191.805 91.24V78.7614H178.327V52.6577H225.732ZM195.523 75.0434V93.3237C194.955 93.5819 194.232 94.0466 193.354 94.7179C192.477 95.3893 191.392 95.9831 190.101 96.4995C188.81 97.0159 187.184 97.2741 185.221 97.2741C182.02 97.2741 179.334 96.7835 177.166 95.8024C174.997 94.8212 173.267 93.272 171.976 91.1548C170.685 89.0376 169.729 86.1975 169.11 82.6343C168.49 79.0712 168.18 74.7335 168.18 69.6212V50.7987C168.18 45.6348 168.49 41.2713 169.11 37.7082C169.781 34.145 170.736 31.3049 171.976 29.1877C173.267 27.0188 174.816 25.4696 176.623 24.5401C178.482 23.6106 180.6 23.1459 182.975 23.1459C185.918 23.1459 188.345 23.7139 190.256 24.85C192.167 25.9344 193.638 27.7676 194.671 30.3495C195.704 32.9315 196.324 36.3655 196.53 40.6516H221.937C221.913 39.3825 221.855 38.1432 221.763 36.9336C221.271 30.4157 219.806 24.7612 217.367 19.97C214.475 14.2381 210.111 9.84874 204.276 6.80202C198.493 3.7553 191.082 2.23195 182.045 2.23195C176.004 2.23195 170.504 3.23891 165.547 5.25284C160.589 7.21514 156.303 10.1844 152.688 14.1606C149.074 18.1369 146.259 23.1975 144.245 29.3426C142.283 35.4877 141.302 42.6913 141.302 50.9536V69.6212C141.302 77.9352 142.283 85.1388 144.245 91.2323C146.208 97.2741 148.996 102.309 152.611 106.337C156.277 110.313 160.693 113.282 165.856 115.245C171.02 117.207 176.83 118.188 183.285 118.188C190.256 118.188 196.298 117.336 201.41 115.632C206.574 113.876 210.86 111.836 214.268 109.513C217.677 107.189 220.258 105.175 222.014 103.471V56.3758H182.045V75.0434H195.523Z" fill="#FFF429"/>
<path fill-rule="evenodd" clip-rule="evenodd" d="M129.451 0.140625V120.357H95.6011V0.140625H129.451ZM125.733 3.85865H99.3191V116.639H125.733V3.85865Z" fill="#FFF429"/>
<path fill-rule="evenodd" clip-rule="evenodd" d="M8.92457 116.639V3.85865H40.1405C46.7504 3.85865 52.7405 4.94308 58.111 7.11193C63.5331 9.22914 68.2065 12.3791 72.1311 16.5619C76.0557 20.6931 79.0766 25.7021 81.1938 31.589C83.311 37.4758 84.3696 44.1889 84.3696 51.7283V68.8467C84.3696 76.3344 83.311 83.0475 81.1938 88.986C79.0766 94.8729 76.0557 99.8819 72.1311 104.013C68.2581 108.144 63.6364 111.294 58.2659 113.463C52.9471 115.58 47.0602 116.639 40.6053 116.639H8.92457ZM35.4155 95.725H40.6053C44.4782 95.725 47.6282 94.8729 50.0553 93.1688C52.534 91.4647 54.3672 88.6504 55.5549 84.7258C56.7426 80.7496 57.3364 75.4566 57.3364 68.8467V51.5734C57.3364 46.616 57.0008 42.4332 56.3295 39.025C55.7098 35.6168 54.7286 32.8799 53.386 30.8144C52.0434 28.7488 50.2618 27.2513 48.0413 26.3218C45.8209 25.3406 43.1873 24.85 40.1405 24.85H35.4155V95.725ZM39.1336 92.0069H40.6053C43.9458 92.0069 46.284 91.2738 47.9188 90.1259L47.9338 90.1154L47.9489 90.105C49.5158 89.0278 50.9629 87.0596 51.9941 83.6557C53.0352 80.1672 53.6184 75.279 53.6184 68.8467V51.5734C53.6184 46.7642 53.2911 42.8386 52.6815 39.7436L52.6763 39.7169L52.6714 39.6901C52.1067 36.5842 51.2571 34.3613 50.2687 32.8407C49.3228 31.3855 48.1204 30.3855 46.6057 29.7514L46.572 29.7373L46.5387 29.7226C44.8959 28.9967 42.7975 28.5681 40.1405 28.5681H39.1336V92.0069ZM5.20654 120.357V0.140625H40.1405C47.1528 0.140625 53.6178 1.29088 59.4835 3.65645C65.4017 5.97063 70.5322 9.42639 74.8351 14.01C79.1441 18.5484 82.4194 24.0106 84.6924 30.3307C86.9811 36.6944 88.0876 43.8454 88.0876 51.7283V68.8467C88.0876 76.6821 86.98 83.8281 84.6959 90.2346L84.6924 90.2443C82.4194 96.5644 79.144 102.027 74.835 106.565C70.5861 111.095 65.5135 114.546 59.6582 116.911L59.6496 116.914L59.641 116.917C53.8323 119.23 47.4714 120.357 40.6053 120.357H5.20654Z" fill="#FFF429"/>
</g>
<mask id="mask1_754_389" style="mask-type:alpha" maskUnits="userSpaceOnUse" x="-68" y="-12" width="661" height="70">
<path d="M-67.7935 -11.7708H592.157V57.2784H-67.7935V-11.7708Z" fill="#D9D9D9"/>
</mask>
<g mask="url(#mask1_754_389)">
<path fill-rule="evenodd" clip-rule="evenodd" d="M516.081 92.0069V120.357H444.044V0.140625H477.971V92.0069H516.081ZM474.253 95.725H512.363V116.639H447.762V3.85865H474.253V95.725Z" fill="#FFF429"/>
<path fill-rule="evenodd" clip-rule="evenodd" d="M392.03 37.2578L383.236 74.5787H400.825L392.03 37.2578ZM396.129 70.8606L392.03 53.4675L387.932 70.8606H396.129ZM404.385 3.85865L439.242 116.639H410.737L405.772 95.5701H378.289L373.324 116.639H344.819L379.598 3.85865H404.385ZM376.854 0.140625L339.782 120.357H376.268L381.233 99.2881H402.828L407.793 120.357H444.282L407.128 0.140625H376.854Z" fill="#FFF429"/>
<path fill-rule="evenodd" clip-rule="evenodd" d="M269.219 3.85865V24.85H295.788V116.639H322.356V24.85H349.699V3.85865H269.219ZM326.074 28.5681V120.357H292.07V28.5681H265.501V0.140625H353.417V28.5681H326.074Z" fill="#FFF429"/>
<path fill-rule="evenodd" clip-rule="evenodd" d="M262.48 0.140625V120.357H228.631V0.140625H262.48ZM258.762 3.85865H232.349V116.639H258.762V3.85865Z" fill="#FFF429"/>
<path fill-rule="evenodd" clip-rule="evenodd" d="M220.42 52.6577V105.043L219.292 106.139C217.314 108.058 214.533 110.21 211.051 112.585C207.292 115.147 202.681 117.321 197.295 119.152L197.284 119.156L197.274 119.159C191.69 121.02 185.233 121.906 177.973 121.906C171.141 121.906 164.874 120.867 159.224 118.72C153.533 116.558 148.631 113.266 144.566 108.857L144.549 108.839L144.532 108.82C140.515 104.345 137.492 98.8315 135.397 92.3808L135.394 92.372C133.284 85.8191 132.272 78.213 132.272 69.6212V50.9536C132.272 42.4096 133.285 34.8083 135.392 28.2116L135.396 28.1981L135.4 28.1847C137.545 21.6412 140.594 16.094 144.625 11.6596C148.615 7.27105 153.367 3.97517 158.85 1.80216C164.302 -0.410088 170.279 -1.48608 176.733 -1.48608C186.152 -1.48608 194.209 0.096571 200.691 3.50942C207.192 6.90511 212.121 11.8494 215.371 18.2892C218.576 24.5867 220.179 32.062 220.342 40.5806L220.415 44.3696H187.675L187.505 40.8306C187.308 36.758 186.727 33.7798 185.907 31.7304C185.103 29.7194 184.109 28.6514 183.109 28.0835L183.076 28.0649L183.044 28.0457C181.866 27.3451 180.148 26.8639 177.663 26.8639C175.792 26.8639 174.263 27.2252 172.994 27.8558C171.949 28.3981 170.878 29.3802 169.866 31.0773C168.924 32.691 168.081 35.0672 167.456 38.3713C166.888 41.6519 166.586 45.7793 166.586 50.7987V69.6212C166.586 74.5999 166.889 78.7108 167.461 81.9973C168.034 85.2931 168.874 87.6386 169.838 89.2192C170.757 90.7266 171.927 91.755 173.386 92.4148C174.938 93.1167 177.063 93.5561 179.909 93.5561C181.578 93.5561 182.697 93.3318 183.408 93.0474C184.462 92.6258 185.233 92.1856 185.784 91.7645C186.019 91.5846 186.256 91.409 186.493 91.24V78.7614H173.015V52.6577H220.42ZM190.211 75.0434V93.3237C189.643 93.5819 188.92 94.0466 188.042 94.7179C187.165 95.3893 186.08 95.9831 184.789 96.4995C183.498 97.0159 181.872 97.2741 179.909 97.2741C176.708 97.2741 174.022 96.7835 171.854 95.8024C169.685 94.8212 167.955 93.272 166.664 91.1548C165.373 89.0376 164.417 86.1975 163.798 82.6343C163.178 79.0712 162.868 74.7335 162.868 69.6212V50.7987C162.868 45.6348 163.178 41.2713 163.798 37.7082C164.469 34.145 165.424 31.3049 166.664 29.1877C167.955 27.0188 169.504 25.4696 171.311 24.5401C173.17 23.6106 175.288 23.1459 177.663 23.1459C180.606 23.1459 183.033 23.7139 184.944 24.85C186.855 25.9344 188.326 27.7676 189.359 30.3495C190.392 32.9315 191.012 36.3655 191.218 40.6516H216.625C216.601 39.3825 216.543 38.1432 216.451 36.9336C215.959 30.4157 214.494 24.7612 212.055 19.97C209.163 14.2381 204.799 9.84874 198.964 6.80202C193.181 3.7553 185.77 2.23195 176.733 2.23195C170.692 2.23195 165.192 3.23891 160.235 5.25284C155.277 7.21514 150.991 10.1844 147.376 14.1606C143.762 18.1369 140.947 23.1975 138.933 29.3426C136.971 35.4877 135.99 42.6913 135.99 50.9536V69.6212C135.99 77.9352 136.971 85.1388 138.933 91.2323C140.896 97.2741 143.684 102.309 147.299 106.337C150.965 110.313 155.381 113.282 160.544 115.245C165.708 117.207 171.518 118.188 177.973 118.188C184.944 118.188 190.986 117.336 196.098 115.632C201.262 113.876 205.548 111.836 208.956 109.513C212.365 107.189 214.946 105.175 216.702 103.471V56.3758H176.733V75.0434H190.211Z" fill="#FFF429"/>
<path fill-rule="evenodd" clip-rule="evenodd" d="M124.139 0.140625V120.357H90.2891V0.140625H124.139ZM120.421 3.85865H94.0071V116.639H120.421V3.85865Z" fill="#FFF429"/>
<path fill-rule="evenodd" clip-rule="evenodd" d="M3.61256 116.639V3.85865H34.8285C41.4384 3.85865 47.4285 4.94308 52.799 7.11193C58.2211 9.22914 62.8945 12.3791 66.8191 16.5619C70.7437 20.6931 73.7645 25.7021 75.8818 31.589C77.999 37.4758 79.0576 44.1889 79.0576 51.7283V68.8467C79.0576 76.3344 77.999 83.0475 75.8818 88.986C73.7645 94.8729 70.7437 99.8819 66.8191 104.013C62.9461 108.144 58.3244 111.294 52.9539 113.463C47.6351 115.58 41.7482 116.639 35.2933 116.639H3.61256ZM30.1035 95.725H35.2933C39.1662 95.725 42.3162 94.8729 44.7433 93.1688C47.222 91.4647 49.0551 88.6504 50.2429 84.7258C51.4306 80.7496 52.0244 75.4566 52.0244 68.8467V51.5734C52.0244 46.616 51.6888 42.4332 51.0174 39.025C50.3978 35.6168 49.4166 32.8799 48.074 30.8144C46.7314 28.7488 44.9498 27.2513 42.7293 26.3218C40.5088 25.3406 37.8752 24.85 34.8285 24.85H30.1035V95.725ZM33.8216 92.0069H35.2933C38.6338 92.0069 40.972 91.2738 42.6068 90.1259L42.6218 90.1154L42.6369 90.105C44.2038 89.0278 45.6509 87.0596 46.6821 83.6557C47.7232 80.1672 48.3064 75.279 48.3064 68.8467V51.5734C48.3064 46.7642 47.9791 42.8386 47.3695 39.7436L47.3643 39.7169L47.3594 39.6901C46.7947 36.5842 45.9451 34.3613 44.9566 32.8407C44.0108 31.3855 42.8084 30.3855 41.2937 29.7514L41.26 29.7373L41.2266 29.7226C39.5839 28.9967 37.4855 28.5681 34.8285 28.5681H33.8216V92.0069ZM-0.105469 120.357V0.140625H34.8285C41.8408 0.140625 48.3058 1.29088 54.1715 3.65645C60.0897 5.97063 65.2202 9.42639 69.5231 14.01C73.8321 18.5484 77.1074 24.0106 79.3804 30.3307C81.6691 36.6944 82.7756 43.8454 82.7756 51.7283V68.8467C82.7756 76.6821 81.668 83.8281 79.3839 90.2346L79.3804 90.2443C77.1074 96.5644 73.832 102.027 69.523 106.565C65.2741 111.095 60.2015 114.546 54.3462 116.911L54.3376 116.914L54.329 116.917C48.5203 119.23 42.1594 120.357 35.2933 120.357H-0.105469Z" fill="#FFF429"/>
</g>
</g>
<defs>
<clipPath id="clip0_754_389">
<rect width="522" height="121" fill="white"/>
</clipPath>
</defs>
</svg>
