<svg width="477" height="281" viewBox="0 0 477 281" fill="none" xmlns="http://www.w3.org/2000/svg">
<path fill-rule="evenodd" clip-rule="evenodd" d="M354.567 135.928H286.538L310.24 0H270.79L248.84 126.382C248.418 117.291 246.143 109.416 242.015 102.757C237.269 95.0234 230.725 89.0892 222.381 84.9544C214.114 80.8196 204.698 78.6757 194.134 78.5226C186.709 78.3694 179.093 79.2117 171.285 81.0494C163.553 82.8105 156.32 85.6435 149.583 89.5486C142.924 93.3771 137.45 98.3541 133.164 104.48C130.261 108.628 128.218 113.321 127.035 118.559H61.1667L67.7643 80.6053H146.187L152 47.1025H73.5883H58.3759H31.1668L0 227.103H27.0854H42.2978H118.132C120.379 230.249 122.978 233.096 125.93 235.644C131.518 240.391 138.063 244.028 145.565 246.555C153.066 249.005 161.142 250.307 169.792 250.46C177.523 250.537 185.14 249.694 192.642 247.933C200.144 246.172 207.033 243.377 213.31 239.549C219.587 235.72 224.716 230.743 228.696 224.618C232.677 218.492 234.973 211.103 235.585 202.451C236.045 194.947 235.05 188.362 232.6 182.696C230.227 176.953 226.782 171.938 222.266 167.65C217.826 163.362 212.697 159.648 206.88 156.509C201.139 153.293 195.13 150.498 188.853 148.125C186.633 147.282 184.03 146.287 181.045 145.138C178.136 143.99 175.342 142.612 172.663 141.004C169.983 139.319 167.878 137.328 166.347 135.031C164.816 132.657 164.319 129.901 164.855 126.762C165.62 122.627 167.381 119.258 170.137 116.654C172.892 114.051 176.146 112.137 179.896 110.912C183.647 109.61 187.398 108.997 191.149 109.074C195.665 109.15 199.34 110.108 202.172 111.945C205.004 113.706 207.033 116.195 208.258 119.411C209.559 122.55 210.133 126.264 209.98 130.552H248.116L241.807 166.873H266.995H281.142H349.209L329.532 280.523H368.808L378.664 223.85L406.247 223.925C417.731 223.925 428.603 221.973 438.863 218.07C449.198 214.09 457.773 208.043 464.587 199.931C471.478 191.818 475.421 181.562 476.416 169.163C477.335 157.683 475.421 147.848 470.674 139.658C465.927 131.469 459.228 125.116 450.577 120.601C441.925 116.085 432.125 113.713 421.177 113.483L358.472 113.368L354.567 135.928ZM384.073 192.742L407.625 192.813C412.602 192.813 417.157 191.933 421.292 190.172C425.426 188.335 428.833 185.695 431.513 182.251C434.192 178.807 435.915 174.521 436.681 169.393C437.37 165.183 437.255 161.242 436.336 157.568C435.417 153.894 433.618 150.871 430.938 148.498C428.259 146.126 424.584 144.825 419.913 144.595L392.466 144.48L384.073 192.742ZM125.943 126.223L121.699 150.825H55.5576L48.1003 193.723H108.592L108.592 193.722H148.02C147.791 198.01 148.014 201.915 148.78 205.207C149.622 208.423 150.999 211.142 152.913 213.362C154.903 215.506 157.468 217.152 160.606 218.301C163.745 219.373 167.534 219.909 171.974 219.909C175.725 219.909 179.322 219.334 182.767 218.186C186.288 216.961 189.274 215.085 191.723 212.558C194.173 210.031 195.742 206.777 196.431 202.795C197.12 199.197 196.852 196.134 195.627 193.607C194.479 191.08 192.718 188.936 190.345 187.175C188.049 185.414 185.408 183.921 182.423 182.696C179.514 181.394 176.681 180.207 173.926 179.135C167.955 176.762 162.061 174.082 156.243 171.095C150.425 168.033 145.144 164.434 140.398 160.299C135.652 156.164 131.939 151.34 129.26 145.827C126.657 140.314 125.547 133.844 125.93 126.417C125.932 126.381 125.935 126.345 125.937 126.308C125.939 126.28 125.941 126.251 125.943 126.223Z" fill="#141314"/>
</svg>
