<svg width="745" height="1804" viewBox="0 0 745 1804" fill="none" xmlns="http://www.w3.org/2000/svg">
<path fill-rule="evenodd" clip-rule="evenodd" d="M325.15 574H134.685H86.2457H0L99.2417 0H185.881H234.321H484L465.491 106.837H215.776L194.768 227.865H405.237L387.515 330.76H176.907L153.161 467.558H339.758C341.915 463.689 344.263 459.941 346.804 456.315C361.528 435.298 380.327 418.221 403.201 405.086C426.338 391.687 451.184 381.967 477.74 375.924C504.558 369.619 530.719 366.73 556.222 367.255C592.505 367.78 624.845 375.136 653.241 389.323C681.899 403.509 704.379 423.87 720.68 450.404C736.982 476.675 744.869 508.463 744.344 545.769H610.647C611.173 531.057 609.201 518.315 604.731 507.544C600.525 496.51 593.557 487.972 583.829 481.929C574.101 475.624 561.481 472.34 545.968 472.078C533.085 471.815 520.202 473.917 507.318 478.383C494.435 482.586 483.261 489.154 473.796 498.086C464.331 507.018 458.283 518.578 455.654 532.764C453.814 543.536 455.523 552.993 460.781 561.137C466.04 569.019 473.27 575.849 482.472 581.629C491.675 587.146 501.271 591.875 511.262 595.816C521.516 599.756 530.456 603.172 538.08 606.061C559.64 614.206 580.28 623.795 599.999 634.829C619.981 645.6 637.597 658.341 652.846 673.053C668.359 687.765 680.19 704.973 688.341 724.677C696.754 744.117 700.172 766.711 698.595 792.457C696.492 822.143 688.604 847.495 674.932 868.512C661.26 889.529 643.644 906.606 622.084 919.741C600.525 932.877 576.862 942.466 551.095 948.508C525.329 954.551 499.168 957.441 472.613 957.178C442.902 956.652 415.164 952.186 389.397 943.779C379.109 940.318 369.345 936.249 360.105 931.573L308.042 1230.14L369.075 1230.5L552.857 1230.83C590.425 1231.62 624.051 1239.76 653.737 1255.26C683.423 1270.75 706.41 1292.55 722.698 1320.65C738.986 1348.75 745.553 1382.5 742.401 1421.89C738.986 1464.43 725.456 1499.62 701.813 1527.46C678.432 1555.3 649.008 1576.05 613.543 1589.7C578.34 1603.1 541.036 1609.79 501.629 1609.79L406.982 1609.54L373.165 1804H238.396L319.416 1336.04H289.576H241.034H154.607L254.058 763.454H254.992C254.995 763.27 254.997 763.086 255 762.901H397.68C396.891 777.613 397.811 790.618 400.44 801.914C403.332 812.948 408.065 822.275 414.638 829.893C421.474 837.249 430.282 842.898 441.062 846.838C451.842 850.516 464.856 852.355 480.106 852.355C492.989 852.355 505.347 850.385 517.178 846.444C529.273 842.241 539.526 835.804 547.94 827.135C556.354 818.465 561.744 807.3 564.11 793.639C566.476 781.291 565.556 770.783 561.349 762.113C557.405 753.444 551.358 746.088 543.207 740.045C535.32 734.003 526.249 728.88 515.995 724.677C506.004 720.21 496.276 716.138 486.81 712.46C466.302 704.316 446.057 695.121 426.075 684.875C406.093 674.367 387.951 662.019 371.65 647.833C355.349 633.646 342.597 617.095 333.395 598.18C329.832 590.642 327.084 582.582 325.15 574ZM425.544 1502.8L506.358 1503.04C523.434 1503.04 539.065 1500.02 553.251 1493.98C567.438 1487.68 579.128 1478.62 588.323 1466.8C597.518 1454.98 603.429 1440.27 606.056 1422.68C608.42 1408.23 608.026 1394.71 604.873 1382.1C601.721 1369.5 595.547 1359.12 586.353 1350.98C577.158 1342.84 564.548 1338.38 548.523 1337.59L454.342 1337.19L425.544 1502.8Z" fill="#141314"/>
</svg>
