<svg width="1156" height="1370" viewBox="0 0 1156 1370" fill="none" xmlns="http://www.w3.org/2000/svg">
<path d="M0.0520176 679.553C13.0217 655.161 33.5687 638.05 55.4855 622.379C62.9933 617.022 66.2011 609.932 67.3975 601.281C73.7263 555.739 84.7367 511.29 98.1052 467.361C107.919 435.133 117.23 402.749 127.027 370.504C129.038 363.882 126.836 360.224 121.01 357.364C95.5044 344.813 72.0444 329.037 50.3357 310.782C36.1002 298.803 24.2055 284.605 16.0561 267.737C3.17307 241.109 19.2812 211.187 49.9543 203.056C56.0056 201.461 62.1437 197.959 66.7733 193.73C79.7257 181.941 94.4293 174.643 111.526 170.794C156.903 160.583 200.719 167.24 242.94 183.969C258.372 190.072 268.359 183.657 279.543 176.792C305.031 161.173 332.219 149.401 360.777 140.768C370.903 137.7 371.978 136.85 366.1 128.477C349.42 104.657 332.046 81.3057 315.105 57.6595C312.626 54.2096 310.302 50.309 309.193 46.2697C307.233 39.162 309.869 33.9612 317.36 31.5341C345.605 22.3461 373.764 12.9153 402.027 3.81391C407.732 1.9763 413.783 1.24819 419.661 0C426.024 0 432.371 0 438.734 0C457.148 3.81391 475.008 8.92803 490.925 19.5897C516.951 37.0296 536.406 60.1905 551.075 87.5813C555.982 96.7174 561.114 105.853 564.807 115.492C567.98 123.762 573.859 126.345 581.592 128.286C604.792 134.094 628.2 139.399 650.827 146.974C667.404 152.522 683.061 160.982 698.805 168.766C708.428 173.516 711.098 172.874 712.399 162.178C715.537 136.451 718.277 110.656 721.276 84.9116C721.745 80.907 722.456 76.885 723.479 73.0018C726.738 60.6586 735.165 53.7242 747.892 53.7242C798.904 53.7242 845.737 67.0035 887.577 97.0988C909.06 112.562 929.035 129.24 943.843 151.482C968.586 188.633 975.105 229.06 965.413 272.279C961.893 288.003 957.61 303.57 953.448 319.138C949.183 335.07 951.09 340.305 966.297 346.737C986.74 355.405 1007.25 363.986 1028.16 371.406C1062.06 383.454 1086.93 406.598 1106.74 435.289C1119.82 454.22 1130.4 474.867 1142.31 494.63C1144.79 498.756 1147.84 502.674 1151.22 506.106C1156.33 511.307 1157.6 516.127 1153.77 523.026C1144.44 539.86 1128.23 546.586 1111.46 550.625C1072.78 559.935 1033.61 567.25 994.785 576.109C979.336 579.628 964.199 584.69 949.252 589.961C946.409 590.966 943.409 596.253 943.305 599.651C942.091 641.136 941.224 682.621 934.306 723.708C933.543 728.215 934.861 734.421 937.618 737.94C963.366 770.861 989.514 803.453 1015.8 835.941C1030.02 853.519 1041.24 872.329 1043.56 895.368C1043.7 896.807 1043.87 898.246 1043.87 899.685C1043.91 912.306 1044.17 924.944 1043.72 937.547C1043.59 940.875 1042.03 945.036 1039.64 947.099C1038.12 948.417 1032.58 947.602 1031.16 945.868C1029.5 943.822 1029.52 939.506 1030.3 936.576C1034.02 922.43 1033.87 908.682 1028.04 895.074C1020.12 876.576 1013.95 857.108 1004.11 839.703C992.618 819.35 976.718 801.91 957.315 788.301C950.223 783.326 942.594 779.096 935.208 774.519C929.035 770.688 925.342 771.728 923.486 779.391C920.175 793.051 916.88 806.799 912.355 820.078C907.448 834.467 901.067 848.336 895.501 862.499C892.692 869.642 890.733 877.131 887.542 884.083C882.011 896.114 875.942 907.92 869.821 919.673C868.105 922.95 865.209 925.585 863.25 928.757C858.915 935.761 855.048 943.06 850.558 949.942C848.061 953.773 844.836 957.188 841.68 960.552C835.837 966.793 829.941 972.982 823.82 978.962C819.347 983.348 814.509 987.353 809.828 991.531C813.122 986.902 816.486 982.308 819.711 977.628C823.543 972.063 827.514 966.567 830.895 960.725C832.906 957.258 832.802 951.71 835.542 949.699C844.922 942.852 852.118 935.016 854.077 923.193C854.164 922.655 854.615 922.187 854.91 921.684C866.198 901.592 878.023 881.777 888.583 861.303C894.2 850.382 898.136 838.506 901.916 826.77C906.425 812.797 908.748 798.027 914.297 784.522C919.62 771.572 917.019 760.945 904.309 755.9C895.362 752.347 890.16 745.828 884.82 738.842C878.248 730.261 871.954 721.419 864.845 713.289C858.412 705.938 854.442 706.978 850.714 716.149C849.535 719.061 848.858 722.199 848.251 725.302C846.535 734.005 845.009 742.76 843.327 751.462C840.449 766.441 836.912 781.315 834.762 796.397C831.849 816.854 829.959 837.449 827.722 857.992C826.855 866.019 825.693 874.045 825.554 882.089C825.26 900.552 825.416 919.015 814.423 935.224C813.694 936.299 813.244 938.24 813.712 939.367C817.578 948.659 817.006 955.195 808.978 963.828C802.979 970.277 803.898 983.158 801.297 995.189C805.285 993.525 807.487 992.623 809.689 991.704C804.921 1000.09 798.939 1008.03 795.714 1016.98C791.344 1029.13 789.524 1042.19 785.813 1054.62C779.137 1077 772.843 1099.59 764.555 1121.38C755.452 1145.3 743.228 1168.06 734.246 1192.04C723.652 1220.3 702.706 1240.44 682.385 1260.72C668.34 1274.75 648.781 1274.52 641.135 1248.52C637.268 1235.4 635.881 1221.35 634.823 1207.61C633.419 1189.51 633.627 1171.29 632.742 1153.14C631.841 1134.43 630.679 1115.73 628.962 1097.07C628.737 1094.7 624.402 1090.81 622.027 1090.87C614.051 1091.02 606.127 1093.09 598.133 1093.62C575.783 1095.11 553.624 1093.26 532.106 1087.02C519.396 1083.32 507.068 1078.25 494.688 1073.43C491.913 1072.35 489.729 1069.79 487.284 1067.91C489.208 1068.42 491.359 1068.52 493.04 1069.47C531.707 1091.04 573.72 1090.47 616.01 1088.21C617.137 1088.16 618.264 1087.71 619.391 1087.47C626.275 1086.03 629.933 1082.27 629.379 1074.74C628.564 1063.82 628.269 1052.88 627.523 1041.96C626.708 1029.9 625.703 1017.85 624.68 1005.8C622.859 984.285 620.605 962.805 619.183 941.274C617.588 917.004 616.877 892.681 615.455 868.411C614.935 859.431 613.219 858.529 605.572 863.175C589.897 872.658 573.737 880.875 555.964 885.73C541.417 889.699 527.043 892.075 511.645 890.376C489.677 887.966 467.309 888.937 445.444 886.007C423.233 883.042 401.351 877.443 379.469 872.346C370.261 870.197 361.436 866.383 352.454 863.279C346.368 861.182 343.316 862.621 344.964 869.572C346.559 876.299 348.449 882.973 349.923 889.734C356.373 919.465 369.308 946.51 385.624 971.785C407.627 1005.87 436.359 1033.62 470.066 1056.21C475.771 1060.04 481.423 1063.91 487.11 1067.77C475.909 1061.45 463.911 1056.19 453.663 1048.58C417.216 1021.54 388.641 987.266 366.846 947.654C353.893 924.111 343.993 899.061 338.704 872.537C336.259 860.28 329.757 853.381 318.66 846.828C297.94 834.606 278.19 820.182 259.828 804.58C227.525 777.12 202.383 743.211 178.854 708.175C173.791 700.633 167.982 698.12 158.446 699.507C131.362 703.459 104.087 706.164 76.8821 709.111C66.2705 710.272 62.0744 714.727 62.6292 725.476C64.3458 758.778 65.5075 792.133 67.9697 825.383C70.5532 860.506 75.6856 895.264 85.6384 929.226C90.2506 944.949 94.0999 960.985 97.1516 977.09C103.688 1011.68 118.167 1043.35 135.558 1073.15C156.452 1108.93 180.345 1143.01 204.03 1177.08C213.515 1190.7 225.965 1202.25 236.906 1214.87C240.269 1218.75 243.078 1223.12 246.147 1227.27C236.923 1218.3 226.658 1210.15 218.613 1200.24C176.565 1148.37 136.91 1094.77 110.867 1032.67C94.4467 993.49 82.1012 952.993 74.6453 911.005C67.1374 868.671 60.8606 826.267 60.5138 783.153C60.3578 763.84 59.4388 744.528 58.8319 725.216C58.4505 712.803 56.4391 711.139 43.8335 710.758C36.3603 710.532 28.3843 710.879 21.6047 708.348C13.8367 705.453 7.16109 699.663 0 695.138C0 689.937 0 684.736 0 679.535L0.0520176 679.553ZM374.44 598.785C375.151 599.409 375.862 600.05 376.556 600.674C379.243 599.443 382.173 598.559 384.566 596.895C391.901 591.798 399.062 586.459 406.223 581.102C441.578 554.682 476.69 527.915 512.356 501.911C529.019 489.776 549.185 494.699 560.559 511.671C572.749 529.874 578.575 550.487 582.181 571.48C589.134 612.116 595.168 652.925 600.509 693.803C605.728 733.797 609.577 773.982 614.051 814.08C615.004 822.661 615.923 831.277 617.224 839.807C618.247 846.464 621.316 846.706 625.72 842.043C628.286 839.339 630.956 836.53 634.095 834.64C657.277 820.806 668.149 798.096 677.2 774.329C678.761 770.203 675.518 764.412 676.628 759.922C677.686 755.692 680.945 751.376 684.431 748.654C686.217 747.25 692.095 748.03 693.62 749.885C698.267 755.502 701.163 762.055 697.071 769.717C687.222 788.163 679.177 807.596 662.098 821.396C652.076 829.492 644.429 840.812 633.835 847.85C618.698 857.923 617.935 856.813 620.085 874.877C620.657 879.749 621.212 884.637 622.2 889.422C623.275 894.606 625.859 899.65 625.997 904.799C626.258 914.646 624.853 924.545 624.974 934.409C625.026 939.159 627.818 943.874 627.87 948.625C628.009 958.922 626.5 969.254 626.916 979.517C628.044 1007.71 629.621 1035.88 631.477 1064.03C631.927 1071.02 634.112 1077.88 635.447 1084.8C635.638 1085.84 635.638 1086.97 635.499 1088.01C634.719 1094.18 632.933 1100.37 633.211 1106.47C634.615 1137.85 635.586 1169.29 638.655 1200.53C640.302 1217.25 644.602 1233.99 650.047 1249.92C653.966 1261.38 663.398 1262.87 673.108 1255.35C688.193 1243.68 705.966 1234.22 710.457 1213.08C710.734 1211.78 711.983 1210.66 712.815 1209.5C721.155 1197.85 731.021 1186.98 737.489 1174.37C747.077 1155.72 754.793 1136.04 762.336 1116.42C769.67 1097.32 776.103 1077.85 782.276 1058.34C786.004 1046.54 788.761 1034.39 791.414 1022.29C792.523 1017.17 790.98 1011.26 792.835 1006.56C799.355 990.04 803.863 973.432 801.436 955.438C801.089 952.837 802.857 949.994 803.412 947.22C804.539 941.534 805.701 935.848 806.499 930.127C807.001 926.452 806.481 922.603 807.088 918.963C810.365 899.546 813.833 880.147 817.249 860.766C817.301 860.488 817.405 860.211 817.44 859.916C821.237 828.261 825.606 796.657 828.606 764.932C830.513 744.771 832.421 724.834 843.362 707.221C847.835 700.027 847.558 694.67 841.853 687.943C827.999 671.63 825.867 645.904 843.136 629.105C854.32 618.235 866.18 609.03 880.71 603.569C895.848 597.883 911.071 592.388 926.399 587.239C932.277 585.262 935.017 582.038 934.514 575.866C933.872 568.117 933.508 560.351 932.832 552.601C928.81 506.366 919.186 461.293 902.471 418.022C878.647 356.306 845.286 300.328 799.58 252.03C777.282 228.471 753.51 206.836 725.264 190.522C715.936 185.131 714.029 185.686 711.948 195.983C707.405 218.572 703.642 241.334 698.718 263.836C693.759 286.442 687.274 308.736 672.38 327.199C657.329 345.853 640.042 343.928 629.014 322.449C611.363 288.072 601.41 250.938 591.094 213.961C584.435 190.072 577.396 166.269 569.957 142.606C568.865 139.121 564.981 134.492 561.825 133.99C542.769 130.956 523.627 127.974 504.38 126.865C465.974 124.646 428.469 131.407 391.381 140.733C383.179 142.796 382.33 144.495 387.028 151.95C393.947 162.923 400.761 174.019 408.494 184.385C410.87 187.558 415.985 189.621 420.181 190.366C445.722 194.908 471.505 198.237 496.89 203.542C504.848 205.206 512.53 210.84 519.049 216.214C539.388 233.013 533.874 273.354 523.54 290.603C510.466 312.412 489.521 323.524 465.957 328.829C443.277 333.943 419.973 336.353 396.929 339.906C390.912 340.843 384.878 341.657 376.59 342.836C380.804 347.725 383.162 350.481 385.537 353.22C399.703 369.516 414.979 385.015 427.741 402.351C440.589 419.808 453.056 434.821 477.678 426.534C478.198 426.361 478.822 426.413 479.394 426.413C485.845 426.448 493.873 426.049 494.48 434.214C495.017 441.513 487.527 442.587 481.44 444.078C473.69 445.968 464.5 446.817 458.934 451.602C451.288 458.155 443.762 460.114 434.521 459.542C430.203 459.265 425.834 459.334 421.534 459.629C412.396 460.235 410.28 462.888 411.563 471.712C416.332 504.494 408.963 534.52 392.04 562.812C385.208 574.237 380.197 586.771 374.371 598.785H374.44ZM333.242 772.734C335.444 794.49 338.028 816.23 339.675 838.038C340.369 847.053 344.513 852.375 352.229 855.964C394.242 875.553 439.046 882.349 484.752 886.024C503.201 887.498 520.28 881.448 538.088 879.749C547 878.899 555.826 876.195 564.443 873.542C574.673 870.405 585.198 867.475 594.544 862.482C601.861 858.564 612.508 856.813 613.565 845.701C614.103 839.997 613.739 834.138 613.149 828.417C611.224 809.798 609.144 791.179 606.872 772.595C602.884 739.986 599.07 707.36 594.509 674.82C591.111 650.567 586.585 626.47 582.701 602.269C578.419 575.624 571.171 549.914 559.085 525.713C551.907 511.342 539.458 503.731 525.725 506.817C518.668 508.412 511.732 512.313 505.75 516.595C462.801 547.227 419.921 577.947 377.561 609.377C371.007 614.248 365.372 622.153 362.476 629.851C345.154 675.774 334.56 723.153 333.26 772.716L333.242 772.734ZM761.867 59.029C738.009 59.029 733.067 62.2361 727.362 84.3568C724.502 95.4345 723.704 107.067 722.247 118.474C720.132 135.047 718.277 151.655 716.283 168.246C715.555 174.365 717.878 178.352 723.357 181.646C752.695 199.294 778.635 221.138 802.146 245.997C827.635 272.955 850.055 302.183 869.093 334.012C890.334 369.551 908.124 406.65 919.845 446.488C932.035 487.886 939.196 530.169 941.623 573.249C941.987 579.819 944.293 582.055 950.865 580.235C959.76 577.791 968.776 575.797 977.775 573.769C1012.38 565.933 1047.06 558.392 1081.6 550.278C1100.75 545.788 1119.61 540.362 1135.93 528.539C1142.29 523.945 1144.58 518.675 1140.3 511.533C1126.08 487.8 1112.07 463.945 1097.59 440.368C1080.41 412.371 1056.27 392.4 1025.51 380.854C1002.02 372.03 978.192 364.107 954.662 355.405C940.687 350.239 937.08 343.651 940.808 329.193C944.12 316.364 948.732 303.882 952.581 291.192C961.685 261.114 968.378 230.985 959.795 199.329C950.102 163.582 928.948 136.139 900.997 112.788C860.25 78.74 813.452 61.144 761.85 58.9943L761.867 59.029ZM403.293 496.398C401.836 489.117 399.842 481.888 399.045 474.538C398.23 466.944 394.45 466.251 388.381 468.175C377.925 471.469 367.158 473.983 356.962 477.935C320.394 492.082 283.357 505.24 247.743 521.501C211.33 538.126 176.426 558.01 140.777 576.3C133.668 579.94 132.593 585.54 134.483 592.301C143.17 623.54 153.764 654.034 170.826 681.876C173.774 686.678 177.293 690.821 184.125 688.88C191.893 686.678 199.834 685.048 207.585 682.777C252.667 669.567 295.616 651.417 336.623 628.429C350.807 620.472 361.505 611.232 367.019 595.075C372.221 579.906 380.232 565.621 387.774 551.336C396.842 534.121 401.68 516.005 403.275 496.398H403.293ZM443.173 440.039C438.959 438.617 436.549 437.3 434.052 437.075C424.88 436.208 415.551 436.433 406.5 434.925C363.343 427.73 320.03 421.16 277.202 412.319C235.675 403.738 195.482 390.146 156.105 374.301C145.563 370.054 142.84 371.389 138.402 381.981C129.09 404.154 122.744 426.812 120.872 451.169C117.855 490.105 121.548 528.279 128.553 566.384C129.628 572.191 132.68 573.439 137.847 570.666C155.359 561.252 172.594 551.232 190.523 542.703C227.456 525.141 264.388 507.493 302.049 491.614C329.913 479.86 358.974 470.932 387.341 460.339C390.6 459.126 394.224 455.815 395.334 452.66C397.553 446.367 401.559 443.836 407.593 443.87C411.893 443.905 416.176 444.841 420.476 444.997C427.62 445.257 435.197 447.164 443.19 440.039H443.173ZM487.44 116.272C512.183 119.046 531.915 121.334 551.647 123.397C554.543 123.692 557.56 122.947 560.525 122.687C560.108 119.948 560.213 117 559.19 114.521C545.145 80.2829 524.58 50.6731 494.965 28.2056C473.95 12.2739 449.9 3.55387 423.163 5.6862C389.508 8.35594 359.286 22.6581 328.855 35.7468C317.516 40.6355 316.285 45.663 323.099 56.1166C336.779 77.1104 351.136 97.6882 365.181 118.457C377.544 136.763 377.267 135.481 398.524 131.147C429.458 124.854 460.824 120.624 487.44 116.272ZM353.252 628.03C352.471 627.441 351.709 626.851 350.928 626.279C345.796 629.07 340.75 632.035 335.514 634.618C312.539 645.973 290.085 658.715 266.33 668.128C240.98 678.183 214.399 685.152 188.304 693.318C182.079 695.259 181.264 698.796 184.611 703.702C188.512 709.405 192.933 714.762 196.8 720.5C218.543 752.659 242.766 782.771 273.058 807.232C288.472 819.68 305.534 830.098 322.058 841.107C324.382 842.65 327.919 842.372 330.901 842.944C331.11 840.223 331.647 837.484 331.456 834.796C330.295 818.709 328.353 802.656 327.815 786.55C326.289 740.541 333.884 695.762 346.992 651.781C349.333 643.945 351.188 635.97 353.269 628.048L353.252 628.03ZM417.181 429.585L417.389 428.095C418.256 428.095 419.141 428.216 419.99 428.077C424.1 427.366 428.192 426.604 432.284 425.841C430.741 422.01 430.03 417.502 427.516 414.468C410.818 394.272 393.756 374.353 376.764 354.399C369.204 345.523 359.667 342.143 347.877 341.345C319.44 339.404 290.935 337.167 262.793 332.903C237.46 329.071 212.527 322.536 187.472 316.884C181.455 315.532 176.253 316.017 172.872 321.253C165.555 332.643 158.688 344.31 151.683 355.89C148.441 361.247 149.793 365.65 155.515 367.731C182.894 377.647 209.96 388.742 237.911 396.664C266.972 404.899 296.778 410.845 326.549 416.237C356.581 421.68 386.942 425.217 417.164 429.585H417.181ZM421.759 199.416C421.273 200.387 420.805 201.357 420.32 202.311C426.701 213.18 433.654 223.773 439.341 234.989C450.282 256.555 460.789 278.346 470.777 300.38C472.303 303.744 471.592 310.401 469.199 312.654C466.338 315.359 460.061 316.711 456.143 315.584C449.38 313.642 442.67 310.175 437.052 305.893C397.571 275.885 357.76 246.483 314.481 221.987C305.049 216.648 296.743 215.469 287.709 220.479C275.624 227.171 263.781 234.313 251.921 241.386C247.517 244.021 247.413 247.038 251.869 249.95C254.037 251.372 256.013 253.105 258.25 254.423C294.333 275.763 328.405 299.808 359.39 328.205C363.43 331.915 370.14 334.498 375.637 334.515C407.021 334.619 437.676 329.21 467.378 319.242C493.647 310.435 516.414 296.74 520.887 266.385C525.187 237.312 520.332 223.357 491.497 213.024C476.915 207.806 461.396 205.05 446.155 201.912C438.197 200.265 429.908 200.178 421.776 199.381L421.759 199.416ZM652.683 332.175C659.497 327.442 666.935 324.859 669.935 319.693C678.084 305.616 686.581 291.071 690.898 275.573C698.233 249.274 702.654 222.161 707.96 195.324C710.543 182.184 708.879 180.502 697.244 174.435C661.369 155.764 623.501 143.334 583.707 136.434C575.09 134.943 573.373 136.417 575.835 144.547C588.579 186.743 600.717 229.147 614.502 271.013C620.119 288.089 628.806 304.281 637.303 320.213C639.852 324.98 646.527 327.563 652.7 332.175H652.683ZM85.3956 206.09C82.1705 206.558 76.4312 206.471 71.4896 208.413C68.0217 209.783 64.1724 213.458 63.0454 216.925C58.069 232.319 63.6002 244.992 74.6973 255.966C95.539 276.578 121.791 287.795 148.216 298.768C154.284 301.282 157.665 297.971 161.029 293.238C173.513 275.659 186.102 258.15 199.175 241.005C203.632 235.162 202.088 232.25 196.228 230.1C189.188 227.517 182.027 225.264 174.918 222.889C146.586 213.389 117.473 207.98 85.3783 206.107L85.3956 206.09ZM937.306 623.714C937.028 623.679 936.768 623.644 936.491 623.61C936.179 616.71 935.589 609.793 935.641 602.893C935.693 595.993 932.693 593.965 926.417 596.045C904.205 603.396 881.681 610.642 862.955 624.979C839.513 642.922 835.178 659.703 850.384 684.771C853.869 690.509 858.603 693.231 865.313 693.37C869.856 693.474 875.093 693.179 878.803 695.259C892.068 702.662 905.176 710.48 917.643 719.131C926.174 725.06 928.116 725.337 929.191 714.884C932.312 684.528 934.653 654.104 937.306 623.714ZM62.5425 691.688C62.4385 701.188 66.9294 705.037 79.4829 703.303C83.7484 702.714 88.0658 702.506 92.3486 701.968C114.335 699.229 136.286 696.351 158.29 693.734C166.162 692.797 166.456 689.14 163.075 683.245C159.642 677.247 155.81 671.353 153.348 664.956C144.401 641.622 135.731 618.166 127.478 594.572C125.068 587.672 122.363 585.523 115.843 589.787C104.746 597.016 92.7821 603.101 82.552 611.353C76.4486 616.277 70.1544 623.904 68.8193 631.203C65.3862 650.082 64.6406 669.463 62.5425 691.705V691.688ZM353.494 335.989L354.465 332.955C350.269 328.794 346.541 323.975 341.773 320.594C310.996 298.768 279.959 277.289 249.078 255.636C243.651 251.84 237.963 251.077 233.264 255.723C217.503 271.239 202.036 287.066 186.726 303.033C183.189 306.708 183.865 310.435 189.518 311.996C197.58 314.232 205.504 317.318 213.706 318.653C251.245 324.703 288.837 330.51 326.497 335.815C335.34 337.063 344.495 336.006 353.512 336.006L353.494 335.989ZM53.7169 223.877C53.7862 222.733 53.8209 221.571 53.9076 220.427C54.6012 211.794 52.2084 209.731 44.5271 213.458C35.2506 217.965 27.8641 224.588 23.9281 234.625C16.4896 253.66 23.1305 269.626 34.5397 284.501C58.3291 315.497 91.1002 334.844 124.53 353.29C130.2 356.41 132.905 353.359 134.951 348.332C139.078 338.19 143.205 328.031 147.834 318.098C153.279 306.431 153.504 306.153 141.28 301.386C118.045 292.319 95.6951 281.658 76.5179 265.396C63.7043 254.527 53.0406 242.253 53.6995 223.877H53.7169ZM310.84 213.319C314.776 215.92 317.966 218.121 321.261 220.184C341.322 232.666 361.627 244.784 381.445 257.665C403.206 271.793 424.377 286.824 446.155 300.901C449.467 303.05 454.686 302.27 459.038 302.842C459.038 299.028 460.027 294.902 458.917 291.435C448.808 259.866 432.561 231.331 413.991 204.166C411.494 200.508 404.558 197.942 399.773 198.081C380.214 198.653 360.638 199.918 341.184 202.016C330.901 203.126 320.116 204.564 310.857 213.319H310.84ZM75.0268 198.133C78.6507 198.705 80.5926 199.156 82.5346 199.277C117.612 201.375 152.117 207.477 184.576 220.6C202.349 227.795 215.682 228.384 228.756 213.076C234.946 205.847 243.477 200.612 252.355 193.313C247.535 190.834 244.76 188.806 241.657 187.905C227.542 183.761 213.498 179.011 199.106 176.186C167.115 169.927 134.934 167.535 103.411 178.942C93.0249 182.704 82.2052 186.431 75.0268 198.133ZM297.992 206.662C302.24 205.466 304.997 204.669 307.771 203.906C318.036 201.097 328.162 197.214 338.635 195.775C356.841 193.261 375.255 192.308 393.583 190.522C396.548 190.228 399.426 188.997 402.356 188.182C401.385 185.599 400.796 182.791 399.391 180.485C393.825 171.383 387.375 162.785 382.503 153.354C378.914 146.42 374.562 145.085 367.834 147.39C359.13 150.39 350.009 152.435 341.721 156.284C320.064 166.321 298.72 177.018 277.358 187.697C273.925 189.413 270.388 193.105 275.659 196.174C283.028 200.456 291.125 203.507 298.026 206.662H297.992ZM111.335 453.076C110.399 453.024 109.462 452.972 108.526 452.92C107.624 455.225 106.515 457.479 105.839 459.837C99.5964 481.645 92.8168 503.333 87.407 525.349C81.5116 549.412 76.83 573.786 71.8537 598.056C71.3855 600.31 71.8537 603.864 73.3102 605.078C74.6453 606.204 78.4079 605.771 80.2979 604.679C92.5047 597.554 104.486 590.065 116.537 582.679C121.218 579.819 123.091 576.126 121.843 570.319C114.196 535.196 111.456 499.623 112.566 463.72C112.67 460.183 111.769 456.612 111.335 453.058V453.076ZM62.2824 628.637C61.4328 628.256 60.5832 627.874 59.7336 627.493C41.0766 642.558 21.9341 657.189 12.8137 680.87C10.0914 687.943 13.3512 697.028 20.7204 699.455C29.6327 702.384 39.0652 704.101 48.4111 705.175C55.1387 705.938 58.8319 702.02 58.9706 694.652C59.1614 683.453 59.9937 672.272 60.5832 661.09C61.1381 650.272 61.7276 639.455 62.2998 628.637H62.2824ZM287.779 210.857C287.744 210.043 287.727 209.228 287.692 208.43C277.965 205.622 270.336 193.157 258.406 201.063C246.269 209.107 235.241 218.832 223.988 228.159C222.67 229.251 222.029 233.152 222.93 234.573C226.502 240.19 237.304 241.698 243.026 237.988C246.147 235.96 249.338 234.001 252.528 232.077C264.267 224.986 276.006 217.931 287.762 210.857H287.779ZM216.966 238.543C213.255 240.866 209.336 242.114 207.308 244.784C194.112 262.137 181.229 279.716 168.589 297.485C167.393 299.167 168.658 302.582 168.797 305.2C171.363 304.524 174.086 304.177 176.461 303.068C177.866 302.409 178.594 300.45 179.773 299.202C193.748 284.379 207.81 269.644 221.699 254.752C224.109 252.169 225.809 248.91 227.837 245.963C224.439 243.64 221.023 241.317 216.966 238.543ZM864.134 704.343C872.717 712.456 879.15 719.287 886.38 725.146C894.825 731.994 903.824 738.218 912.909 744.233C915.181 745.742 918.701 745.516 921.666 745.62C922.065 745.62 923.417 742.17 922.845 741.356C918.579 735.288 914.557 728.856 909.286 723.742C903.546 718.195 896.888 713.358 890.004 709.284C882.999 705.141 875.179 702.575 864.134 704.343ZM142.476 350.845C143.309 351.279 144.141 351.712 144.956 352.128C146.551 349.857 148.268 347.673 149.689 345.315C154.735 336.907 159.868 328.534 164.549 319.918C165.763 317.664 165.416 314.579 165.78 311.874C163.093 313.07 158.931 313.573 157.943 315.601C152.36 327.147 147.557 339.057 142.476 350.845ZM968.863 787.036C960.193 777.969 956.136 764.915 943.843 758.05C942.612 770.879 955.165 785.354 968.863 787.036Z" fill="#FFF429"/>
<path d="M428.062 1370C410.8 1357.99 393.416 1346.16 376.31 1333.96C354.241 1318.23 331.93 1302.82 310.591 1286.15C291.09 1270.9 272.666 1254.27 253.963 1238.02C250.788 1235.26 248.637 1231.36 246 1228C248.811 1229.89 251.777 1231.59 254.397 1233.72C289.685 1262.4 324.852 1291.21 360.314 1319.7C364.217 1322.83 369.821 1323.75 374.332 1326.21C379.068 1328.79 383.457 1332 387.986 1334.95C389.408 1335.88 390.692 1337.48 392.219 1337.74C411.841 1341.08 427.923 1352.4 445.255 1360.92C447.302 1361.93 449.627 1363.09 451.779 1362.98C458.458 1362.67 463.507 1365.56 468 1370H428.097H428.062Z" fill="#FFF429"/>
<path d="M645 1085C694.628 1068.95 742.609 1049.82 784 1017C744.048 1052.86 697.194 1074.57 645 1085Z" fill="#FFF429"/>
</svg>
