<svg width="128" height="137" viewBox="0 0 128 137" fill="none" xmlns="http://www.w3.org/2000/svg">
<path d="M0 3.30226H39.3657V21.3439H39.9298C41.2191 18.8068 43.0323 16.2294 45.4096 13.6923C47.7868 11.1552 50.6073 8.85973 53.871 6.84616C57.1346 4.83258 60.8818 3.22172 65.0722 1.93303C69.2627 0.644344 73.8157 0 78.7314 0C89.1268 0 97.5077 1.61086 103.874 4.79231C110.24 7.97376 115.236 12.4036 118.782 18.0416C122.328 23.6796 124.745 30.3244 126.035 37.976C127.324 45.6276 127.969 53.9236 127.969 62.8638V136.118H86.951V71.1195C86.951 67.2937 86.8302 63.3471 86.5481 59.2394C86.2661 55.1317 85.4602 51.3462 84.0903 47.8828C82.7203 44.4195 80.6251 41.6005 77.8047 39.4258C74.9842 37.2511 70.9146 36.1638 65.6363 36.1638C60.358 36.1638 56.0468 37.1303 52.7831 39.0231C49.5194 40.9561 46.981 43.4932 45.2484 46.6747C43.5158 49.8561 42.3876 53.4806 41.8235 57.4674C41.2594 61.4946 41.0177 65.6828 41.0177 70.0322V136.158H0V3.30226Z" fill="#EEEEEE"/>
</svg>
