<svg width="340" height="134" viewBox="0 0 340 134" fill="none" xmlns="http://www.w3.org/2000/svg">
<path d="M0 2.48459H29.6029V16.0589H30.0271C30.9967 14.15 32.3602 12.2108 34.1479 10.3019C35.9356 8.39306 38.0566 6.66596 40.5109 5.15097C42.9652 3.63598 45.783 2.42399 48.9342 1.45439C52.0854 0.484797 55.5093 0 59.2059 0C67.0232 0 73.3256 1.21199 78.113 3.60568C82.9004 5.99937 86.6575 9.33235 89.3239 13.5743C91.9903 17.8163 93.8083 22.8158 94.7779 28.5728C95.7475 34.3297 96.2323 40.5715 96.2323 47.2981V102.413H65.387V53.5095C65.387 50.631 65.2961 47.6616 65.084 44.5711C64.8719 41.4805 64.2659 38.6323 63.2357 36.0265C62.2056 33.4207 60.63 31.2997 58.509 29.6635C56.388 28.0274 53.3277 27.2093 49.3584 27.2093C45.3891 27.2093 42.1471 27.9365 39.6928 29.3605C37.2385 30.8149 35.3296 32.7238 34.0267 35.1175C32.7238 37.5112 31.8754 40.2382 31.4512 43.2379C31.027 46.2679 30.8452 49.419 30.8452 52.6914V102.444H0V2.48459Z" fill="#EEEEEE"/>
<path d="M180.774 89.8996H180.35C176.926 95.2324 172.35 99.0805 166.684 101.414C160.988 103.747 154.989 104.898 148.686 104.898C144.02 104.898 139.536 104.262 135.203 102.959C130.87 101.656 127.083 99.7168 123.78 97.111C120.477 94.5052 117.871 91.2934 115.962 87.4453C114.054 83.5973 113.084 79.1432 113.084 74.0831C113.084 68.3261 114.144 63.4479 116.265 59.4786C118.386 55.5093 121.265 52.2066 124.901 49.6008C128.537 46.9951 132.688 44.965 137.354 43.5409C142.02 42.0865 146.838 41.026 151.868 40.3594C156.867 39.6625 161.867 39.2686 166.866 39.1171C171.866 38.9959 176.502 38.905 180.744 38.905C180.744 33.4207 178.774 29.0575 174.865 25.8458C170.957 22.634 166.321 20.9978 160.988 20.9978C155.655 20.9978 151.292 22.0583 147.111 24.1793C142.929 26.3003 139.202 29.209 135.9 32.9056L119.447 16.0286C125.204 10.6958 131.93 6.66596 139.596 3.99958C147.262 1.33319 155.231 0 163.442 0C172.502 0 179.925 1.12109 185.743 3.39358C191.561 5.66607 196.227 8.96875 199.711 13.3622C203.196 17.7557 205.65 23.1188 207.013 29.512C208.377 35.875 209.074 43.2682 209.074 51.6309V102.413H180.683V89.8693L180.774 89.8996ZM173.169 58.6302C170.835 58.6302 167.927 58.7211 164.412 58.9332C160.927 59.1453 157.564 59.721 154.322 60.6906C151.11 61.6602 148.353 63.0843 146.081 65.0235C143.808 66.9323 142.687 69.629 142.687 73.0529C142.687 76.7495 144.263 79.5068 147.414 81.2642C150.565 83.0519 153.868 83.9306 157.291 83.9306C160.291 83.9306 163.23 83.5064 166.018 82.6883C168.836 81.8702 171.32 80.6885 173.532 79.2038C175.714 77.6888 177.471 75.7799 178.774 73.4468C180.077 71.1137 180.744 68.3867 180.744 65.2053V58.6302H173.138H173.169Z" fill="#EEEEEE"/>
<path d="M231.339 2.48505H259.73V15.6655H260.154C261.396 13.8778 263.002 12.0598 264.972 10.2115C266.972 8.36322 269.305 6.69673 271.971 5.18173C274.637 3.66674 277.546 2.45475 280.697 1.48515C283.849 0.515559 287.212 0.0307617 290.787 0.0307617C298.18 0.0307617 304.907 1.30335 310.937 3.84854C316.966 6.39373 322.148 9.93881 326.45 14.5444C330.783 19.15 334.086 24.5736 336.419 30.9063C338.752 37.2087 339.903 44.1473 339.903 51.692C339.903 58.6912 338.843 65.3572 336.722 71.7505C334.601 78.1438 331.571 83.7795 327.662 88.7184C323.753 93.6573 318.996 97.5962 313.361 100.535C307.725 103.474 301.362 104.959 294.241 104.959C287.788 104.959 281.788 103.959 276.243 101.99C270.698 99.9899 266.123 96.5964 262.578 91.809H262.154V133.173H231.309V2.48505H231.339ZM259.73 52.4495C259.73 59.9941 261.881 66.0844 266.214 70.7506C270.547 75.4168 276.607 77.7498 284.424 77.7498C292.242 77.7498 298.302 75.4168 302.634 70.7506C306.967 66.0844 309.119 59.9941 309.119 52.4495C309.119 44.9048 306.967 38.8146 302.634 34.1484C298.302 29.4822 292.242 27.1491 284.424 27.1491C276.607 27.1491 270.547 29.4822 266.214 34.1484C261.881 38.8146 259.73 44.9048 259.73 52.4495Z" fill="#EEEEEE"/>
</svg>
