<svg width="145" height="177" viewBox="0 0 145 177" fill="none" xmlns="http://www.w3.org/2000/svg">
<path d="M0.632067 3.30301H38.3861V20.8211H38.9502C40.6022 18.4451 42.7377 16.0288 45.3567 13.5722C48.016 11.1157 51.1185 8.90075 54.6642 6.88717C58.21 4.8736 62.0781 3.26274 66.2685 1.97405C70.4589 0.68536 74.9314 0.0410156 79.6859 0.0410156C89.5172 0.0410156 98.4621 1.73242 106.48 5.11523C114.499 8.49803 121.389 13.2098 127.11 19.3311C132.872 25.4523 137.264 32.6609 140.366 41.0777C143.469 49.4542 145 58.6763 145 68.7039C145 78.0067 143.59 86.8664 140.769 95.3637C137.949 103.861 133.919 111.351 128.722 117.916C123.524 124.48 117.198 129.715 109.704 133.622C102.209 137.528 93.7479 139.501 84.2792 139.501C75.6969 139.501 67.719 138.172 60.3455 135.555C52.972 132.897 46.8878 128.386 42.1736 122.023H41.6095V177H0.591797V3.30301H0.632067ZM38.3861 69.7107C38.3861 79.7383 41.2469 87.8329 47.0087 94.0347C52.7705 100.237 60.829 103.337 71.2244 103.337C81.6199 103.337 89.6783 100.237 95.4402 94.0347C101.202 87.8329 104.063 79.7383 104.063 69.7107C104.063 59.6831 101.202 51.5886 95.4402 45.3867C89.6783 39.1849 81.6199 36.084 71.2244 36.084C60.829 36.084 52.7705 39.1849 47.0087 45.3867C41.2469 51.5886 38.3861 59.6831 38.3861 69.7107Z" fill="#EEEEEE"/>
</svg>
