<svg width="569" height="121" viewBox="0 0 569 121" fill="none" xmlns="http://www.w3.org/2000/svg">
<g clip-path="url(#clip0_754_385)">
<mask id="mask0_754_385" style="mask-type:alpha" maskUnits="userSpaceOnUse" x="-7" y="-2" width="592" height="69">
<path d="M-6.5459 -1.14771H584.355V66.5735H-6.5459V-1.14771Z" fill="#D9D9D9"/>
</mask>
<g mask="url(#mask0_754_385)">
<path fill-rule="evenodd" clip-rule="evenodd" d="M508.413 0.140869L520.13 39.7409L531.91 0.140869H568.639L537.394 76.8562V120.357H503.002V76.858L471.674 0.140869H508.413ZM506.72 76.1281V116.639H533.676V76.1281L563.11 3.8589H534.683L520.12 52.813L505.636 3.8589H477.208L506.72 76.1281Z" fill="#FFF429"/>
<path fill-rule="evenodd" clip-rule="evenodd" d="M390.842 3.8589V24.8503H417.41V116.639H443.978V24.8503H471.321V3.8589H390.842ZM447.696 28.5683V120.357H413.692V28.5683H387.124V0.140869H475.039V28.5683H447.696Z" fill="#FFF429"/>
<path fill-rule="evenodd" clip-rule="evenodd" d="M384.102 0.140869V120.357H350.253V0.140869H384.102ZM380.384 3.8589H353.971V116.639H380.384V3.8589Z" fill="#FFF429"/>
<path fill-rule="evenodd" clip-rule="evenodd" d="M344.908 92.0072V120.357H272.872V0.140869H306.799V92.0072H344.908ZM303.081 95.7252H341.19V116.639H276.59V3.8589H303.081V95.7252Z" fill="#FFF429"/>
<path fill-rule="evenodd" clip-rule="evenodd" d="M220.858 37.258L212.063 74.5789H229.653L220.858 37.258ZM224.957 70.8609L220.858 53.4678L216.759 70.8609H224.957ZM233.213 3.8589L268.069 116.639H239.564L234.599 95.5703H207.117L202.152 116.639H173.647L208.426 3.8589H233.213ZM205.682 0.140869L168.609 120.357H205.095L210.06 99.2883H231.656L236.621 120.357H273.11L235.955 0.140869H205.682Z" fill="#FFF429"/>
<path fill-rule="evenodd" clip-rule="evenodd" d="M173.414 92.0072V120.357H99.3633V0.140869H173.646V28.5683H133.29V44.9121H166.985V72.565H133.29V92.0072H173.414ZM129.572 95.7252H169.696V116.639H103.081V3.8589H169.928V24.8503H129.572V48.6302H163.267V68.847H129.572V95.7252Z" fill="#FFF429"/>
<path fill-rule="evenodd" clip-rule="evenodd" d="M9.43359 0.140869H51.7262C59.6841 0.140869 66.7769 1.50344 72.8973 4.36343C79.0746 7.25 83.8927 11.5761 87.2335 17.3143C90.6417 23.079 92.2372 30.018 92.2372 37.9408C92.2372 44.6757 91.3801 50.5481 89.522 55.4349C87.753 60.2211 85.1975 64.2995 81.8058 67.5721L81.7935 67.584L81.7812 67.5957C80.3486 68.9528 78.811 70.2 77.1711 71.3384L95.2581 114.733V120.357H60.5969L44.6466 80.5433H43.3606V120.357H9.43359V0.140869ZM39.6426 76.8252H47.1624L63.1126 116.639H91.5401V115.477L72.5372 69.8848C73.6403 69.2414 74.6961 68.553 75.7045 67.8197C76.95 66.9139 78.1232 65.9396 79.2241 64.8966C82.1676 62.0564 84.4397 58.4675 86.0405 54.1298C87.693 49.7921 88.5192 44.3958 88.5192 37.9408C88.5192 30.5048 87.0217 24.2564 84.0266 19.1958C81.0831 14.1351 76.8487 10.3138 71.3233 7.73185C65.7979 5.14988 59.2655 3.8589 51.7262 3.8589H13.1516V116.639H39.6426V76.8252ZM51.1065 55.8339C53.5336 55.8339 55.5475 55.2142 57.1483 53.9748C58.7491 52.7355 59.9368 50.9798 60.7114 48.7076C61.5377 46.3839 61.9508 43.6212 61.9508 40.4195C61.9508 37.1663 61.5635 34.3777 60.7889 32.054C60.0143 29.7302 58.8782 27.9486 57.3807 26.7093C55.9348 25.4699 54.0499 24.8503 51.7262 24.8503H39.6426V55.8339H51.1065ZM43.3606 52.1158H51.1065C52.8788 52.1158 54.0451 51.6752 54.8722 51.0349C55.7972 50.3188 56.6082 49.221 57.1923 47.5079L57.2001 47.4849L57.2082 47.4621C57.857 45.6373 58.2327 43.3166 58.2327 40.4195C58.2327 37.4429 57.8761 35.0731 57.2616 33.2297C56.6503 31.3956 55.8485 30.2674 55.0102 29.5736L54.9854 29.5531L54.961 29.5322C54.3289 28.9904 53.3658 28.5683 51.7262 28.5683H43.3606V52.1158Z" fill="#FFF429"/>
</g>
<mask id="mask1_754_385" style="mask-type:alpha" maskUnits="userSpaceOnUse" x="-16" y="66" width="592" height="56">
<path d="M-15.8418 66.5732H575.059V121.016H-15.8418V66.5732Z" fill="#D9D9D9"/>
</mask>
<g mask="url(#mask1_754_385)">
<path fill-rule="evenodd" clip-rule="evenodd" d="M499.118 0.140625L510.835 39.7406L522.615 0.140625H559.344L528.099 76.8559V120.357H493.707V76.8577L462.379 0.140625H499.118ZM497.425 76.1279V116.639H524.381V76.1279L553.815 3.85865H525.388L510.826 52.8127L496.341 3.85865H467.913L497.425 76.1279Z" fill="#FFF429"/>
<path fill-rule="evenodd" clip-rule="evenodd" d="M381.547 3.85865V24.85H408.115V116.639H434.683V24.85H462.026V3.85865H381.547ZM438.402 28.5681V120.357H404.397V28.5681H377.829V0.140625H465.745V28.5681H438.402Z" fill="#FFF429"/>
<path fill-rule="evenodd" clip-rule="evenodd" d="M374.808 0.140625V120.357H340.958V0.140625H374.808ZM371.09 3.85865H344.676V116.639H371.09V3.85865Z" fill="#FFF429"/>
<path fill-rule="evenodd" clip-rule="evenodd" d="M335.613 92.0069V120.357H263.577V0.140625H297.504V92.0069H335.613ZM293.786 95.725H331.895V116.639H267.295V3.85865H293.786V95.725Z" fill="#FFF429"/>
<path fill-rule="evenodd" clip-rule="evenodd" d="M211.563 37.2577L202.768 74.5787H220.358L211.563 37.2577ZM215.662 70.8606L211.563 53.4675L207.464 70.8606H215.662ZM223.918 3.85865L258.774 116.639H230.269L225.304 95.5701H197.822L192.857 116.639H164.352L199.131 3.85865H223.918ZM196.387 0.140625L159.314 120.357H195.8L200.765 99.2881H222.361L227.326 120.357H263.815L226.66 0.140625H196.387Z" fill="#FFF429"/>
<path fill-rule="evenodd" clip-rule="evenodd" d="M164.119 92.0069V120.357H90.0684V0.140625H164.352V28.5681H123.995V44.9119H157.69V72.5648H123.995V92.0069H164.119ZM120.277 95.725H160.401V116.639H93.7864V3.85865H160.633V24.85H120.277V48.6299H153.972V68.8467H120.277V95.725Z" fill="#FFF429"/>
<path fill-rule="evenodd" clip-rule="evenodd" d="M0.138672 0.140625H42.4313C50.3891 0.140625 57.482 1.50319 63.6024 4.36319C69.7797 7.24976 74.5977 11.5758 77.9385 17.3141C81.3468 23.0788 82.9423 30.0177 82.9423 37.9406C82.9423 44.6755 82.0852 50.5479 80.2271 55.4346C78.4581 60.2209 75.9025 64.2992 72.5109 67.5719L72.4986 67.5837L72.4863 67.5954C71.0537 68.9526 69.516 70.1998 67.8762 71.3381L85.9632 114.733V120.357H51.3019L35.3517 80.543H34.0657V120.357H0.138672V0.140625ZM30.3477 76.825H37.8674L53.8177 116.639H82.2452V115.477L63.2423 69.8845C64.3454 69.2412 65.4012 68.5528 66.4096 67.8194C67.655 66.9137 68.8282 65.9393 69.9292 64.8963C72.8726 62.0562 75.1448 58.4672 76.7456 54.1295C78.398 49.7918 79.2243 44.3955 79.2243 37.9406C79.2243 30.5045 77.7267 24.2562 74.7317 19.1955C71.7882 14.1349 67.5538 10.3136 62.0284 7.7316C56.503 5.14964 49.9706 3.85865 42.4313 3.85865H3.8567V116.639H30.3477V76.825ZM41.8116 55.8336C44.2386 55.8336 46.2526 55.2139 47.8534 53.9746C49.4542 52.7353 50.6419 50.9795 51.4165 48.7074C52.2427 46.3836 52.6558 43.6209 52.6558 40.4193C52.6558 37.166 52.2685 34.3775 51.494 32.0537C50.7194 29.7299 49.5833 27.9484 48.0858 26.709C46.6399 25.4697 44.755 24.85 42.4313 24.85H30.3477V55.8336H41.8116ZM34.0657 52.1156H41.8116C43.5839 52.1156 44.7502 51.675 45.5773 51.0347C46.5023 50.3185 47.3133 49.2208 47.8973 47.5077L47.9052 47.4847L47.9133 47.4618C48.5621 45.6371 48.9378 43.3164 48.9378 40.4193C48.9378 37.4427 48.5812 35.0728 47.9667 33.2295C47.3553 31.3953 46.5535 30.2671 45.7153 29.5734L45.6905 29.5529L45.6661 29.532C45.0339 28.9901 44.0709 28.5681 42.4313 28.5681H34.0657V52.1156Z" fill="#FFF429"/>
</g>
</g>
<defs>
<clipPath id="clip0_754_385">
<rect width="569" height="121" fill="white"/>
</clipPath>
</defs>
</svg>
