<svg width="1417" height="319" viewBox="0 0 1417 319" fill="none" xmlns="http://www.w3.org/2000/svg">
<path fill-rule="evenodd" clip-rule="evenodd" d="M1250.28 0.104492L1270.17 107.849L1327.8 0.104492H1416.39L1293.62 205.394L1274.1 318.836H1196.88L1218.43 195.804L1169.29 0.104492H1250.28ZM1233.35 195.262L1214.26 304.23H1261.79L1279.68 200.234L1390.64 14.711H1336.55L1263.38 151.517L1238.12 14.711H1188.02L1233.35 195.262Z" fill="#FFF429"/>
<path fill-rule="evenodd" clip-rule="evenodd" d="M1169.32 14.711L1162.17 55.2755H1090.49L1047.23 304.23H1000.51L1043.76 55.2755H972.667L979.825 14.711H1169.32ZM967.57 0.104492L955.257 69.882H1026.4L983.142 318.836H1059.52L1102.78 69.882H1174.42L1186.73 0.104492H967.57Z" fill="#FFF429"/>
<path fill-rule="evenodd" clip-rule="evenodd" d="M964.788 0.104492L909.185 318.836H832.615L887.999 0.104492H964.788ZM947.413 14.711H900.287L849.979 304.23H896.906L947.413 14.711Z" fill="#FFF429"/>
<path fill-rule="evenodd" clip-rule="evenodd" d="M835.589 249.258L823.25 318.836H642.122L697.506 0.104492H774.283L730.99 249.258H835.589ZM713.626 263.864H818.164L811.006 304.23H659.486L709.793 14.711H756.92L713.626 263.864Z" fill="#FFF429"/>
<path fill-rule="evenodd" clip-rule="evenodd" d="M587.901 14.711L626.875 304.23H579.152L572.435 237.219H486.904L457.061 304.23H406.555L545.746 14.711H587.901ZM504.969 196.654H568.369L556.721 80.4454L504.969 196.654ZM547.676 136.66L527.463 182.048H552.225L547.676 136.66ZM536.562 0.104492L383.325 318.836H466.546L496.388 251.825H559.22L565.937 318.836H643.58L600.673 0.104492H536.562Z" fill="#FFF429"/>
<path fill-rule="evenodd" clip-rule="evenodd" d="M413.241 249.258L400.902 318.836H214.604L269.989 0.104492H455.099L443.127 69.882H334.641L325.827 120.605H419.166L407.095 189.587H313.84L303.472 249.258H413.241ZM286.108 263.864H395.816L388.658 304.23H231.968L282.276 14.711H437.773L430.813 55.2755H322.354L308.464 135.211H401.782L394.822 174.98H301.553L286.108 263.864Z" fill="#FFF429"/>
<path fill-rule="evenodd" clip-rule="evenodd" d="M55.8374 0.074707L150.485 0.303879L150.692 0.310242C169.767 0.897156 186.759 5.18102 200.877 14.0202C215.002 22.6482 225.415 34.8162 231.883 50.1426C238.464 65.4229 240.576 82.7688 238.966 101.654C237.645 117.207 234.008 131.466 227.796 144.2C221.621 156.859 213.162 167.807 202.487 176.935C197.141 181.506 191.316 185.653 185.039 189.389L214.759 299.509V318.836H138.33L111.646 207.682H96.5754L77.2211 318.836H0.448242L55.8374 0.074707ZM84.2924 193.075H123.161L149.845 304.23H200.153V301.446L167.924 182.032C172.575 179.769 176.956 177.316 181.067 174.673C185.333 171.931 189.309 168.985 192.994 165.833C202.141 158.012 209.366 148.666 214.669 137.796C219.971 126.926 223.219 114.465 224.412 100.413C225.87 83.3126 223.882 68.4655 218.447 55.872C213.144 43.2785 204.726 33.4688 193.193 26.4429C181.793 19.2845 167.476 15.4401 150.243 14.9099L68.1196 14.711L17.8117 304.23H64.9381L84.2924 193.075ZM125.785 152.908C135.727 152.776 144.277 150.522 151.436 146.148C158.727 141.773 164.56 135.808 168.934 128.252C173.309 120.696 176.026 112.211 177.087 102.799C178.147 95.1108 178.081 87.7535 176.888 80.7276C175.827 73.5692 173.044 67.6701 168.536 63.0304C164.162 58.3907 157.467 55.872 148.453 55.4743L108.286 55.2755L91.3357 152.625L125.785 152.908ZM108.681 138.161L125.738 138.301C133.474 138.177 139.31 136.44 143.819 133.684L143.87 133.653L143.921 133.623C149.031 130.557 153.124 126.408 156.293 120.933C159.575 115.265 161.718 108.744 162.572 101.164L162.592 100.984L162.617 100.804C163.492 94.4594 163.41 88.6059 162.488 83.173L162.462 83.0209L162.439 82.8682C161.772 78.363 160.183 75.3936 158.059 73.2081L157.984 73.1299L157.909 73.0507C157.068 72.1593 154.676 70.4131 148.073 70.0791L120.559 69.9429L108.681 138.161Z" fill="#FFF429"/>
</svg>
