<svg width="1121" height="245" viewBox="0 0 1121 245" fill="none" xmlns="http://www.w3.org/2000/svg">
<g clip-path="url(#clip0_746_46)">
<mask id="mask0_746_46" style="mask-type:alpha" maskUnits="userSpaceOnUse" x="-63" y="146" width="1216" height="115">
<rect x="-62.9717" y="146.425" width="1215" height="114.197" fill="#D9D9D9"/>
</mask>
<g mask="url(#mask0_746_46)">
<path d="M1017.19 0.495239L1044.06 122.915L1113.92 0.495239H1149.52L1057.3 144.493L1038.85 244.999H1008.63L1027.92 140.799L984.444 0.495239H1017.19Z" fill="#FFF429"/>
<path d="M904.51 0.495239L862.024 244.999H832.133L874.619 0.495239H904.51ZM966.812 0.495239L962.11 27.028H807.615L812.317 0.495239H966.812Z" fill="#FFF429"/>
<path d="M780.915 0.495239L738.429 244.999H708.202L750.688 0.495239H780.915Z" fill="#FFF429"/>
<path d="M675.96 218.635L671.258 244.999H572.684L577.386 218.635H675.96ZM620.711 0.495239L578.225 244.999H548.166L590.484 0.495239H620.711Z" fill="#FFF429"/>
<path d="M471.087 23.8373L368.483 244.999H336.576L455.47 0.495239H475.453L471.087 23.8373ZM485.529 244.999L459.164 20.3108L462.355 0.495239H481.331L515.252 244.999H485.529ZM500.978 154.486L496.276 181.018H381.749L386.451 154.486H500.978Z" fill="#FFF429"/>
<path d="M322.134 218.635L317.432 244.999H214.324L219.026 218.635H322.134ZM262.352 0.495239L219.866 244.999H189.807L232.125 0.495239H262.352ZM327.844 105.619L323.31 131.983H233.972L238.674 105.619H327.844ZM358.407 0.495239L353.705 27.028H252.108L256.81 0.495239H358.407Z" fill="#FFF429"/>
<path d="M55.2955 0.495239L119.612 0.66317C134.054 1.11098 145.921 4.41357 155.213 10.571C164.617 16.6164 171.334 24.9568 175.365 35.5923C179.507 46.1158 180.962 58.4306 179.731 72.5366C178.723 84.0677 175.812 94.4233 170.998 103.603C166.296 112.783 159.915 120.62 151.854 127.113C143.906 133.607 134.558 138.756 123.81 142.563L115.078 145.921H53.9521L58.1503 119.557L99.1249 119.892C108.529 119.781 116.813 117.709 123.978 113.679C131.143 109.537 136.909 103.883 141.275 96.7183C145.753 89.5534 148.496 81.4368 149.503 72.3687C150.511 64.4201 150.287 57.0872 148.832 50.37C147.376 43.6529 144.242 38.2232 139.428 34.081C134.726 29.8268 127.897 27.5317 118.94 27.1959L80.9886 27.028L43.0368 244.999H12.9775L55.2955 0.495239ZM127.505 244.999L99.6287 134.166L129.352 133.998L159.915 242.816L159.747 244.999H127.505Z" fill="#FFF429"/>
</g>
<mask id="mask1_746_46" style="mask-type:alpha" maskUnits="userSpaceOnUse" x="-93" y="-16" width="1216" height="163">
<rect x="-92.1836" y="-15.5737" width="1215" height="162" fill="#D9D9D9"/>
</mask>
<g mask="url(#mask1_746_46)">
<path d="M987.979 0.495972L1014.85 122.916L1084.71 0.495972H1120.31L1025.09 155.494L1009.64 245H979.415L995.704 151.8L955.233 0.495972H987.979Z" fill="#FFF429"/>
<path d="M875.299 0.495972L832.813 245H802.922L845.408 0.495972H875.299ZM937.601 0.495972L932.899 27.0287H778.404L783.106 0.495972H937.601Z" fill="#FFF429"/>
<path d="M751.704 0.495972L709.218 245H678.991L721.477 0.495972H751.704Z" fill="#FFF429"/>
<path d="M646.749 218.635L642.047 245H543.473L548.175 218.635H646.749ZM591.5 0.495972L549.014 245H518.955L561.273 0.495972H591.5Z" fill="#FFF429"/>
<path d="M441.876 23.8381L339.272 245H307.365L426.259 0.495972H446.242L441.876 23.8381ZM456.318 245L429.953 20.3115L433.144 0.495972H452.12L486.041 245H456.318ZM471.767 154.487L467.065 181.019H352.538L357.24 154.487H471.767Z" fill="#FFF429"/>
<path d="M292.923 218.635L288.221 245H185.113L189.815 218.635H292.923ZM233.141 0.495972L190.655 245H160.596L202.914 0.495972H233.141ZM298.633 105.619L294.099 131.984H204.761L209.463 105.619H298.633ZM329.196 0.495972L324.494 27.0287H222.897L227.599 0.495972H329.196Z" fill="#FFF429"/>
<path d="M26.0846 0.495972L90.4013 0.663902C104.843 1.11171 116.71 4.4143 126.002 10.5717C135.406 16.6171 142.123 24.9576 146.154 35.593C150.296 46.1166 151.751 58.4313 150.52 72.5373C149.512 84.0684 146.601 94.424 141.787 103.604C137.085 112.784 130.704 120.621 122.644 127.114C114.695 133.607 105.347 138.757 94.5995 142.564L85.8672 146.922H24.7412L28.9394 119.557L69.914 119.893C79.318 119.781 87.6025 117.71 94.7674 113.68C101.932 109.538 107.698 103.884 112.064 96.7191C116.542 89.5541 119.285 81.4376 120.293 72.3694C121.3 64.4208 121.076 57.0879 119.621 50.3708C118.165 43.6536 115.031 38.2239 110.217 34.0817C105.515 29.8275 98.6857 27.5325 89.7296 27.1966L51.7777 27.0287L13.8258 245H-16.2334L26.0846 0.495972ZM98.2939 245L70.4178 134.167L100.141 133.999L130.704 242.817L130.536 245H98.2939Z" fill="#FFF429"/>
</g>
</g>
<defs>
<clipPath id="clip0_746_46">
<rect width="1121" height="245" fill="white"/>
</clipPath>
</defs>
</svg>
