<svg width="649" height="121" viewBox="0 0 649 121" fill="none" xmlns="http://www.w3.org/2000/svg">
<g clip-path="url(#clip0_754_387)">
<path d="M569.769 0.163818L597.821 57.8431L625.872 0.163818H648.944L608.278 76.5162V121H587.281V76.5162L546.615 0.163818H569.769Z" fill="#FFF429"/>
<path d="M503.044 0.163818V121H482.379V0.163818H503.044ZM540.972 0.163818V16.7622H444.784V0.163818H540.972Z" fill="#FFF429"/>
<path d="M429.929 0.163818V121H409.098V0.163818H429.929Z" fill="#FFF429"/>
<path d="M391.586 104.484V121H330.919V104.484H391.586ZM336.729 0.163818V121H315.898V0.163818H336.729Z" fill="#FFF429"/>
<path d="M250.251 16.2642L214.15 121H192.323L237.803 0.163818H251.745L250.251 16.2642ZM280.46 121L244.276 16.2642L242.699 0.163818H256.725L302.37 121H280.46ZM278.718 76.1842V92.6996H212.988V76.1842H278.718Z" fill="#FFF429"/>
<path d="M186.182 104.484V121H122.029V104.484H186.182ZM127.922 0.163818V121H107.091V0.163818H127.922ZM177.8 50.6228V66.8892H122.029V50.6228H177.8ZM185.767 0.163818V16.7622H122.029V0.163818H185.767Z" fill="#FFF429"/>
<path d="M0.03125 0.163818H42.772C51.9564 0.163818 59.7853 1.54701 66.2587 4.3134C72.732 7.0798 77.6838 11.1741 81.1142 16.5962C84.5998 21.963 86.3427 28.6023 86.3427 36.5142C86.3427 42.5449 85.2361 47.8564 83.023 52.4486C80.8099 57.0408 77.6839 60.9138 73.6449 64.0675C69.606 67.1658 64.7925 69.5726 59.2044 71.2877L52.897 74.3584H14.4718L14.3058 57.8431H43.104C48.0835 57.8431 52.233 56.9578 55.5527 55.1873C58.8724 53.4168 61.3621 51.0101 63.022 47.9671C64.7371 44.8687 65.5947 41.383 65.5947 37.5101C65.5947 33.3052 64.7648 29.6535 63.105 26.5552C61.5005 23.4015 59.0107 20.9947 55.6357 19.3349C52.2607 17.6197 47.9728 16.7622 42.772 16.7622H20.8622V121H0.03125V0.163818ZM68.9974 121L40.6142 66.7232L62.441 66.6402L91.2392 119.921V121H68.9974Z" fill="#FFF429"/>
</g>
<defs>
<clipPath id="clip0_754_387">
<rect width="648.912" height="120.836" fill="white" transform="translate(0.03125 0.163818)"/>
</clipPath>
</defs>
</svg>
