<svg width="328" height="401" viewBox="0 0 328 401" fill="none" xmlns="http://www.w3.org/2000/svg">
<path d="M240.176 121.887C222.821 100.453 199.875 89.6775 171.338 89.6775C161.321 89.6775 151.537 91.9948 142.102 96.7452C132.668 101.496 127.892 109.606 127.892 121.076C127.892 130.461 132.784 137.413 142.568 141.932C152.352 146.334 164.699 150.274 179.724 153.749C194.75 157.11 210.824 160.817 227.946 164.756C245.068 168.696 261.142 174.836 276.168 183.179C291.193 191.521 303.54 202.991 313.324 217.358C323.108 231.841 328 251.074 328 275.173C328 299.273 322.642 320.128 311.81 336.117C300.977 352.106 287.116 364.967 270.344 374.699C253.455 384.432 234.469 391.268 213.386 395.091C192.304 399.03 171.455 401 150.955 401C124.048 401 96.9091 397.177 69.5369 389.645C42.1648 381.999 18.9858 368.558 0 349.094L71.983 269.612C83.0483 283.284 95.2784 293.595 108.79 300.663C122.185 307.731 137.909 311.322 155.847 311.322C169.591 311.322 181.937 309.353 193.003 305.413C204.068 301.474 209.659 294.291 209.659 283.747C209.659 273.204 204.767 266.368 194.983 261.386C185.199 256.404 172.852 252.233 157.827 248.757C142.801 245.397 126.727 241.689 109.605 237.75C92.483 233.81 76.4091 227.901 61.3835 220.023C46.358 212.144 34.0114 201.021 24.2273 186.654C14.4432 172.287 9.55114 152.938 9.55114 128.839C9.55114 106.246 14.2102 86.8968 23.4119 70.6761C32.6136 54.4554 44.7273 41.0153 59.7528 30.5877C74.7784 20.1601 92.017 12.3973 111.585 7.4152C131.037 2.43311 150.838 0 170.872 0C196.148 0 221.773 3.7076 247.514 11.0069C273.372 18.3063 295.153 31.3987 313.091 50.2843L240.176 121.887Z" fill="#141314"/>
</svg>
