<svg width="480" height="114" viewBox="0 0 480 114" fill="none" xmlns="http://www.w3.org/2000/svg">
<mask id="mask0_690_27" style="mask-type:alpha" maskUnits="userSpaceOnUse" x="0" y="60" width="480" height="54">
<rect y="60" width="480" height="54" fill="#D9D9D9"/>
</mask>
<g mask="url(#mask0_690_27)">
<mask id="path-2-outside-1_690_27" maskUnits="userSpaceOnUse" x="-20.5513" y="-1.92188" width="531" height="117" fill="black">
<rect fill="white" x="-20.5513" y="-1.92188" width="531" height="117"/>
<path d="M30.5102 81.701C30.5102 80.0389 30.3391 78.548 29.9969 77.2281C29.7036 75.8593 29.0925 74.5884 28.1637 73.4151C27.2838 72.2419 25.9395 71.0687 24.1308 69.8955C22.3221 68.6734 19.9023 67.4024 16.8715 66.0825C13.0586 64.5183 9.31896 62.7584 5.65266 60.8031C1.98636 58.7988 -1.3133 56.4768 -4.24634 53.8371C-7.1305 51.1485 -9.45249 48.0199 -11.2123 44.4514C-12.9721 40.834 -13.852 36.63 -13.852 31.8393C-13.852 27.2442 -12.9721 23.1135 -11.2123 19.4472C-9.4036 15.7321 -6.93496 12.579 -3.80639 9.98819C-0.628928 7.34845 3.1107 5.34421 7.41249 3.97546C11.7143 2.55782 16.4071 1.84901 21.4911 1.84901C28.2371 1.84901 34.1765 3.21776 39.3093 5.95526C44.491 8.64388 48.5239 12.4813 51.4081 17.4674C54.3411 22.4047 55.8076 28.2464 55.8076 34.9923H30.8035C30.8035 32.3037 30.4613 29.9328 29.7769 27.8797C29.0925 25.8266 28.0171 24.2134 26.5506 23.0402C25.1329 21.867 23.2509 21.2804 20.9045 21.2804C18.8025 21.2804 17.0182 21.7692 15.5517 22.7469C14.134 23.7246 13.0586 25.0445 12.3253 26.7065C11.5921 28.3197 11.2254 30.1039 11.2254 32.0593C11.2254 33.6725 11.5921 35.139 12.3253 36.4589C13.0586 37.7298 14.0607 38.9275 15.3317 40.0518C16.6516 41.1762 18.167 42.2516 19.8779 43.2782C21.6377 44.3047 23.5198 45.3069 25.524 46.2845C30.3635 48.0932 34.6409 50.1219 38.356 52.3706C42.1201 54.5704 45.2731 57.0879 47.8151 59.9232C50.3571 62.7096 52.2635 65.887 53.5345 69.4555C54.8544 73.0241 55.5143 77.057 55.5143 81.5543C55.5143 86.345 54.7322 90.5979 53.1679 94.313C51.6525 98.0282 49.4283 101.181 46.4952 103.772C43.5622 106.314 40.0181 108.245 35.863 109.565C31.7567 110.885 27.1127 111.545 21.931 111.545C17.1893 111.545 12.5209 110.86 7.92577 109.492C3.37956 108.074 -0.751138 105.923 -4.46632 103.039C-8.13262 100.106 -11.0657 96.3662 -13.2654 91.82C-15.4652 87.2249 -16.5651 81.7743 -16.5651 75.4683H8.65903C8.65903 78.5968 8.90345 81.2366 9.39229 83.3875C9.88113 85.5384 10.6388 87.2738 11.6654 88.5936C12.7408 89.8646 14.1096 90.7934 15.7716 91.38C17.4337 91.9177 19.4868 92.1866 21.931 92.1866C24.1797 92.1866 25.9151 91.7222 27.1372 90.7934C28.4082 89.8157 29.2881 88.5447 29.7769 86.9804C30.2657 85.3673 30.5102 83.6075 30.5102 81.701ZM129.574 90.2801V110.078H84.698V90.2801H129.574ZM93.4972 3.31552V110.078H68.4197V3.31552H93.4972ZM203.486 90.2801V110.078H156.777V90.2801H203.486ZM165.503 3.31552V110.078H140.426V3.31552H165.503ZM197.4 45.6979V64.836H156.777V45.6979H197.4ZM203.706 3.31552V23.1869H156.777V3.31552H203.706ZM276.812 90.2801V110.078H230.103V90.2801H276.812ZM238.829 3.31552V110.078H213.752V3.31552H238.829ZM270.726 45.6979V64.836H230.103V45.6979H270.726ZM277.032 3.31552V23.1869H230.103V3.31552H277.032ZM350.138 90.2801V110.078H303.429V90.2801H350.138ZM312.155 3.31552V110.078H287.078V3.31552H312.155ZM344.052 45.6979V64.836H303.429V45.6979H344.052ZM350.358 3.31552V23.1869H303.429V3.31552H350.358ZM423.464 90.2801V110.078H376.755V90.2801H423.464ZM385.481 3.31552V110.078H360.404V3.31552H385.481ZM417.378 45.6979V64.836H376.755V45.6979H417.378ZM423.684 3.31552V23.1869H376.755V3.31552H423.684ZM470.979 73.8551H449.641V53.9838H470.979C473.472 53.9838 475.477 53.3727 476.992 52.1506C478.556 50.9285 479.681 49.242 480.365 47.0911C481.098 44.8913 481.465 42.4227 481.465 39.6852C481.465 36.7522 481.098 34.0391 480.365 31.546C479.681 29.0529 478.556 27.0487 476.992 25.5333C475.477 23.969 473.472 23.1869 470.979 23.1869H458.807V110.078H433.73V3.31552H470.979C478.361 3.31552 484.716 4.87981 490.044 8.00839C495.421 11.137 499.552 15.4388 502.436 20.9138C505.369 26.3399 506.836 32.5481 506.836 39.5385C506.836 46.4312 505.369 52.4439 502.436 57.5767C499.552 62.7096 495.421 66.718 490.044 69.6022C484.716 72.4375 478.361 73.8551 470.979 73.8551Z"/>
</mask>
<path d="M29.9969 77.2281L26.5554 77.9656L26.5711 78.0388L26.5899 78.1114L29.9969 77.2281ZM28.1637 73.4151L25.348 75.5269L25.3756 75.5637L25.4042 75.5998L28.1637 73.4151ZM24.1308 69.8955L22.1603 72.8118L22.1877 72.8304L22.2154 72.8483L24.1308 69.8955ZM16.8715 66.0825L18.2768 62.8556L18.2423 62.8406L18.2074 62.8263L16.8715 66.0825ZM5.65266 60.8031L3.96439 63.8914L3.98033 63.9001L3.99636 63.9086L5.65266 60.8031ZM-4.24634 53.8371L-6.64631 56.4116L-6.62377 56.4326L-6.60086 56.4532L-4.24634 53.8371ZM-11.2123 44.4514L-14.3773 45.9911L-14.3732 45.9996L-14.369 46.0081L-11.2123 44.4514ZM-11.2123 19.4472L-14.3769 17.9066L-14.3811 17.9154L-14.3854 17.9242L-11.2123 19.4472ZM-3.80639 9.98819L-1.5615 12.699L-1.55726 12.6955L-3.80639 9.98819ZM7.41249 3.97546L8.47965 7.32942L8.4969 7.32393L8.51409 7.31827L7.41249 3.97546ZM39.3093 5.95526L37.653 9.06083L37.6706 9.07021L37.6883 9.07939L39.3093 5.95526ZM51.4081 17.4674L48.3614 19.2297L48.3716 19.2474L48.3821 19.265L51.4081 17.4674ZM55.8076 34.9923V38.512H59.3273V34.9923H55.8076ZM30.8035 34.9923H27.2838V38.512H30.8035V34.9923ZM26.5506 23.0402L24.3065 25.7517L24.329 25.7703L24.3519 25.7886L26.5506 23.0402ZM15.5517 22.7469L13.5993 19.8184L13.5763 19.8338L13.5534 19.8495L15.5517 22.7469ZM12.3253 26.7065L15.5295 28.1629L15.5376 28.1451L15.5455 28.1272L12.3253 26.7065ZM12.3253 36.4589L9.2486 38.1682L9.26243 38.193L9.27666 38.2177L12.3253 36.4589ZM15.3317 40.0518L12.9997 42.688L13.0243 42.7098L13.0493 42.7311L15.3317 40.0518ZM19.8779 43.2782L18.0671 46.2962L18.0857 46.3074L18.1045 46.3184L19.8779 43.2782ZM25.524 46.2845L23.9809 49.4479L24.1331 49.5222L24.2918 49.5815L25.524 46.2845ZM38.356 52.3706L36.5336 55.3817L36.5567 55.3957L36.5801 55.4094L38.356 52.3706ZM47.8151 59.9232L45.1945 62.2727L45.2046 62.284L45.2149 62.2953L47.8151 59.9232ZM53.5345 69.4555L50.2189 70.6364L50.226 70.6565L50.2334 70.6765L53.5345 69.4555ZM53.1679 94.313L49.9241 92.9472L49.9164 92.9654L49.9089 92.9837L53.1679 94.313ZM46.4952 103.772L48.8003 106.432L48.8129 106.421L48.8254 106.41L46.4952 103.772ZM35.863 109.565L34.7974 106.21L34.7859 106.214L35.863 109.565ZM7.92577 109.492L6.878 112.852L6.89945 112.858L6.92099 112.865L7.92577 109.492ZM-4.46632 103.039L-6.66503 105.787L-6.64495 105.803L-6.62464 105.819L-4.46632 103.039ZM-13.2654 91.82L-16.4401 93.3397L-16.4369 93.3464L-16.4337 93.353L-13.2654 91.82ZM-16.5651 75.4683V71.9486H-20.0848V75.4683H-16.5651ZM8.65903 75.4683H12.1787V71.9486H8.65903V75.4683ZM11.6654 88.5936L8.88715 90.7545L8.93169 90.8117L8.97854 90.8671L11.6654 88.5936ZM15.7716 91.38L14.6002 94.699L14.644 94.7145L14.6882 94.7288L15.7716 91.38ZM27.1372 90.7934L29.2668 93.5956L29.275 93.5894L29.2831 93.5832L27.1372 90.7934ZM29.7769 86.9804L33.1363 88.0303L33.1409 88.0157L33.1453 88.0012L29.7769 86.9804ZM34.0298 81.701C34.0298 79.8034 33.8351 78.0079 33.4039 76.3448L26.5899 78.1114C26.8431 79.088 26.9905 80.2745 26.9905 81.701H34.0298ZM33.4384 76.4906C33.0242 74.5575 32.1638 72.7975 30.9233 71.2305L25.4042 75.5998C26.0212 76.3792 26.383 77.1612 26.5554 77.9656L33.4384 76.4906ZM30.9794 71.3034C29.7637 69.6824 28.054 68.2451 26.0462 66.9427L22.2154 72.8483C23.825 73.8924 24.8039 74.8015 25.348 75.5269L30.9794 71.3034ZM26.1013 66.9792C24.0481 65.5919 21.4155 64.2225 18.2768 62.8556L15.4663 69.3095C18.3892 70.5824 20.5961 71.7549 22.1603 72.8118L26.1013 66.9792ZM18.2074 62.8263C14.5046 61.3072 10.8719 59.5977 7.30897 57.6975L3.99636 63.9086C7.76601 65.9191 11.6125 67.7293 15.5356 69.3388L18.2074 62.8263ZM7.34094 57.7148C3.90024 55.8339 0.826642 53.6676 -1.89182 51.221L-6.60086 56.4532C-3.45325 59.2861 0.072487 61.7638 3.96439 63.8914L7.34094 57.7148ZM-1.84638 51.2626C-4.41586 48.8673 -6.48259 46.0845 -8.05564 42.8947L-14.369 46.0081C-12.4224 49.9554 -9.84513 53.4297 -6.64631 56.4116L-1.84638 51.2626ZM-8.04732 42.9117C-9.53333 39.8571 -10.3324 36.1973 -10.3324 31.8393H-17.3717C-17.3717 37.0626 -16.4109 41.8109 -14.3773 45.9911L-8.04732 42.9117ZM-10.3324 31.8393C-10.3324 27.7026 -9.54291 24.1029 -8.03927 20.9703L-14.3854 17.9242C-16.4014 22.1242 -17.3717 26.7858 -17.3717 31.8393H-10.3324ZM-8.04776 20.9879C-6.45479 17.7158 -4.29682 14.9642 -1.56151 12.699L-6.05127 7.27739C-9.57311 10.1939 -12.3524 13.7483 -14.3769 17.9066L-8.04776 20.9879ZM-1.55726 12.6955C1.24043 10.3712 4.56954 8.57355 8.47965 7.32942L6.34532 0.621497C1.65185 2.11487 -2.49829 4.32568 -6.05551 7.28091L-1.55726 12.6955ZM8.51409 7.31827C12.4198 6.03115 16.7361 5.36865 21.4911 5.36865V-1.67064C16.0782 -1.67064 11.0087 -0.915505 6.31088 0.63265L8.51409 7.31827ZM21.4911 5.36865C27.752 5.36865 33.1059 6.6357 37.653 9.06083L40.9656 2.84969C35.2471 -0.200191 28.7221 -1.67064 21.4911 -1.67064V5.36865ZM37.6883 9.07939C42.2832 11.4636 45.8178 14.8323 48.3614 19.2297L54.4547 15.7051C51.2301 10.1303 46.6988 5.8242 40.9303 2.83112L37.6883 9.07939ZM48.3821 19.265C50.9394 23.5698 52.288 28.7674 52.288 34.9923H59.3273C59.3273 27.7253 57.7428 21.2396 54.434 15.6698L48.3821 19.265ZM55.8076 31.4727H30.8035V38.512H55.8076V31.4727ZM34.3231 34.9923C34.3231 32.0133 33.9449 29.2535 33.1159 26.7667L26.4379 28.9927C26.9777 30.6122 27.2838 32.5942 27.2838 34.9923H34.3231ZM33.1159 26.7667C32.2505 24.1704 30.8226 21.9505 28.7493 20.2918L24.3519 25.7886C25.2116 26.4764 25.9346 27.4828 26.4379 28.9927L33.1159 26.7667ZM28.7946 20.3287C26.5887 18.5031 23.84 17.7607 20.9045 17.7607V24.8C22.6618 24.8 23.6772 25.2308 24.3065 25.7517L28.7946 20.3287ZM20.9045 17.7607C18.2437 17.7607 15.7477 18.3861 13.5993 19.8184L17.504 25.6754C18.2887 25.1523 19.3612 24.8 20.9045 24.8V17.7607ZM13.5534 19.8495C11.5698 21.2175 10.0862 23.0621 9.10514 25.2858L15.5455 28.1272C16.031 27.0268 16.6983 26.2316 17.5499 25.6443L13.5534 19.8495ZM9.12116 25.2501C8.15934 27.3661 7.70579 29.6539 7.70579 32.0593H14.7451C14.7451 30.554 15.0248 29.2733 15.5295 28.1629L9.12116 25.2501ZM7.70579 32.0593C7.70579 34.2284 8.20501 36.2897 9.2486 38.1682L15.402 34.7496C14.9791 33.9883 14.7451 33.1166 14.7451 32.0593H7.70579ZM9.27666 38.2177C10.2269 39.8649 11.4877 41.3505 12.9997 42.688L17.6637 37.4156C16.6338 36.5045 15.8902 35.5948 15.374 34.7L9.27666 38.2177ZM13.0493 42.7311C14.5368 43.9983 16.2141 45.1845 18.0671 46.2962L21.6887 40.2601C20.1198 39.3187 18.7663 38.354 17.6141 37.3725L13.0493 42.7311ZM18.1045 46.3184C19.9462 47.3927 21.9056 48.4355 23.9809 49.4479L27.0671 43.1212C25.1339 42.1782 23.3293 41.2168 21.6513 40.238L18.1045 46.3184ZM24.2918 49.5815C28.9634 51.3274 33.0371 53.2654 36.5336 55.3817L40.1785 49.3595C36.2446 46.9785 31.7636 44.8591 26.7562 42.9876L24.2918 49.5815ZM36.5801 55.4094C40.0734 57.4509 42.929 59.7458 45.1945 62.2727L50.4357 57.5736C47.6172 54.43 44.1668 51.6898 40.1319 49.3318L36.5801 55.4094ZM45.2149 62.2953C47.4402 64.7345 49.1042 67.5066 50.2189 70.6364L56.8501 68.2746C55.4229 64.2674 53.2739 60.6846 50.4153 57.5511L45.2149 62.2953ZM50.2334 70.6765C51.3851 73.7902 51.9947 77.3996 51.9947 81.5543H59.034C59.034 76.7144 58.3237 72.2579 56.8356 68.2346L50.2334 70.6765ZM51.9947 81.5543C51.9947 85.9627 51.2754 89.7378 49.9241 92.9472L56.4117 95.6789C58.189 91.4579 59.034 86.7272 59.034 81.5543H51.9947ZM49.9089 92.9837C48.5929 96.2101 46.6814 98.9115 44.1651 101.134L48.8254 106.41C52.1751 103.451 54.7121 99.8463 56.4268 95.6424L49.9089 92.9837ZM44.1901 101.112C41.6608 103.304 38.5527 105.018 34.7974 106.21L36.9285 112.919C41.4835 111.472 45.4636 109.324 48.8003 106.432L44.1901 101.112ZM34.7859 106.214C31.0896 107.402 26.8183 108.025 21.931 108.025V115.064C27.4071 115.064 32.4238 114.367 36.94 112.916L34.7859 106.214ZM21.931 108.025C17.5333 108.025 13.2032 107.391 8.93054 106.118L6.92099 112.865C11.8385 114.329 16.8452 115.064 21.931 115.064V108.025ZM8.97353 106.131C4.82407 104.838 1.07043 102.881 -2.308 100.259L-6.62464 105.819C-2.57271 108.965 1.93504 111.31 6.878 112.852L8.97353 106.131ZM-2.26762 100.29C-5.49373 97.7096 -8.10834 94.3972 -10.0972 90.2869L-16.4337 93.353C-14.023 98.3351 -10.7715 102.502 -6.66503 105.787L-2.26762 100.29ZM-10.0908 90.3002C-12.016 86.2787 -13.0455 81.3705 -13.0455 75.4683H-20.0848C-20.0848 82.1781 -18.9144 88.1711 -16.4401 93.3397L-10.0908 90.3002ZM-16.5651 78.9879H8.65903V71.9486H-16.5651V78.9879ZM5.13938 75.4683C5.13938 78.7597 5.3946 81.679 5.96016 84.1675L12.8244 82.6074C12.4123 80.7941 12.1787 78.434 12.1787 75.4683H5.13938ZM5.96016 84.1675C6.5284 86.6678 7.46009 88.9197 8.88715 90.7545L14.4436 86.4328C13.8176 85.6278 13.2338 84.409 12.8244 82.6074L5.96016 84.1675ZM8.97854 90.8671C10.4813 92.6431 12.3851 93.9172 14.6002 94.699L16.9431 88.061C15.8341 87.6696 15.0004 87.0861 14.3522 86.3201L8.97854 90.8671ZM14.6882 94.7288C16.809 95.4149 19.254 95.7062 21.931 95.7062V88.6669C19.7197 88.6669 18.0584 88.4206 16.8551 88.0313L14.6882 94.7288ZM21.931 95.7062C24.6053 95.7062 27.2059 95.162 29.2668 93.5956L25.0075 87.9912C24.6243 88.2824 23.7541 88.6669 21.931 88.6669V95.7062ZM29.2831 93.5832C31.1413 92.1538 32.4367 90.2692 33.1363 88.0303L26.4175 85.9306C26.1395 86.8202 25.675 87.4776 24.9912 88.0036L29.2831 93.5832ZM33.1453 88.0012C33.7466 86.0169 34.0298 83.9087 34.0298 81.701H26.9905C26.9905 83.3062 26.7849 84.7176 26.4085 85.9597L33.1453 88.0012ZM129.574 90.2801H133.093V86.7605H129.574V90.2801ZM129.574 110.078V113.598H133.093V110.078H129.574ZM84.698 110.078H81.1784V113.598H84.698V110.078ZM84.698 90.2801V86.7605H81.1784V90.2801H84.698ZM93.4972 3.31552H97.0168V-0.204121H93.4972V3.31552ZM93.4972 110.078V113.598H97.0168V110.078H93.4972ZM68.4197 110.078H64.9V113.598H68.4197V110.078ZM68.4197 3.31552V-0.204121H64.9V3.31552H68.4197ZM126.054 90.2801V110.078H133.093V90.2801H126.054ZM129.574 106.558H84.698V113.598H129.574V106.558ZM88.2177 110.078V90.2801H81.1784V110.078H88.2177ZM84.698 93.7998H129.574V86.7605H84.698V93.7998ZM89.9775 3.31552V110.078H97.0168V3.31552H89.9775ZM93.4972 106.558H68.4197V113.598H93.4972V106.558ZM71.9393 110.078V3.31552H64.9V110.078H71.9393ZM68.4197 6.83517H93.4972V-0.204121H68.4197V6.83517ZM203.486 90.2801H207.006V86.7605H203.486V90.2801ZM203.486 110.078V113.598H207.006V110.078H203.486ZM156.777 110.078H153.258V113.598H156.777V110.078ZM156.777 90.2801V86.7605H153.258V90.2801H156.777ZM165.503 3.31552H169.023V-0.204121H165.503V3.31552ZM165.503 110.078V113.598H169.023V110.078H165.503ZM140.426 110.078H136.906V113.598H140.426V110.078ZM140.426 3.31552V-0.204121H136.906V3.31552H140.426ZM197.4 45.6979H200.92V42.1783H197.4V45.6979ZM197.4 64.836V68.3557H200.92V64.836H197.4ZM156.777 64.836H153.258V68.3557H156.777V64.836ZM156.777 45.6979V42.1783H153.258V45.6979H156.777ZM203.706 3.31552H207.226V-0.204121H203.706V3.31552ZM203.706 23.1869V26.7065H207.226V23.1869H203.706ZM156.777 23.1869H153.258V26.7065H156.777V23.1869ZM156.777 3.31552V-0.204121H153.258V3.31552H156.777ZM199.966 90.2801V110.078H207.006V90.2801H199.966ZM203.486 106.558H156.777V113.598H203.486V106.558ZM160.297 110.078V90.2801H153.258V110.078H160.297ZM156.777 93.7998H203.486V86.7605H156.777V93.7998ZM161.984 3.31552V110.078H169.023V3.31552H161.984ZM165.503 106.558H140.426V113.598H165.503V106.558ZM143.945 110.078V3.31552H136.906V110.078H143.945ZM140.426 6.83517H165.503V-0.204121H140.426V6.83517ZM193.88 45.6979V64.836H200.92V45.6979H193.88ZM197.4 61.3164H156.777V68.3557H197.4V61.3164ZM160.297 64.836V45.6979H153.258V64.836H160.297ZM156.777 49.2176H197.4V42.1783H156.777V49.2176ZM200.186 3.31552V23.1869H207.226V3.31552H200.186ZM203.706 19.6672H156.777V26.7065H203.706V19.6672ZM160.297 23.1869V3.31552H153.258V23.1869H160.297ZM156.777 6.83517H203.706V-0.204121H156.777V6.83517ZM276.812 90.2801H280.332V86.7605H276.812V90.2801ZM276.812 110.078V113.598H280.332V110.078H276.812ZM230.103 110.078H226.584V113.598H230.103V110.078ZM230.103 90.2801V86.7605H226.584V90.2801H230.103ZM238.829 3.31552H242.349V-0.204121H238.829V3.31552ZM238.829 110.078V113.598H242.349V110.078H238.829ZM213.752 110.078H210.232V113.598H213.752V110.078ZM213.752 3.31552V-0.204121H210.232V3.31552H213.752ZM270.726 45.6979H274.246V42.1783H270.726V45.6979ZM270.726 64.836V68.3557H274.246V64.836H270.726ZM230.103 64.836H226.584V68.3557H230.103V64.836ZM230.103 45.6979V42.1783H226.584V45.6979H230.103ZM277.032 3.31552H280.552V-0.204121H277.032V3.31552ZM277.032 23.1869V26.7065H280.552V23.1869H277.032ZM230.103 23.1869H226.584V26.7065H230.103V23.1869ZM230.103 3.31552V-0.204121H226.584V3.31552H230.103ZM273.292 90.2801V110.078H280.332V90.2801H273.292ZM276.812 106.558H230.103V113.598H276.812V106.558ZM233.623 110.078V90.2801H226.584V110.078H233.623ZM230.103 93.7998H276.812V86.7605H230.103V93.7998ZM235.31 3.31552V110.078H242.349V3.31552H235.31ZM238.829 106.558H213.752V113.598H238.829V106.558ZM217.271 110.078V3.31552H210.232V110.078H217.271ZM213.752 6.83517H238.829V-0.204121H213.752V6.83517ZM267.206 45.6979V64.836H274.246V45.6979H267.206ZM270.726 61.3164H230.103V68.3557H270.726V61.3164ZM233.623 64.836V45.6979H226.584V64.836H233.623ZM230.103 49.2176H270.726V42.1783H230.103V49.2176ZM273.512 3.31552V23.1869H280.552V3.31552H273.512ZM277.032 19.6672H230.103V26.7065H277.032V19.6672ZM233.623 23.1869V3.31552H226.584V23.1869H233.623ZM230.103 6.83517H277.032V-0.204121H230.103V6.83517ZM350.138 90.2801H353.658V86.7605H350.138V90.2801ZM350.138 110.078V113.598H353.658V110.078H350.138ZM303.429 110.078H299.91V113.598H303.429V110.078ZM303.429 90.2801V86.7605H299.91V90.2801H303.429ZM312.155 3.31552H315.675V-0.204121H312.155V3.31552ZM312.155 110.078V113.598H315.675V110.078H312.155ZM287.078 110.078H283.558V113.598H287.078V110.078ZM287.078 3.31552V-0.204121H283.558V3.31552H287.078ZM344.052 45.6979H347.572V42.1783H344.052V45.6979ZM344.052 64.836V68.3557H347.572V64.836H344.052ZM303.429 64.836H299.91V68.3557H303.429V64.836ZM303.429 45.6979V42.1783H299.91V45.6979H303.429ZM350.358 3.31552H353.878V-0.204121H350.358V3.31552ZM350.358 23.1869V26.7065H353.878V23.1869H350.358ZM303.429 23.1869H299.91V26.7065H303.429V23.1869ZM303.429 3.31552V-0.204121H299.91V3.31552H303.429ZM346.618 90.2801V110.078H353.658V90.2801H346.618ZM350.138 106.558H303.429V113.598H350.138V106.558ZM306.949 110.078V90.2801H299.91V110.078H306.949ZM303.429 93.7998H350.138V86.7605H303.429V93.7998ZM308.636 3.31552V110.078H315.675V3.31552H308.636ZM312.155 106.558H287.078V113.598H312.155V106.558ZM290.597 110.078V3.31552H283.558V110.078H290.597ZM287.078 6.83517H312.155V-0.204121H287.078V6.83517ZM340.532 45.6979V64.836H347.572V45.6979H340.532ZM344.052 61.3164H303.429V68.3557H344.052V61.3164ZM306.949 64.836V45.6979H299.91V64.836H306.949ZM303.429 49.2176H344.052V42.1783H303.429V49.2176ZM346.838 3.31552V23.1869H353.878V3.31552H346.838ZM350.358 19.6672H303.429V26.7065H350.358V19.6672ZM306.949 23.1869V3.31552H299.91V23.1869H306.949ZM303.429 6.83517H350.358V-0.204121H303.429V6.83517ZM423.464 90.2801H426.984V86.7605H423.464V90.2801ZM423.464 110.078V113.598H426.984V110.078H423.464ZM376.755 110.078H373.236V113.598H376.755V110.078ZM376.755 90.2801V86.7605H373.236V90.2801H376.755ZM385.481 3.31552H389.001V-0.204121H385.481V3.31552ZM385.481 110.078V113.598H389.001V110.078H385.481ZM360.404 110.078H356.884V113.598H360.404V110.078ZM360.404 3.31552V-0.204121H356.884V3.31552H360.404ZM417.378 45.6979H420.898V42.1783H417.378V45.6979ZM417.378 64.836V68.3557H420.898V64.836H417.378ZM376.755 64.836H373.236V68.3557H376.755V64.836ZM376.755 45.6979V42.1783H373.236V45.6979H376.755ZM423.684 3.31552H427.204V-0.204121H423.684V3.31552ZM423.684 23.1869V26.7065H427.204V23.1869H423.684ZM376.755 23.1869H373.236V26.7065H376.755V23.1869ZM376.755 3.31552V-0.204121H373.236V3.31552H376.755ZM419.944 90.2801V110.078H426.984V90.2801H419.944ZM423.464 106.558H376.755V113.598H423.464V106.558ZM380.275 110.078V90.2801H373.236V110.078H380.275ZM376.755 93.7998H423.464V86.7605H376.755V93.7998ZM381.961 3.31552V110.078H389.001V3.31552H381.961ZM385.481 106.558H360.404V113.598H385.481V106.558ZM363.923 110.078V3.31552H356.884V110.078H363.923ZM360.404 6.83517H385.481V-0.204121H360.404V6.83517ZM413.858 45.6979V64.836H420.898V45.6979H413.858ZM417.378 61.3164H376.755V68.3557H417.378V61.3164ZM380.275 64.836V45.6979H373.236V64.836H380.275ZM376.755 49.2176H417.378V42.1783H376.755V49.2176ZM420.164 3.31552V23.1869H427.204V3.31552H420.164ZM423.684 19.6672H376.755V26.7065H423.684V19.6672ZM380.275 23.1869V3.31552H373.236V23.1869H380.275ZM376.755 6.83517H423.684V-0.204121H376.755V6.83517ZM449.641 73.8551H446.122V77.3747H449.641V73.8551ZM449.641 53.9838V50.4641H446.122V53.9838H449.641ZM476.992 52.1506L474.825 49.377L474.804 49.3938L474.782 49.4109L476.992 52.1506ZM480.365 47.0911L477.026 45.9781L477.018 46.001L477.011 46.024L480.365 47.0911ZM480.365 31.546L476.971 32.4777L476.979 32.5085L476.988 32.5391L480.365 31.546ZM476.992 25.5333L474.464 27.9822L474.503 28.0224L474.543 28.0612L476.992 25.5333ZM458.807 23.1869V19.6672H455.287V23.1869H458.807ZM458.807 110.078V113.598H462.327V110.078H458.807ZM433.73 110.078H430.21V113.598H433.73V110.078ZM433.73 3.31552V-0.204121H430.21V3.31552H433.73ZM490.044 8.00839L488.262 11.0435L488.274 11.0506L490.044 8.00839ZM502.436 20.9138L499.322 22.5542L499.331 22.5708L499.34 22.5874L502.436 20.9138ZM502.436 57.5767L499.38 55.8305L499.374 55.8415L499.368 55.8526L502.436 57.5767ZM490.044 69.6022L491.697 72.7094L491.708 72.7039L490.044 69.6022ZM470.979 70.3355H449.641V77.3747H470.979V70.3355ZM453.161 73.8551V53.9838H446.122V73.8551H453.161ZM449.641 57.5034H470.979V50.4641H449.641V57.5034ZM470.979 57.5034C474.047 57.5034 476.902 56.7444 479.201 54.8904L474.782 49.4109C474.051 50.0011 472.898 50.4641 470.979 50.4641V57.5034ZM479.159 54.9242C481.356 53.2078 482.85 50.8888 483.719 48.1583L477.011 46.024C476.511 47.5952 475.757 48.6493 474.825 49.377L479.159 54.9242ZM483.704 48.2041C484.576 45.5874 484.984 42.7345 484.984 39.6852H477.945C477.945 42.1109 477.62 44.1953 477.026 45.9781L483.704 48.2041ZM484.984 39.6852C484.984 36.4585 484.581 33.4069 483.742 30.5529L476.988 32.5391C477.615 34.6713 477.945 37.0458 477.945 39.6852H484.984ZM483.759 30.6143C482.939 27.6285 481.535 25.0344 479.441 23.0053L474.543 28.0612C475.577 29.063 476.422 30.4774 476.971 32.4777L483.759 30.6143ZM479.52 23.0843C477.244 20.7347 474.275 19.6672 470.979 19.6672V26.7065C472.67 26.7065 473.709 27.2034 474.464 27.9822L479.52 23.0843ZM470.979 19.6672H458.807V26.7065H470.979V19.6672ZM455.287 23.1869V110.078H462.327V23.1869H455.287ZM458.807 106.558H433.73V113.598H458.807V106.558ZM437.249 110.078V3.31552H430.21V110.078H437.249ZM433.73 6.83517H470.979V-0.204121H433.73V6.83517ZM470.979 6.83517C477.857 6.83517 483.57 8.28892 488.262 11.0435L491.826 4.97325C485.861 1.47071 478.865 -0.204121 470.979 -0.204121V6.83517ZM488.274 11.0506C493.084 13.8491 496.747 17.6665 499.322 22.5542L505.55 19.2733C502.356 13.211 497.759 8.42487 491.814 4.96619L488.274 11.0506ZM499.34 22.5874C501.96 27.4342 503.316 33.0536 503.316 39.5385H510.355C510.355 32.0427 508.778 25.2455 505.532 19.2401L499.34 22.5874ZM503.316 39.5385C503.316 45.9212 501.962 51.312 499.38 55.8305L505.492 59.323C508.776 53.5759 510.355 46.9412 510.355 39.5385H503.316ZM499.368 55.8526C496.824 60.3801 493.19 63.9205 488.38 66.5005L491.708 72.7039C497.652 69.5155 502.28 65.0391 505.504 59.3009L499.368 55.8526ZM488.391 66.495C483.673 69.0055 477.911 70.3355 470.979 70.3355V77.3747C478.81 77.3747 485.758 75.8694 491.697 72.7093L488.391 66.495Z" fill="#FFF429" mask="url(#path-2-outside-1_690_27)"/>
</g>
<mask id="mask1_690_27" style="mask-type:alpha" maskUnits="userSpaceOnUse" x="0" y="0" width="480" height="60">
<rect width="480" height="60" fill="#D9D9D9"/>
</mask>
<g mask="url(#mask1_690_27)">
<mask id="path-5-outside-2_690_27" maskUnits="userSpaceOnUse" x="-26.3364" y="-1.68213" width="531" height="117" fill="black">
<rect fill="white" x="-26.3364" y="-1.68213" width="531" height="117"/>
<path d="M24.725 81.9407C24.725 80.2787 24.5539 78.7877 24.2117 77.4678C23.9184 76.0991 23.3074 74.8281 22.3786 73.6549C21.4987 72.4817 20.1544 71.3085 18.3456 70.1352C16.5369 68.9131 14.1172 67.6422 11.0864 66.3223C7.27343 64.758 3.5338 62.9982 -0.132494 61.0428C-3.79879 59.0386 -7.09846 56.7166 -10.0315 54.0769C-12.9157 51.3882 -15.2376 48.2597 -16.9975 44.6911C-18.7573 41.0737 -19.6372 36.8697 -19.6372 32.0791C-19.6372 27.484 -18.7573 23.3533 -16.9975 19.687C-15.1888 15.9718 -12.7201 12.8188 -9.59154 10.2279C-6.41408 7.5882 -2.67446 5.58396 1.62733 4.2152C5.92912 2.79757 10.622 2.08875 15.7059 2.08875C22.4519 2.08875 28.3913 3.4575 33.5241 6.19501C38.7058 8.88362 42.7388 12.721 45.6229 17.7072C48.5559 22.6445 50.0225 28.4861 50.0225 35.2321H25.0183C25.0183 32.5435 24.6761 30.1726 23.9917 28.1195C23.3074 26.0663 22.2319 24.4532 20.7654 23.28C19.3478 22.1067 17.4657 21.5201 15.1193 21.5201C13.0173 21.5201 11.233 22.009 9.76651 22.9867C8.34888 23.9643 7.27343 25.2842 6.54017 26.9463C5.80691 28.5594 5.44028 30.3437 5.44028 32.299C5.44028 33.9122 5.80691 35.3787 6.54017 36.6986C7.27343 37.9696 8.27555 39.1672 9.54653 40.2916C10.8664 41.4159 12.3818 42.4914 14.0927 43.5179C15.8526 44.5445 17.7346 45.5466 19.7388 46.5243C24.5784 48.333 28.8557 50.3617 32.5709 52.6103C36.335 54.8101 39.488 57.3276 42.0299 60.1629C44.5719 62.9493 46.4784 66.1268 47.7494 69.6953C49.0692 73.2638 49.7292 77.2967 49.7292 81.7941C49.7292 86.5847 48.947 90.8376 47.3827 94.5528C45.8673 98.268 43.6431 101.421 40.7101 104.012C37.777 106.554 34.2329 108.485 30.0778 109.805C25.9715 111.124 21.3276 111.784 16.1459 111.784C11.4041 111.784 6.7357 111.1 2.14061 109.731C-2.4056 108.314 -6.53629 106.163 -10.2515 103.279C-13.9178 100.346 -16.8508 96.6059 -19.0506 92.0597C-21.2504 87.4646 -22.3503 82.014 -22.3503 75.708H2.87387C2.87387 78.8366 3.11829 81.4763 3.60713 83.6272C4.09597 85.7781 4.85367 87.5135 5.88023 88.8334C6.95568 90.1043 8.32443 91.0331 9.98649 91.6198C11.6485 92.1575 13.7017 92.4263 16.1459 92.4263C18.3945 92.4263 20.1299 91.9619 21.352 91.0331C22.623 90.0555 23.5029 88.7845 23.9917 87.2202C24.4806 85.607 24.725 83.8472 24.725 81.9407ZM123.788 90.5199V110.318H78.9129V90.5199H123.788ZM87.712 3.55527V110.318H62.6345V3.55527H87.712ZM197.701 90.5199V110.318H150.992V90.5199H197.701ZM159.718 3.55527V110.318H134.641V3.55527H159.718ZM191.615 45.9377V65.0758H150.992V45.9377H191.615ZM197.921 3.55527V23.4266H150.992V3.55527H197.921ZM271.027 90.5199V110.318H224.318V90.5199H271.027ZM233.044 3.55527V110.318H207.967V3.55527H233.044ZM264.941 45.9377V65.0758H224.318V45.9377H264.941ZM271.247 3.55527V23.4266H224.318V3.55527H271.247ZM344.353 90.5199V110.318H297.644V90.5199H344.353ZM306.37 3.55527V110.318H281.293V3.55527H306.37ZM338.267 45.9377V65.0758H297.644V45.9377H338.267ZM344.573 3.55527V23.4266H297.644V3.55527H344.573ZM417.679 90.5199V110.318H370.97V90.5199H417.679ZM379.696 3.55527V110.318H354.618V3.55527H379.696ZM411.593 45.9377V65.0758H370.97V45.9377H411.593ZM417.899 3.55527V23.4266H370.97V3.55527H417.899ZM465.194 74.0948H443.856V54.2235H465.194C467.687 54.2235 469.691 53.6125 471.207 52.3904C472.771 51.1683 473.895 49.4818 474.58 47.3309C475.313 45.1311 475.68 42.6625 475.68 39.9249C475.68 36.9919 475.313 34.2788 474.58 31.7858C473.895 29.2927 472.771 27.2884 471.207 25.773C469.691 24.2087 467.687 23.4266 465.194 23.4266H453.022V110.318H427.944V3.55527H465.194C472.576 3.55527 478.93 5.11956 484.259 8.24813C489.636 11.3767 493.767 15.6785 496.651 21.1535C499.584 26.5796 501.05 32.7879 501.05 39.7783C501.05 46.6709 499.584 52.6837 496.651 57.8165C493.767 62.9493 489.636 66.9578 484.259 69.8419C478.93 72.6772 472.576 74.0948 465.194 74.0948Z"/>
</mask>
<path d="M24.2117 77.4678L20.7702 78.2053L20.7859 78.2786L20.8047 78.3511L24.2117 77.4678ZM22.3786 73.6549L19.5629 75.7667L19.5905 75.8035L19.619 75.8395L22.3786 73.6549ZM18.3456 70.1352L16.3751 73.0516L16.4025 73.0701L16.4303 73.0881L18.3456 70.1352ZM11.0864 66.3223L12.4917 63.0954L12.4571 63.0803L12.4223 63.066L11.0864 66.3223ZM-0.132494 61.0428L-1.82077 64.1311L-1.80483 64.1398L-1.7888 64.1484L-0.132494 61.0428ZM-10.0315 54.0769L-12.4315 56.6514L-12.4089 56.6724L-12.386 56.693L-10.0315 54.0769ZM-16.9975 44.6911L-20.1625 46.2309L-20.1583 46.2394L-20.1541 46.2478L-16.9975 44.6911ZM-16.9975 19.687L-20.162 18.1463L-20.1663 18.1551L-20.1705 18.1639L-16.9975 19.687ZM-9.59154 10.2279L-7.34666 12.9387L-7.34242 12.9352L-9.59154 10.2279ZM1.62733 4.2152L2.6945 7.56917L2.71175 7.56368L2.72894 7.55801L1.62733 4.2152ZM33.5241 6.19501L31.8678 9.30058L31.8854 9.30996L31.9031 9.31914L33.5241 6.19501ZM45.6229 17.7072L42.5762 19.4695L42.5865 19.4872L42.5969 19.5048L45.6229 17.7072ZM50.0225 35.2321V38.7517H53.5421V35.2321H50.0225ZM25.0183 35.2321H21.4987V38.7517H25.0183V35.2321ZM20.7654 23.28L18.5214 25.9915L18.5439 26.0101L18.5667 26.0283L20.7654 23.28ZM9.76651 22.9867L7.81416 20.0581L7.7911 20.0735L7.76829 20.0892L9.76651 22.9867ZM6.54017 26.9463L9.74434 28.4027L9.75245 28.3849L9.76036 28.3669L6.54017 26.9463ZM6.54017 36.6986L3.46344 38.4079L3.47727 38.4328L3.4915 38.4575L6.54017 36.6986ZM9.54653 40.2916L7.21451 42.9278L7.23913 42.9496L7.26416 42.9709L9.54653 40.2916ZM14.0927 43.5179L12.2819 46.536L12.3005 46.5472L12.3193 46.5581L14.0927 43.5179ZM19.7388 46.5243L18.1957 49.6876L18.348 49.7619L18.5067 49.8212L19.7388 46.5243ZM32.5709 52.6103L30.7484 55.6214L30.7716 55.6354L30.795 55.6491L32.5709 52.6103ZM42.0299 60.1629L39.4093 62.5124L39.4195 62.5238L39.4297 62.535L42.0299 60.1629ZM47.7494 69.6953L44.4337 70.8762L44.4409 70.8963L44.4483 70.9162L47.7494 69.6953ZM47.3827 94.5528L44.1389 93.187L44.1312 93.2052L44.1238 93.2235L47.3827 94.5528ZM40.7101 104.012L43.0152 106.672L43.0277 106.661L43.0402 106.65L40.7101 104.012ZM30.0778 109.805L29.0123 106.45L29.0008 106.454L30.0778 109.805ZM2.14061 109.731L1.09285 113.091L1.1143 113.098L1.13583 113.104L2.14061 109.731ZM-10.2515 103.279L-12.4502 106.027L-12.4301 106.043L-12.4098 106.059L-10.2515 103.279ZM-19.0506 92.0597L-22.2252 93.5795L-22.222 93.5861L-22.2188 93.5927L-19.0506 92.0597ZM-22.3503 75.708V72.1884H-25.8699V75.708H-22.3503ZM2.87387 75.708H6.39352V72.1884H2.87387V75.708ZM5.88023 88.8334L3.10199 90.9942L3.14653 91.0515L3.19339 91.1069L5.88023 88.8334ZM9.98649 91.6198L8.81508 94.9387L8.85888 94.9542L8.90307 94.9685L9.98649 91.6198ZM21.352 91.0331L23.4817 93.8354L23.4899 93.8291L23.498 93.8229L21.352 91.0331ZM23.9917 87.2202L27.3512 88.27L27.3557 88.2555L27.3601 88.2409L23.9917 87.2202ZM28.2447 81.9407C28.2447 80.0431 28.0499 78.2477 27.6187 76.5845L20.8047 78.3511C21.0579 79.3278 21.2054 80.5142 21.2054 81.9407H28.2447ZM27.6532 76.7304C27.239 74.7972 26.3787 73.0372 25.1381 71.4702L19.619 75.8395C20.2361 76.619 20.5978 77.4009 20.7702 78.2053L27.6532 76.7304ZM25.1943 71.5431C23.9785 69.9221 22.2689 68.4848 20.261 67.1824L16.4303 73.0881C18.0398 74.1321 19.0188 75.0412 19.5629 75.7667L25.1943 71.5431ZM20.3161 67.2189C18.263 65.8316 15.6303 64.4622 12.4917 63.0954L9.6811 69.5492C12.604 70.8221 14.8109 71.9947 16.3751 73.0516L20.3161 67.2189ZM12.4223 63.066C8.71948 61.5469 5.08676 59.8375 1.52381 57.9373L-1.7888 64.1484C1.98085 66.1589 5.82737 67.9691 9.75047 69.5786L12.4223 63.066ZM1.55578 57.9545C-1.88491 56.0736 -4.95851 53.9073 -7.67698 51.4607L-12.386 56.693C-9.23841 59.5258 -5.71267 62.0036 -1.82077 64.1311L1.55578 57.9545ZM-7.63154 51.5024C-10.201 49.1071 -12.2677 46.3242 -13.8408 43.1344L-20.1541 46.2478C-18.2075 50.1951 -15.6303 53.6694 -12.4315 56.6514L-7.63154 51.5024ZM-13.8325 43.1514C-15.3185 40.0968 -16.1176 36.437 -16.1176 32.0791H-23.1568C-23.1568 37.3024 -22.1961 42.0506 -20.1625 46.2309L-13.8325 43.1514ZM-16.1176 32.0791C-16.1176 27.9424 -15.3281 24.3426 -13.8244 21.21L-20.1705 18.1639C-22.1865 22.3639 -23.1568 27.0256 -23.1568 32.0791H-16.1176ZM-13.8329 21.2276C-12.24 17.9556 -10.082 15.2039 -7.34666 12.9387L-11.8364 7.51714C-15.3583 10.4337 -18.1376 13.988 -20.162 18.1463L-13.8329 21.2276ZM-7.34242 12.9352C-4.54472 10.611 -1.21561 8.81329 2.6945 7.56917L0.56016 0.861243C-4.13331 2.35462 -8.28344 4.56543 -11.8407 7.52066L-7.34242 12.9352ZM2.72894 7.55801C6.63467 6.2709 10.951 5.6084 15.7059 5.6084V-1.43089C10.293 -1.43089 5.22357 -0.675759 0.525722 0.872396L2.72894 7.55801ZM15.7059 5.6084C21.9669 5.6084 27.3207 6.87545 31.8678 9.30058L35.1804 3.08944C29.4619 0.0395547 22.9369 -1.43089 15.7059 -1.43089V5.6084ZM31.9031 9.31914C36.498 11.7033 40.0326 15.072 42.5762 19.4695L48.6696 15.9449C45.4449 10.37 40.9136 6.06394 35.1451 3.07087L31.9031 9.31914ZM42.5969 19.5048C45.1542 23.8096 46.5028 29.0071 46.5028 35.2321H53.5421C53.5421 27.9651 51.9577 21.4794 48.6489 15.9096L42.5969 19.5048ZM50.0225 31.7124H25.0183V38.7517H50.0225V31.7124ZM28.538 35.2321C28.538 32.253 28.1597 29.4933 27.3308 27.0065L20.6527 29.2325C21.1925 30.8519 21.4987 32.8339 21.4987 35.2321H28.538ZM27.3308 27.0065C26.4653 24.4101 25.0374 22.1902 22.9641 20.5316L18.5667 26.0283C19.4264 26.7161 20.1494 27.7225 20.6527 29.2325L27.3308 27.0065ZM23.0094 20.5684C20.8035 18.7429 18.0549 18.0005 15.1193 18.0005V25.0398C16.8766 25.0398 17.892 25.4706 18.5214 25.9915L23.0094 20.5684ZM15.1193 18.0005C12.4585 18.0005 9.96255 18.6259 7.81416 20.0581L11.7189 25.9152C12.5035 25.3921 13.5761 25.0398 15.1193 25.0398V18.0005ZM7.76829 20.0892C5.78461 21.4573 4.30102 23.3019 3.31998 25.5256L9.76036 28.3669C10.2458 27.2665 10.9131 26.4714 11.7647 25.8841L7.76829 20.0892ZM3.336 25.4898C2.37418 27.6058 1.92063 29.8937 1.92063 32.299H8.95993C8.95993 30.7937 9.23963 29.513 9.74434 28.4027L3.336 25.4898ZM1.92063 32.299C1.92063 34.4681 2.41986 36.5294 3.46344 38.4079L9.61689 34.9893C9.19396 34.228 8.95993 33.3563 8.95993 32.299H1.92063ZM3.4915 38.4575C4.44179 40.1046 5.7025 41.5902 7.21451 42.9278L11.8786 37.6554C10.8486 36.7443 10.1051 35.8346 9.58884 34.9398L3.4915 38.4575ZM7.26416 42.9709C8.75168 44.238 10.429 45.4242 12.2819 46.536L15.9036 40.4998C14.3346 39.5585 12.9811 38.5938 11.8289 37.6123L7.26416 42.9709ZM12.3193 46.5581C14.161 47.6324 16.1205 48.6753 18.1957 49.6876L21.2819 43.3609C19.3487 42.4179 17.5441 41.4565 15.8662 40.4777L12.3193 46.5581ZM18.5067 49.8212C23.1783 51.5672 27.2519 53.5051 30.7484 55.6214L34.3934 49.5993C30.4595 47.2182 25.9784 45.0988 20.971 43.2274L18.5067 49.8212ZM30.795 55.6491C34.2883 57.6906 37.1439 59.9856 39.4093 62.5124L44.6506 57.8134C41.8321 54.6697 38.3816 51.9296 34.3468 49.5716L30.795 55.6491ZM39.4297 62.535C41.655 64.9743 43.319 67.7464 44.4337 70.8762L51.065 68.5144C49.6378 64.5072 47.4888 60.9243 44.6301 57.7908L39.4297 62.535ZM44.4483 70.9162C45.5999 74.03 46.2095 77.6393 46.2095 81.7941H53.2488C53.2488 76.9542 52.5385 72.4977 51.0504 68.4743L44.4483 70.9162ZM46.2095 81.7941C46.2095 86.2024 45.4902 89.9775 44.1389 93.187L50.6266 95.9186C52.4038 91.6977 53.2488 86.967 53.2488 81.7941H46.2095ZM44.1238 93.2235C42.8077 96.4499 40.8962 99.1512 38.3799 101.374L43.0402 106.65C46.39 103.691 48.9269 100.086 50.6417 95.8821L44.1238 93.2235ZM38.4049 101.352C35.8756 103.544 32.7675 105.257 29.0123 106.45L31.1433 113.159C35.6984 111.712 39.6784 109.563 43.0152 106.672L38.4049 101.352ZM29.0008 106.454C25.3044 107.642 21.0332 108.265 16.1459 108.265V115.304C21.622 115.304 26.6386 114.607 31.1548 113.155L29.0008 106.454ZM16.1459 108.265C11.7482 108.265 7.41808 107.631 3.14539 106.358L1.13583 113.104C6.05333 114.569 11.0601 115.304 16.1459 115.304V108.265ZM3.18838 106.371C-0.961083 105.077 -4.71472 103.121 -8.09316 100.498L-12.4098 106.059C-8.35787 109.204 -3.85011 111.55 1.09285 113.091L3.18838 106.371ZM-8.05277 100.53C-11.2789 97.9493 -13.8935 94.637 -15.8824 90.5267L-22.2188 93.5927C-19.8081 98.5749 -16.5567 102.742 -12.4502 106.027L-8.05277 100.53ZM-15.876 90.5399C-17.8012 86.5184 -18.8306 81.6103 -18.8306 75.708H-25.8699C-25.8699 82.4178 -24.6996 88.4108 -22.2252 93.5795L-15.876 90.5399ZM-22.3503 79.2277H2.87387V72.1884H-22.3503V79.2277ZM-0.645775 75.708C-0.645775 78.9995 -0.390553 81.9188 0.175008 84.4072L7.03925 82.8472C6.62713 81.0339 6.39352 78.6737 6.39352 75.708H-0.645775ZM0.175008 84.4072C0.743248 86.9075 1.67494 89.1594 3.10199 90.9942L8.65848 86.6725C8.03241 85.8676 7.44869 84.6487 7.03925 82.8472L0.175008 84.4072ZM3.19339 91.1069C4.69616 92.8829 6.59995 94.1569 8.81508 94.9387L11.1579 88.3008C10.0489 87.9094 9.21521 87.3258 8.56708 86.5599L3.19339 91.1069ZM8.90307 94.9685C11.0238 95.6546 13.4688 95.946 16.1459 95.946V88.9067C13.9345 88.9067 12.2732 88.6603 11.0699 88.271L8.90307 94.9685ZM16.1459 95.946C18.8201 95.946 21.4207 95.4017 23.4817 93.8354L19.2223 88.2309C18.8391 88.5222 17.9689 88.9067 16.1459 88.9067V95.946ZM23.498 93.8229C25.3561 92.3935 26.6515 90.509 27.3512 88.27L20.6323 86.1704C20.3543 87.06 19.8899 87.7174 19.206 88.2434L23.498 93.8229ZM27.3601 88.2409C27.9614 86.2567 28.2447 84.1485 28.2447 81.9407H21.2054C21.2054 83.5459 20.9998 84.9574 20.6234 86.1995L27.3601 88.2409ZM123.788 90.5199H127.308V87.0002H123.788V90.5199ZM123.788 110.318V113.838H127.308V110.318H123.788ZM78.9129 110.318H75.3932V113.838H78.9129V110.318ZM78.9129 90.5199V87.0002H75.3932V90.5199H78.9129ZM87.712 3.55527H91.2317V0.0356247H87.712V3.55527ZM87.712 110.318V113.838H91.2317V110.318H87.712ZM62.6345 110.318H59.1149V113.838H62.6345V110.318ZM62.6345 3.55527V0.0356247H59.1149V3.55527H62.6345ZM120.269 90.5199V110.318H127.308V90.5199H120.269ZM123.788 106.798H78.9129V113.838H123.788V106.798ZM82.4325 110.318V90.5199H75.3932V110.318H82.4325ZM78.9129 94.0395H123.788V87.0002H78.9129V94.0395ZM84.1924 3.55527V110.318H91.2317V3.55527H84.1924ZM87.712 106.798H62.6345V113.838H87.712V106.798ZM66.1542 110.318V3.55527H59.1149V110.318H66.1542ZM62.6345 7.07492H87.712V0.0356247H62.6345V7.07492ZM197.701 90.5199H201.221V87.0002H197.701V90.5199ZM197.701 110.318V113.838H201.221V110.318H197.701ZM150.992 110.318H147.473V113.838H150.992V110.318ZM150.992 90.5199V87.0002H147.473V90.5199H150.992ZM159.718 3.55527H163.238V0.0356247H159.718V3.55527ZM159.718 110.318V113.838H163.238V110.318H159.718ZM134.641 110.318H131.121V113.838H134.641V110.318ZM134.641 3.55527V0.0356247H131.121V3.55527H134.641ZM191.615 45.9377H195.135V42.418H191.615V45.9377ZM191.615 65.0758V68.5954H195.135V65.0758H191.615ZM150.992 65.0758H147.473V68.5954H150.992V65.0758ZM150.992 45.9377V42.418H147.473V45.9377H150.992ZM197.921 3.55527H201.441V0.0356247H197.921V3.55527ZM197.921 23.4266V26.9463H201.441V23.4266H197.921ZM150.992 23.4266H147.473V26.9463H150.992V23.4266ZM150.992 3.55527V0.0356247H147.473V3.55527H150.992ZM194.181 90.5199V110.318H201.221V90.5199H194.181ZM197.701 106.798H150.992V113.838H197.701V106.798ZM154.512 110.318V90.5199H147.473V110.318H154.512ZM150.992 94.0395H197.701V87.0002H150.992V94.0395ZM156.198 3.55527V110.318H163.238V3.55527H156.198ZM159.718 106.798H134.641V113.838H159.718V106.798ZM138.16 110.318V3.55527H131.121V110.318H138.16ZM134.641 7.07492H159.718V0.0356247H134.641V7.07492ZM188.095 45.9377V65.0758H195.135V45.9377H188.095ZM191.615 61.5561H150.992V68.5954H191.615V61.5561ZM154.512 65.0758V45.9377H147.473V65.0758H154.512ZM150.992 49.4573H191.615V42.418H150.992V49.4573ZM194.401 3.55527V23.4266H201.441V3.55527H194.401ZM197.921 19.907H150.992V26.9463H197.921V19.907ZM154.512 23.4266V3.55527H147.473V23.4266H154.512ZM150.992 7.07492H197.921V0.0356247H150.992V7.07492ZM271.027 90.5199H274.547V87.0002H271.027V90.5199ZM271.027 110.318V113.838H274.547V110.318H271.027ZM224.318 110.318H220.799V113.838H224.318V110.318ZM224.318 90.5199V87.0002H220.799V90.5199H224.318ZM233.044 3.55527H236.564V0.0356247H233.044V3.55527ZM233.044 110.318V113.838H236.564V110.318H233.044ZM207.967 110.318H204.447V113.838H207.967V110.318ZM207.967 3.55527V0.0356247H204.447V3.55527H207.967ZM264.941 45.9377H268.46V42.418H264.941V45.9377ZM264.941 65.0758V68.5954H268.46V65.0758H264.941ZM224.318 65.0758H220.799V68.5954H224.318V65.0758ZM224.318 45.9377V42.418H220.799V45.9377H224.318ZM271.247 3.55527H274.767V0.0356247H271.247V3.55527ZM271.247 23.4266V26.9463H274.767V23.4266H271.247ZM224.318 23.4266H220.799V26.9463H224.318V23.4266ZM224.318 3.55527V0.0356247H220.799V3.55527H224.318ZM267.507 90.5199V110.318H274.547V90.5199H267.507ZM271.027 106.798H224.318V113.838H271.027V106.798ZM227.838 110.318V90.5199H220.799V110.318H227.838ZM224.318 94.0395H271.027V87.0002H224.318V94.0395ZM229.524 3.55527V110.318H236.564V3.55527H229.524ZM233.044 106.798H207.967V113.838H233.044V106.798ZM211.486 110.318V3.55527H204.447V110.318H211.486ZM207.967 7.07492H233.044V0.0356247H207.967V7.07492ZM261.421 45.9377V65.0758H268.46V45.9377H261.421ZM264.941 61.5561H224.318V68.5954H264.941V61.5561ZM227.838 65.0758V45.9377H220.799V65.0758H227.838ZM224.318 49.4573H264.941V42.418H224.318V49.4573ZM267.727 3.55527V23.4266H274.767V3.55527H267.727ZM271.247 19.907H224.318V26.9463H271.247V19.907ZM227.838 23.4266V3.55527H220.799V23.4266H227.838ZM224.318 7.07492H271.247V0.0356247H224.318V7.07492ZM344.353 90.5199H347.873V87.0002H344.353V90.5199ZM344.353 110.318V113.838H347.873V110.318H344.353ZM297.644 110.318H294.125V113.838H297.644V110.318ZM297.644 90.5199V87.0002H294.125V90.5199H297.644ZM306.37 3.55527H309.89V0.0356247H306.37V3.55527ZM306.37 110.318V113.838H309.89V110.318H306.37ZM281.293 110.318H277.773V113.838H281.293V110.318ZM281.293 3.55527V0.0356247H277.773V3.55527H281.293ZM338.267 45.9377H341.786V42.418H338.267V45.9377ZM338.267 65.0758V68.5954H341.786V65.0758H338.267ZM297.644 65.0758H294.125V68.5954H297.644V65.0758ZM297.644 45.9377V42.418H294.125V45.9377H297.644ZM344.573 3.55527H348.092V0.0356247H344.573V3.55527ZM344.573 23.4266V26.9463H348.092V23.4266H344.573ZM297.644 23.4266H294.125V26.9463H297.644V23.4266ZM297.644 3.55527V0.0356247H294.125V3.55527H297.644ZM340.833 90.5199V110.318H347.873V90.5199H340.833ZM344.353 106.798H297.644V113.838H344.353V106.798ZM301.164 110.318V90.5199H294.125V110.318H301.164ZM297.644 94.0395H344.353V87.0002H297.644V94.0395ZM302.85 3.55527V110.318H309.89V3.55527H302.85ZM306.37 106.798H281.293V113.838H306.37V106.798ZM284.812 110.318V3.55527H277.773V110.318H284.812ZM281.293 7.07492H306.37V0.0356247H281.293V7.07492ZM334.747 45.9377V65.0758H341.786V45.9377H334.747ZM338.267 61.5561H297.644V68.5954H338.267V61.5561ZM301.164 65.0758V45.9377H294.125V65.0758H301.164ZM297.644 49.4573H338.267V42.418H297.644V49.4573ZM341.053 3.55527V23.4266H348.092V3.55527H341.053ZM344.573 19.907H297.644V26.9463H344.573V19.907ZM301.164 23.4266V3.55527H294.125V23.4266H301.164ZM297.644 7.07492H344.573V0.0356247H297.644V7.07492ZM417.679 90.5199H421.198V87.0002H417.679V90.5199ZM417.679 110.318V113.838H421.198V110.318H417.679ZM370.97 110.318H367.451V113.838H370.97V110.318ZM370.97 90.5199V87.0002H367.451V90.5199H370.97ZM379.696 3.55527H383.216V0.0356247H379.696V3.55527ZM379.696 110.318V113.838H383.216V110.318H379.696ZM354.618 110.318H351.099V113.838H354.618V110.318ZM354.618 3.55527V0.0356247H351.099V3.55527H354.618ZM411.593 45.9377H415.112V42.418H411.593V45.9377ZM411.593 65.0758V68.5954H415.112V65.0758H411.593ZM370.97 65.0758H367.451V68.5954H370.97V65.0758ZM370.97 45.9377V42.418H367.451V45.9377H370.97ZM417.899 3.55527H421.418V0.0356247H417.899V3.55527ZM417.899 23.4266V26.9463H421.418V23.4266H417.899ZM370.97 23.4266H367.451V26.9463H370.97V23.4266ZM370.97 3.55527V0.0356247H367.451V3.55527H370.97ZM414.159 90.5199V110.318H421.198V90.5199H414.159ZM417.679 106.798H370.97V113.838H417.679V106.798ZM374.49 110.318V90.5199H367.451V110.318H374.49ZM370.97 94.0395H417.679V87.0002H370.97V94.0395ZM376.176 3.55527V110.318H383.216V3.55527H376.176ZM379.696 106.798H354.618V113.838H379.696V106.798ZM358.138 110.318V3.55527H351.099V110.318H358.138ZM354.618 7.07492H379.696V0.0356247H354.618V7.07492ZM408.073 45.9377V65.0758H415.112V45.9377H408.073ZM411.593 61.5561H370.97V68.5954H411.593V61.5561ZM374.49 65.0758V45.9377H367.451V65.0758H374.49ZM370.97 49.4573H411.593V42.418H370.97V49.4573ZM414.379 3.55527V23.4266H421.418V3.55527H414.379ZM417.899 19.907H370.97V26.9463H417.899V19.907ZM374.49 23.4266V3.55527H367.451V23.4266H374.49ZM370.97 7.07492H417.899V0.0356247H370.97V7.07492ZM443.856 74.0948H440.337V77.6145H443.856V74.0948ZM443.856 54.2235V50.7039H440.337V54.2235H443.856ZM471.207 52.3904L469.04 49.6168L469.018 49.6335L468.997 49.6506L471.207 52.3904ZM474.58 47.3309L471.241 46.2179L471.233 46.2407L471.226 46.2637L474.58 47.3309ZM474.58 31.7858L471.186 32.7175L471.194 32.7483L471.203 32.7789L474.58 31.7858ZM471.207 25.773L468.679 28.222L468.718 28.2621L468.758 28.301L471.207 25.773ZM453.022 23.4266V19.907H449.502V23.4266H453.022ZM453.022 110.318V113.838H456.542V110.318H453.022ZM427.944 110.318H424.425V113.838H427.944V110.318ZM427.944 3.55527V0.0356247H424.425V3.55527H427.944ZM484.259 8.24813L482.477 11.2833L482.489 11.2903L484.259 8.24813ZM496.651 21.1535L493.537 22.7939L493.546 22.8106L493.555 22.8272L496.651 21.1535ZM496.651 57.8165L493.595 56.0702L493.589 56.0813L493.582 56.0923L496.651 57.8165ZM484.259 69.8419L485.912 72.9491L485.922 72.9436L484.259 69.8419ZM465.194 70.5752H443.856V77.6145H465.194V70.5752ZM447.376 74.0948V54.2235H440.337V74.0948H447.376ZM443.856 57.7432H465.194V50.7039H443.856V57.7432ZM465.194 57.7432C468.262 57.7432 471.117 56.9841 473.416 55.1301L468.997 49.6506C468.265 50.2408 467.112 50.7039 465.194 50.7039V57.7432ZM473.374 55.1639C475.571 53.4475 477.065 51.1285 477.934 48.398L471.226 46.2637C470.726 47.835 469.971 48.889 469.04 49.6168L473.374 55.1639ZM477.919 48.4439C478.791 45.8271 479.199 42.9742 479.199 39.9249H472.16C472.16 42.3507 471.835 44.4351 471.241 46.2179L477.919 48.4439ZM479.199 39.9249C479.199 36.6983 478.796 33.6466 477.956 30.7926L471.203 32.7789C471.83 34.9111 472.16 37.2856 472.16 39.9249H479.199ZM477.974 30.8541C477.154 27.8682 475.75 25.2742 473.656 23.2451L468.758 28.301C469.792 29.3027 470.637 30.7172 471.186 32.7175L477.974 30.8541ZM473.735 23.3241C471.458 20.9744 468.489 19.907 465.194 19.907V26.9463C466.885 26.9463 467.924 27.4431 468.679 28.222L473.735 23.3241ZM465.194 19.907H453.022V26.9463H465.194V19.907ZM449.502 23.4266V110.318H456.542V23.4266H449.502ZM453.022 106.798H427.944V113.838H453.022V106.798ZM431.464 110.318V3.55527H424.425V110.318H431.464ZM427.944 7.07492H465.194V0.0356247H427.944V7.07492ZM465.194 7.07492C472.071 7.07492 477.785 8.52866 482.477 11.2833L486.041 5.213C480.076 1.71045 473.08 0.0356247 465.194 0.0356247V7.07492ZM482.489 11.2903C487.299 14.0888 490.962 17.9062 493.537 22.7939L499.765 19.5131C496.571 13.4507 491.973 8.66461 486.029 5.20593L482.489 11.2903ZM493.555 22.8272C496.175 27.674 497.531 33.2934 497.531 39.7783H504.57C504.57 32.2824 502.993 25.4853 499.747 19.4798L493.555 22.8272ZM497.531 39.7783C497.531 46.161 496.177 51.5517 493.595 56.0702L499.707 59.5627C502.991 53.8156 504.57 47.1809 504.57 39.7783H497.531ZM493.582 56.0923C491.038 60.6198 487.405 64.1603 482.595 66.7403L485.922 72.9436C491.867 69.7553 496.495 65.2788 499.719 59.5406L493.582 56.0923ZM482.605 66.7348C477.888 69.2452 472.126 70.5752 465.194 70.5752V77.6145C473.025 77.6145 479.973 76.1092 485.912 72.9491L482.605 66.7348Z" fill="#FFF429" mask="url(#path-5-outside-2_690_27)"/>
</g>
</svg>
