<svg width="298" height="55" viewBox="0 0 298 55" fill="none" xmlns="http://www.w3.org/2000/svg">
<path d="M25.9235 14.2192C24.1949 12.0726 21.9094 10.9934 19.067 10.9934C18.0692 10.9934 17.0947 11.2255 16.155 11.7012C15.2152 12.177 14.7396 12.9893 14.7396 14.138C14.7396 15.0779 15.2268 15.7741 16.2014 16.2267C17.1759 16.6676 18.4057 17.0621 19.9023 17.4102C21.3989 17.7467 22.9999 18.1181 24.7054 18.5126C26.4108 18.9071 28.0118 19.5221 29.5084 20.3576C31.005 21.193 32.2348 22.3418 33.2093 23.7806C34.1839 25.2311 34.6712 27.1573 34.6712 29.5709C34.6712 31.9844 34.1375 34.0731 33.0585 35.6744C31.9796 37.2757 30.599 38.5637 28.9283 39.5384C27.2461 40.5131 25.355 41.1977 23.2552 41.5806C21.1553 41.9751 19.0786 42.1724 17.0367 42.1724C14.3567 42.1724 11.6535 41.7895 8.92715 41.0353C6.20076 40.2694 3.89204 38.9234 2.00098 36.974L9.17078 29.0139C10.2729 30.3831 11.4911 31.4158 12.8369 32.1237C14.1711 32.8315 15.7373 33.1912 17.5239 33.1912C18.8929 33.1912 20.1227 32.9939 21.2249 32.5994C22.327 32.2049 22.8839 31.4855 22.8839 30.4295C22.8839 29.3736 22.3966 28.689 21.4221 28.19C20.4476 27.6911 19.2178 27.2733 17.7212 26.9252C16.2246 26.5887 14.6235 26.2174 12.9181 25.8229C11.2127 25.4284 9.61164 24.8366 8.11503 24.0475C6.61842 23.2585 5.38865 22.1445 4.41411 20.7057C3.43958 19.2668 2.95231 17.329 2.95231 14.9155C2.95231 12.6527 3.41637 10.7149 4.3329 9.09043C5.24943 7.46592 6.456 6.1199 7.95261 5.07557C9.44922 4.03124 11.1663 3.2538 13.1153 2.75484C15.0528 2.25588 17.0251 2.01221 19.0206 2.01221C21.5381 2.01221 24.0905 2.38352 26.6544 3.11455C29.23 3.84558 31.3995 5.15679 33.1861 7.04819L25.9235 14.2192Z" fill="#141314"/>
<path d="M65.1861 2.95215L57.587 15.5073L50.4056 2.95215H37.8643L52.4939 25.0687V41.2326H62.6221V25.0687L77.2518 2.95215H65.1861Z" fill="#141314"/>
<path d="M84.418 2.95199H95.7528V8.15042H95.9152C96.2864 7.41939 96.8085 6.67676 97.493 5.94573C98.1775 5.2147 98.9896 4.55329 99.9293 3.97311C100.869 3.39293 101.948 2.92878 103.155 2.55746C104.361 2.18615 105.672 2.00049 107.088 2.00049C110.081 2.00049 112.494 2.46463 114.327 3.38132C116.16 4.29801 117.599 5.57441 118.62 7.19892C119.64 8.82343 120.337 10.738 120.708 12.9427C121.079 15.1474 121.265 17.5378 121.265 20.1138V41.2208H109.454V22.4925C109.454 21.3902 109.419 20.253 109.338 19.0694C109.257 17.8859 109.025 16.7951 108.631 15.7972C108.236 14.7993 107.633 13.9871 106.821 13.3605C106.009 12.7339 104.837 12.4206 103.317 12.4206C101.797 12.4206 100.556 12.699 99.6161 13.2444C98.6764 13.8014 97.9455 14.5324 97.4466 15.4491C96.9477 16.3658 96.6229 17.4101 96.4605 18.5589C96.298 19.7193 96.2284 20.926 96.2284 22.1792V41.2324H84.418V2.95199Z" fill="#141314"/>
<path d="M153.601 36.4285H153.473C152.162 38.4707 150.411 39.9444 148.241 40.8379C146.06 41.7314 143.763 42.1723 141.35 42.1723C139.563 42.1723 137.846 41.9286 136.187 41.4297C134.528 40.9307 133.078 40.1881 131.813 39.1902C130.549 38.1922 129.551 36.9623 128.82 35.4886C128.089 34.0149 127.718 32.3092 127.718 30.3714C127.718 28.1667 128.124 26.2985 128.936 24.7784C129.748 23.2584 130.85 21.9936 132.242 20.9956C133.635 19.9977 135.224 19.2203 137.011 18.6749C138.797 18.1179 140.642 17.7118 142.568 17.4565C144.482 17.1897 146.396 17.0388 148.311 16.9808C150.225 16.9344 152 16.8996 153.624 16.8996C153.624 14.7993 152.87 13.1284 151.373 11.8984C149.877 10.6684 148.102 10.0418 146.06 10.0418C144.018 10.0418 142.347 10.4479 140.746 11.2602C139.145 12.0724 137.718 13.1864 136.454 14.602L130.154 8.13881C132.358 6.09657 134.934 4.55329 137.869 3.53217C140.804 2.51105 143.856 2.00049 147 2.00049C150.469 2.00049 153.311 2.42982 155.538 3.3001C157.766 4.17037 159.553 5.43517 160.887 7.11769C162.221 8.80022 163.161 10.8541 163.683 13.3024C164.205 15.7392 164.472 18.5705 164.472 21.7731V41.2208H153.601V36.4285ZM147.371 24.5696C146.037 24.6508 144.749 24.8713 143.508 25.2426C142.278 25.6139 141.222 26.1593 140.352 26.9019C139.482 27.6329 139.053 28.6657 139.053 29.9769C139.053 31.3925 139.656 32.4484 140.862 33.1215C142.069 33.8061 143.334 34.1426 144.645 34.1426C145.793 34.1426 146.918 33.9801 147.986 33.6668C149.065 33.3535 150.016 32.901 150.863 32.3324C151.698 31.7522 152.371 31.0212 152.87 30.1277C153.369 29.2342 153.624 28.1899 153.624 26.9715V24.4535C151.539 24.4535 149.454 24.4439 147.371 24.5696Z" fill="#141314"/>
<path d="M183.867 2.9521V7.99969H184.029C184.505 7.31507 185.12 6.61885 185.874 5.91103C186.639 5.20321 187.533 4.56501 188.554 3.98483C189.575 3.40464 190.688 2.9405 191.895 2.56918C193.102 2.19787 194.389 2.01221 195.758 2.01221C198.589 2.01221 201.165 2.49956 203.473 3.47427C205.782 4.44897 207.766 5.8066 209.413 7.57035C211.073 9.3341 212.337 11.4112 213.23 13.8363C214.124 16.2499 214.565 18.9071 214.565 21.7964C214.565 24.4769 214.159 27.0297 213.346 29.478C212.534 31.9264 211.374 34.0847 209.878 35.9761C208.381 37.8675 206.559 39.3759 204.402 40.5015C202.244 41.627 199.807 42.1956 197.081 42.1956C194.61 42.1956 192.313 41.8127 190.19 41.0585C188.066 40.2926 186.315 38.993 184.957 37.1596H184.795V53.0003H172.984V2.9521H183.867ZM183.867 22.0865C183.867 24.9758 184.69 27.3081 186.349 29.0951C188.008 30.8821 190.329 31.7755 193.322 31.7755C196.315 31.7755 198.636 30.8821 200.295 29.0951C201.954 27.3081 202.777 24.9758 202.777 22.0865C202.777 19.1972 201.954 16.8649 200.295 15.0779C198.636 13.2909 196.315 12.3975 193.322 12.3975C190.329 12.3975 188.008 13.2909 186.349 15.0779C184.69 16.8649 183.867 19.1972 183.867 22.0865Z" fill="#141314"/>
<path d="M243.163 14.2192C241.434 12.0726 239.149 10.9934 236.306 10.9934C235.308 10.9934 234.334 11.2255 233.394 11.7012C232.455 12.177 231.979 12.9893 231.979 14.138C231.979 15.0779 232.466 15.7741 233.441 16.2267C234.415 16.6676 235.645 17.0621 237.142 17.4102C238.638 17.7467 240.239 18.1181 241.945 18.5126C243.65 18.9071 245.251 19.5221 246.748 20.3576C248.244 21.193 249.474 22.3418 250.449 23.7806C251.423 25.2311 251.91 27.1573 251.91 29.5709C251.91 31.9844 251.377 34.0731 250.298 35.6744C249.219 37.2757 247.838 38.5637 246.168 39.5384C244.485 40.5131 242.594 41.1977 240.494 41.5806C238.395 41.9751 236.318 42.1724 234.276 42.1724C231.596 42.1724 228.893 41.7895 226.166 41.0353C223.44 40.2694 221.131 38.9234 219.24 36.974L226.41 29.0139C227.512 30.3831 228.73 31.4158 230.076 32.1237C231.41 32.8315 232.977 33.1912 234.763 33.1912C236.132 33.1912 237.362 32.9939 238.464 32.5994C239.566 32.2049 240.123 31.4855 240.123 30.4295C240.123 29.3736 239.636 28.689 238.661 28.19C237.687 27.6911 236.457 27.2733 234.96 26.9252C233.464 26.5887 231.863 26.2174 230.157 25.8229C228.452 25.4284 226.851 24.8366 225.354 24.0475C223.858 23.2585 222.628 22.1445 221.653 20.7057C220.679 19.2668 220.192 17.329 220.192 14.9155C220.192 12.6527 220.656 10.7149 221.572 9.09043C222.489 7.46592 223.695 6.1199 225.192 5.07557C226.688 4.03124 228.406 3.2538 230.355 2.75484C232.292 2.25588 234.264 2.01221 236.26 2.01221C238.777 2.01221 241.33 2.38352 243.894 3.11455C246.469 3.84558 248.639 5.15679 250.425 7.04819L243.163 14.2192Z" fill="#141314"/>
<path d="M294.191 34.6184C292.3 37.032 289.91 38.9002 287.021 40.2114C284.132 41.5226 281.139 42.184 278.041 42.184C274.944 42.184 272.333 41.7083 269.734 40.7684C267.136 39.8285 264.873 38.4708 262.959 36.7071C261.045 34.9433 259.537 32.8315 258.434 30.3715C257.332 27.8999 256.775 25.1499 256.775 22.0981C256.775 19.0463 257.332 16.2963 258.434 13.8247C259.537 11.3531 261.045 9.24127 262.959 7.48913C264.873 5.72537 267.136 4.37935 269.734 3.42785C272.333 2.48796 275.106 2.01221 278.041 2.01221C280.768 2.01221 283.25 2.48796 285.478 3.42785C287.705 4.36775 289.596 5.72537 291.151 7.48913C292.694 9.25288 293.889 11.3647 294.736 13.8247C295.571 16.2963 296 19.0463 296 22.0981V25.7997H268.597C269.073 28.0624 270.094 29.8609 271.672 31.1954C273.25 32.5298 275.187 33.2028 277.496 33.2028C279.433 33.2028 281.081 32.7735 282.415 31.9032C283.749 31.0329 284.921 29.919 285.919 28.5613L294.191 34.6184ZM284.19 17.77C284.236 15.7741 283.587 14.0684 282.218 12.6527C280.849 11.2371 279.097 10.5293 276.939 10.5293C275.628 10.5293 274.468 10.7381 273.47 11.1559C272.472 11.5736 271.614 12.119 270.906 12.7688C270.198 13.4302 269.642 14.1844 269.247 15.0547C268.853 15.925 268.632 16.8301 268.574 17.77H284.19Z" fill="#141314"/>
</svg>
